<?xml version="1.0" encoding="UTF-8" standalone="no"?>
<!DOCTYPE svg PUBLIC "-//W3C//DTD SVG 1.1//EN"
 "http://www.w3.org/Graphics/SVG/1.1/DTD/svg11.dtd">
<!-- Generated by graphviz version 2.43.0 (0)
 -->
<!-- Title: graph_name Pages: 1 -->
<svg width="864pt" height="377pt"
 viewBox="36.00 54.00 828.00 322.70" xmlns="http://www.w3.org/2000/svg" xmlns:xlink="http://www.w3.org/1999/xlink">
<g id="graph0" class="graph" transform="scale(0.23 0.23) rotate(0) translate(163.94 1429.7)">
<title>graph_name</title>
<polygon fill="white" stroke="transparent" points="-4,4 -4,-1189.78 3514.73,-1189.78 3514.73,4 -4,4"/>
<text text-anchor="middle" x="1755.36" y="-1157.78" font-family="Times,serif" font-size="30.00">Degree Plan</text>
<!-- ECS 1100 -->
<g id="node1" class="node">
<title>ECS 1100</title>
<ellipse fill="lightgreen" stroke="black" cx="547.12" cy="-942.16" rx="144.5" ry="22.76"/>
<text text-anchor="middle" x="547.12" y="-945.96" font-family="Times,serif" font-size="14.00">ECS 1100 &#45; 2025 Fall</text>
<text text-anchor="middle" x="547.12" y="-930.96" font-family="Times,serif" font-size="14.00">Intro to Engineering and CS</text>
</g>
<!-- CS 1200 -->
<g id="node2" class="node">
<title>CS 1200</title>
<ellipse fill="lightgreen" stroke="black" cx="811.12" cy="-942.16" rx="101.65" ry="22.76"/>
<text text-anchor="middle" x="811.12" y="-945.96" font-family="Times,serif" font-size="14.00">CS 1200 &#45; 2025 Fall</text>
<text text-anchor="middle" x="811.12" y="-930.96" font-family="Times,serif" font-size="14.00">Intro to CS and SE</text>
</g>
<!-- MATH 2413 -->
<g id="node3" class="node">
<title>MATH 2413</title>
<ellipse fill="lightgreen" stroke="black" cx="707.12" cy="-635.65" rx="114.6" ry="22.76"/>
<text text-anchor="middle" x="707.12" y="-639.45" font-family="Times,serif" font-size="14.00">MATH 2413 &#45; Transfer</text>
<text text-anchor="middle" x="707.12" y="-624.45" font-family="Times,serif" font-size="14.00">Differential Calculus</text>
</g>
<!-- MATH 2414 -->
<g id="node6" class="node">
<title>MATH 2414</title>
<ellipse fill="lightgreen" stroke="black" cx="336.12" cy="-482.39" rx="118.59" ry="22.76"/>
<text text-anchor="middle" x="336.12" y="-486.19" font-family="Times,serif" font-size="14.00">MATH 2414 &#45; 2025 Fall</text>
<text text-anchor="middle" x="336.12" y="-471.19" font-family="Times,serif" font-size="14.00">Integral Calculus</text>
</g>
<!-- MATH 2413&#45;&gt;MATH 2414 -->
<g id="edge2" class="edge">
<title>MATH 2413&#45;&gt;MATH 2414</title>
<path fill="none" stroke="black" d="M659,-615.03C590.99,-587.3 466.9,-536.71 393.96,-506.97"/>
<polygon fill="black" stroke="black" points="395.04,-503.63 384.46,-503.1 392.39,-510.11 395.04,-503.63"/>
</g>
<!-- CS 2305 -->
<g id="node10" class="node">
<title>CS 2305</title>
<ellipse fill="yellow" stroke="black" cx="906.12" cy="-482.39" rx="196.65" ry="22.76"/>
<text text-anchor="middle" x="906.12" y="-486.19" font-family="Times,serif" font-size="14.00">CS 2305</text>
<text text-anchor="middle" x="906.12" y="-471.19" font-family="Times,serif" font-size="14.00">Discrete Mathematics for Computing I</text>
</g>
<!-- MATH 2413&#45;&gt;CS 2305 -->
<g id="edge6" class="edge">
<title>MATH 2413&#45;&gt;CS 2305</title>
<path fill="none" stroke="black" d="M734.79,-613.62C769.84,-586.98 830.35,-540.98 869.28,-511.39"/>
<polygon fill="black" stroke="black" points="871.88,-513.82 877.73,-504.98 867.65,-508.24 871.88,-513.82"/>
</g>
<!-- MATH 2418 -->
<g id="node16" class="node">
<title>MATH 2418</title>
<ellipse fill="yellow" stroke="black" cx="593.12" cy="-482.39" rx="76.24" ry="22.76"/>
<text text-anchor="middle" x="593.12" y="-486.19" font-family="Times,serif" font-size="14.00">MATH 2418</text>
<text text-anchor="middle" x="593.12" y="-471.19" font-family="Times,serif" font-size="14.00">Linear Algebra</text>
</g>
<!-- MATH 2413&#45;&gt;MATH 2418 -->
<g id="edge13" class="edge">
<title>MATH 2413&#45;&gt;MATH 2418</title>
<path fill="none" stroke="black" d="M690.79,-612.98C670.96,-586.66 637.41,-542.15 615.26,-512.76"/>
<polygon fill="black" stroke="black" points="617.87,-510.41 609.06,-504.54 612.28,-514.63 617.87,-510.41"/>
</g>
<!-- MATH 2312 -->
<g id="node4" class="node">
<title>MATH 2312</title>
<ellipse fill="lightgreen" stroke="black" cx="1045.12" cy="-942.16" rx="114.6" ry="22.76"/>
<text text-anchor="middle" x="1045.12" y="-945.96" font-family="Times,serif" font-size="14.00">MATH 2312 &#45; Transfer</text>
<text text-anchor="middle" x="1045.12" y="-930.96" font-family="Times,serif" font-size="14.00">Precalculus</text>
</g>
<!-- MATH 2312&#45;&gt;MATH 2413 -->
<g id="edge1" class="edge">
<title>MATH 2312&#45;&gt;MATH 2413</title>
<path fill="none" stroke="black" d="M1021.63,-919.99C962.21,-866.46 805.94,-725.67 738.67,-665.07"/>
<polygon fill="black" stroke="black" points="740.69,-662.18 730.92,-658.08 736.01,-667.38 740.69,-662.18"/>
</g>
<!-- CS 1436 -->
<g id="node5" class="node">
<title>CS 1436</title>
<ellipse fill="lightgreen" stroke="black" cx="1324.12" cy="-942.16" rx="146.24" ry="22.76"/>
<text text-anchor="middle" x="1324.12" y="-945.96" font-family="Times,serif" font-size="14.00">CS 1436 &#45; Transfer</text>
<text text-anchor="middle" x="1324.12" y="-930.96" font-family="Times,serif" font-size="14.00">Programming Fundamentals</text>
</g>
<!-- CS 1337 -->
<g id="node7" class="node">
<title>CS 1337</title>
<ellipse fill="lightgreen" stroke="black" cx="1302.12" cy="-788.9" rx="101.23" ry="22.76"/>
<text text-anchor="middle" x="1302.12" y="-792.7" font-family="Times,serif" font-size="14.00">CS 1337 &#45; Transfer</text>
<text text-anchor="middle" x="1302.12" y="-777.7" font-family="Times,serif" font-size="14.00">Computer Science I</text>
</g>
<!-- CS 1436&#45;&gt;CS 1337 -->
<g id="edge3" class="edge">
<title>CS 1436&#45;&gt;CS 1337</title>
<path fill="none" stroke="black" d="M1320.97,-919.49C1317.25,-893.88 1311.02,-851.05 1306.75,-821.68"/>
<polygon fill="black" stroke="black" points="1310.17,-820.92 1305.27,-811.53 1303.25,-821.93 1310.17,-820.92"/>
</g>
<!-- PHYS 2325 -->
<g id="node8" class="node">
<title>PHYS 2325</title>
<ellipse fill="yellow" stroke="black" cx="2492.12" cy="-482.39" rx="59.29" ry="22.76"/>
<text text-anchor="middle" x="2492.12" y="-486.19" font-family="Times,serif" font-size="14.00">PHYS 2325</text>
<text text-anchor="middle" x="2492.12" y="-471.19" font-family="Times,serif" font-size="14.00">Mechanics</text>
</g>
<!-- MATH 2414&#45;&gt;PHYS 2325 -->
<g id="edge4" class="edge">
<title>MATH 2414&#45;&gt;PHYS 2325</title>
<path fill="none" stroke="black" stroke-dasharray="5,2" d="M374.21,-503.85C409.87,-522.63 465.29,-548.5 517.12,-559.02 788.05,-614.01 1485.06,-573.45 1761.12,-559.02 2007.41,-546.15 2298.46,-509.04 2426.32,-491.62"/>
<polygon fill="black" stroke="black" points="2426.91,-495.07 2436.34,-490.25 2425.96,-488.14 2426.91,-495.07"/>
</g>
<!-- MATH 4332 -->
<g id="node13" class="node">
<title>MATH 4332</title>
<ellipse fill="yellow" stroke="black" cx="72.12" cy="-329.14" rx="72.25" ry="22.76"/>
<text text-anchor="middle" x="72.12" y="-332.94" font-family="Times,serif" font-size="14.00">MATH 4332</text>
<text text-anchor="middle" x="72.12" y="-317.94" font-family="Times,serif" font-size="14.00">Math Elective</text>
</g>
<!-- MATH 2414&#45;&gt;MATH 4332 -->
<g id="edge10" class="edge">
<title>MATH 2414&#45;&gt;MATH 4332</title>
<path fill="none" stroke="black" d="M299.97,-460.68C251.61,-432.97 166.02,-383.93 114.63,-354.49"/>
<polygon fill="black" stroke="black" points="116.18,-351.34 105.76,-349.41 112.7,-357.42 116.18,-351.34"/>
</g>
<!-- SE 3341 -->
<g id="node18" class="node">
<title>SE 3341</title>
<ellipse fill="#b2dfee" stroke="black" cx="330.12" cy="-329.14" rx="168.08" ry="22.76"/>
<text text-anchor="middle" x="330.12" y="-332.94" font-family="Times,serif" font-size="14.00">SE 3341</text>
<text text-anchor="middle" x="330.12" y="-317.94" font-family="Times,serif" font-size="14.00">Probability &amp; Statistics in CS/SE</text>
</g>
<!-- MATH 2414&#45;&gt;SE 3341 -->
<g id="edge15" class="edge">
<title>MATH 2414&#45;&gt;SE 3341</title>
<path fill="none" stroke="black" d="M335.27,-459.72C334.25,-434.11 332.55,-391.28 331.39,-361.92"/>
<polygon fill="black" stroke="black" points="334.88,-361.62 330.98,-351.77 327.88,-361.9 334.88,-361.62"/>
</g>
<!-- CS 2337 -->
<g id="node11" class="node">
<title>CS 2337</title>
<ellipse fill="lightgreen" stroke="black" cx="1302.12" cy="-635.65" rx="104.8" ry="22.76"/>
<text text-anchor="middle" x="1302.12" y="-639.45" font-family="Times,serif" font-size="14.00">CS 2337 &#45; 2025 Fall</text>
<text text-anchor="middle" x="1302.12" y="-624.45" font-family="Times,serif" font-size="14.00">Computer Science II</text>
</g>
<!-- CS 1337&#45;&gt;CS 2337 -->
<g id="edge7" class="edge">
<title>CS 1337&#45;&gt;CS 2337</title>
<path fill="none" stroke="black" d="M1302.12,-766.23C1302.12,-740.62 1302.12,-697.79 1302.12,-668.43"/>
<polygon fill="black" stroke="black" points="1305.62,-668.28 1302.12,-658.28 1298.62,-668.28 1305.62,-668.28"/>
</g>
<!-- SE 2340 -->
<g id="node12" class="node">
<title>SE 2340</title>
<ellipse fill="#b2dfee" stroke="black" cx="980.12" cy="-329.14" rx="118.59" ry="22.76"/>
<text text-anchor="middle" x="980.12" y="-332.94" font-family="Times,serif" font-size="14.00">SE 2340</text>
<text text-anchor="middle" x="980.12" y="-317.94" font-family="Times,serif" font-size="14.00">Computer Architecture</text>
</g>
<!-- CS 1337&#45;&gt;SE 2340 -->
<g id="edge8" class="edge">
<title>CS 1337&#45;&gt;SE 2340</title>
<path fill="none" stroke="black" d="M1278.84,-766.45C1253.66,-742.21 1213.7,-700.6 1188.12,-658.27 1139.27,-577.42 1163.9,-538.78 1112.12,-459.76 1085.74,-419.49 1044.99,-381.94 1015.75,-357.72"/>
<polygon fill="black" stroke="black" points="1017.79,-354.87 1007.83,-351.26 1013.36,-360.29 1017.79,-354.87"/>
</g>
<!-- PHYS 2125 -->
<g id="node9" class="node">
<title>PHYS 2125</title>
<ellipse fill="yellow" stroke="black" cx="2675.12" cy="-482.39" rx="106.13" ry="22.76"/>
<text text-anchor="middle" x="2675.12" y="-486.19" font-family="Times,serif" font-size="14.00">PHYS 2125</text>
<text text-anchor="middle" x="2675.12" y="-471.19" font-family="Times,serif" font-size="14.00">Physics Laboratory I</text>
</g>
<!-- PHYS 2325&#45;&gt;PHYS 2125 -->
<g id="edge5" class="edge">
<title>PHYS 2325&#45;&gt;PHYS 2125</title>
<path fill="none" stroke="black" stroke-dasharray="5,2" d="M2551.81,-482.39C2554.1,-482.39 2556.38,-482.39 2558.66,-482.39"/>
<polygon fill="black" stroke="black" points="2558.67,-485.89 2568.67,-482.39 2558.67,-478.89 2558.67,-485.89"/>
</g>
<!-- PHYS 2326 -->
<g id="node14" class="node">
<title>PHYS 2326</title>
<ellipse fill="#b2dfee" stroke="black" cx="3121.12" cy="-329.14" rx="152.06" ry="22.76"/>
<text text-anchor="middle" x="3121.12" y="-332.94" font-family="Times,serif" font-size="14.00">PHYS 2326</text>
<text text-anchor="middle" x="3121.12" y="-317.94" font-family="Times,serif" font-size="14.00">Electromagnetism and Waves</text>
</g>
<!-- PHYS 2325&#45;&gt;PHYS 2326 -->
<g id="edge11" class="edge">
<title>PHYS 2325&#45;&gt;PHYS 2326</title>
<path fill="none" stroke="black" d="M2535.87,-466.91C2543.9,-464.41 2552.24,-461.93 2560.12,-459.76 2721.79,-415.46 2912.37,-373.58 3024.62,-349.95"/>
<polygon fill="black" stroke="black" points="3025.5,-353.35 3034.57,-347.87 3024.06,-346.49 3025.5,-353.35"/>
</g>
<!-- CS 2305&#45;&gt;SE 2340 -->
<g id="edge9" class="edge">
<title>CS 2305&#45;&gt;SE 2340</title>
<path fill="none" stroke="black" d="M916.73,-459.72C929.42,-433.78 950.76,-390.15 965.14,-360.77"/>
<polygon fill="black" stroke="black" points="968.29,-362.29 969.54,-351.77 962,-359.21 968.29,-362.29"/>
</g>
<!-- SE 3306 -->
<g id="node17" class="node">
<title>SE 3306</title>
<ellipse fill="#b2dfee" stroke="black" cx="680.12" cy="-329.14" rx="163.18" ry="22.76"/>
<text text-anchor="middle" x="680.12" y="-332.94" font-family="Times,serif" font-size="14.00">SE 3306</text>
<text text-anchor="middle" x="680.12" y="-317.94" font-family="Times,serif" font-size="14.00">Mathematics Foundations of SE</text>
</g>
<!-- CS 2305&#45;&gt;SE 3306 -->
<g id="edge14" class="edge">
<title>CS 2305&#45;&gt;SE 3306</title>
<path fill="none" stroke="black" d="M874.22,-460.04C833.84,-433.02 764.26,-386.45 720.3,-357.02"/>
<polygon fill="black" stroke="black" points="722.12,-354.03 711.86,-351.38 718.23,-359.85 722.12,-354.03"/>
</g>
<!-- CS 2305&#45;&gt;SE 3341 -->
<g id="edge16" class="edge">
<title>CS 2305&#45;&gt;SE 3341</title>
<path fill="none" stroke="black" d="M830.23,-461.46C722.44,-433.16 525.7,-381.49 413.8,-352.11"/>
<polygon fill="black" stroke="black" points="414.47,-348.67 403.91,-349.51 412.69,-355.44 414.47,-348.67"/>
</g>
<!-- SE 3345 -->
<g id="node19" class="node">
<title>SE 3345</title>
<ellipse fill="#b2dfee" stroke="black" cx="1361.12" cy="-329.14" rx="243.9" ry="22.76"/>
<text text-anchor="middle" x="1361.12" y="-332.94" font-family="Times,serif" font-size="14.00">SE 3345</text>
<text text-anchor="middle" x="1361.12" y="-317.94" font-family="Times,serif" font-size="14.00">Data Structures &amp; Intro to Algorithmic Analysis</text>
</g>
<!-- CS 2305&#45;&gt;SE 3345 -->
<g id="edge18" class="edge">
<title>CS 2305&#45;&gt;SE 3345</title>
<path fill="none" stroke="black" d="M967.96,-460.84C1051.45,-433.08 1199.96,-383.71 1288.62,-354.24"/>
<polygon fill="black" stroke="black" points="1289.94,-357.49 1298.33,-351.01 1287.73,-350.85 1289.94,-357.49"/>
</g>
<!-- SE 3354 -->
<g id="node23" class="node">
<title>SE 3354</title>
<ellipse fill="#b2dfee" stroke="black" cx="1735.12" cy="-329.14" rx="112.36" ry="22.76"/>
<text text-anchor="middle" x="1735.12" y="-332.94" font-family="Times,serif" font-size="14.00">SE 3354</text>
<text text-anchor="middle" x="1735.12" y="-317.94" font-family="Times,serif" font-size="14.00">Software Engineering</text>
</g>
<!-- CS 2305&#45;&gt;SE 3354 -->
<g id="edge22" class="edge">
<title>CS 2305&#45;&gt;SE 3354</title>
<path fill="none" stroke="black" d="M1007.36,-462.92C1170.29,-433.19 1488.18,-375.19 1644.25,-346.72"/>
<polygon fill="black" stroke="black" points="1645.08,-350.12 1654.29,-344.89 1643.83,-343.24 1645.08,-350.12"/>
</g>
<!-- CS 2337&#45;&gt;SE 3345 -->
<g id="edge19" class="edge">
<title>CS 2337&#45;&gt;SE 3345</title>
<path fill="none" stroke="black" d="M1295.84,-612.97C1287.14,-579.52 1274.03,-513.53 1288.12,-459.76 1297.79,-422.89 1320.58,-385.45 1338.14,-360.35"/>
<polygon fill="black" stroke="black" points="1341.14,-362.17 1344.11,-352 1335.44,-358.1 1341.14,-362.17"/>
</g>
<!-- SE 3377 -->
<g id="node20" class="node">
<title>SE 3377</title>
<ellipse fill="yellow" stroke="black" cx="1529.12" cy="-482.39" rx="199.31" ry="22.76"/>
<text text-anchor="middle" x="1529.12" y="-486.19" font-family="Times,serif" font-size="14.00">SE 3377</text>
<text text-anchor="middle" x="1529.12" y="-471.19" font-family="Times,serif" font-size="14.00">C/C++ Programming in a UNIX Envirn</text>
</g>
<!-- CS 2337&#45;&gt;SE 3377 -->
<g id="edge20" class="edge">
<title>CS 2337&#45;&gt;SE 3377</title>
<path fill="none" stroke="black" d="M1333.21,-613.93C1373.51,-587.08 1443.88,-540.19 1488.41,-510.52"/>
<polygon fill="black" stroke="black" points="1490.57,-513.29 1496.95,-504.83 1486.69,-507.46 1490.57,-513.29"/>
</g>
<!-- CS 2337&#45;&gt;SE 3354 -->
<g id="edge23" class="edge">
<title>CS 2337&#45;&gt;SE 3354</title>
<path fill="none" stroke="black" d="M1297.62,-613C1291.44,-576.87 1284.87,-503.89 1321.12,-459.76 1362.22,-409.75 1534.76,-368.46 1643.72,-346.73"/>
<polygon fill="black" stroke="black" points="1644.6,-350.12 1653.73,-344.75 1643.24,-343.25 1644.6,-350.12"/>
</g>
<!-- SE 4348 -->
<g id="node24" class="node">
<title>SE 4348</title>
<ellipse fill="#b2dfee" stroke="black" cx="2371.12" cy="-329.14" rx="148.48" ry="22.76"/>
<text text-anchor="middle" x="2371.12" y="-332.94" font-family="Times,serif" font-size="14.00">SE 4348</text>
<text text-anchor="middle" x="2371.12" y="-317.94" font-family="Times,serif" font-size="14.00">Operating Systems Concepts</text>
</g>
<!-- SE 2340&#45;&gt;SE 4348 -->
<g id="edge25" class="edge">
<title>SE 2340&#45;&gt;SE 4348</title>
<path fill="none" stroke="black" d="M1009.22,-351.26C1035.72,-369.93 1076.78,-395.25 1117.12,-405.76 1351.09,-466.75 1968.98,-457.64 2205.12,-405.76 2248.62,-396.21 2294.31,-374.11 2326.71,-356.09"/>
<polygon fill="black" stroke="black" points="2328.5,-359.09 2335.49,-351.13 2325.06,-353 2328.5,-359.09"/>
</g>
<!-- FAST TRACK -->
<g id="node41" class="node">
<title>FAST TRACK</title>
<ellipse fill="#b2dfee" stroke="red" stroke-width="7" cx="2744.12" cy="-329.14" rx="206.45" ry="22.76"/>
<text text-anchor="middle" x="2744.12" y="-332.94" font-family="Times,serif" font-size="14.00">FAST TRACK</text>
<text text-anchor="middle" x="2744.12" y="-317.94" font-family="Times,serif" font-size="14.00">Fast Track Program Benchmark Courses</text>
</g>
<!-- SE 2340&#45;&gt;FAST TRACK -->
<g id="edge39" class="edge">
<title>SE 2340&#45;&gt;FAST TRACK</title>
<path fill="none" stroke="black" stroke-dasharray="5,2" d="M1009.22,-351.26C1035.72,-369.93 1076.78,-395.25 1117.12,-405.76 1418.61,-484.35 2211.76,-456.67 2519.12,-405.76 2577.34,-396.12 2640.73,-373.34 2685.35,-355.11"/>
<polygon fill="black" stroke="black" points="2686.95,-358.23 2694.85,-351.18 2684.27,-351.76 2686.95,-358.23"/>
</g>
<!-- PHYS 2126 -->
<g id="node15" class="node">
<title>PHYS 2126</title>
<ellipse fill="#b2dfee" stroke="black" cx="3401.12" cy="-329.14" rx="109.7" ry="22.76"/>
<text text-anchor="middle" x="3401.12" y="-332.94" font-family="Times,serif" font-size="14.00">PHYS 2126</text>
<text text-anchor="middle" x="3401.12" y="-317.94" font-family="Times,serif" font-size="14.00">Physics Laboratory II</text>
</g>
<!-- PHYS 2326&#45;&gt;PHYS 2126 -->
<g id="edge12" class="edge">
<title>PHYS 2326&#45;&gt;PHYS 2126</title>
<path fill="none" stroke="black" stroke-dasharray="5,2" d="M3273.16,-329.14C3275.78,-329.14 3278.4,-329.14 3281.03,-329.14"/>
<polygon fill="black" stroke="black" points="3281.15,-332.64 3291.15,-329.14 3281.15,-325.64 3281.15,-332.64"/>
</g>
<!-- MATH 2418&#45;&gt;SE 3341 -->
<g id="edge17" class="edge">
<title>MATH 2418&#45;&gt;SE 3341</title>
<path fill="none" stroke="black" d="M559.28,-461.93C512.46,-435 427.8,-386.31 375.53,-356.25"/>
<polygon fill="black" stroke="black" points="377.21,-353.18 366.8,-351.23 373.72,-359.25 377.21,-353.18"/>
</g>
<!-- SE 4351 -->
<g id="node28" class="node">
<title>SE 4351</title>
<ellipse fill="#b2dfee" stroke="black" cx="1361.12" cy="-175.88" rx="137.77" ry="22.76"/>
<text text-anchor="middle" x="1361.12" y="-179.68" font-family="Times,serif" font-size="14.00">SE 4351</text>
<text text-anchor="middle" x="1361.12" y="-164.68" font-family="Times,serif" font-size="14.00">Requirements Engineering</text>
</g>
<!-- SE 3306&#45;&gt;SE 4351 -->
<g id="edge31" class="edge">
<title>SE 3306&#45;&gt;SE 4351</title>
<path fill="none" stroke="black" d="M763.63,-309.59C892.66,-280.93 1139.39,-226.13 1271.84,-196.71"/>
<polygon fill="black" stroke="black" points="1272.95,-200.05 1281.95,-194.47 1271.43,-193.22 1272.95,-200.05"/>
</g>
<!-- SE 4367 -->
<g id="node29" class="node">
<title>SE 4367</title>
<ellipse fill="#b2dfee" stroke="black" cx="2035.12" cy="-329.14" rx="169.91" ry="22.76"/>
<text text-anchor="middle" x="2035.12" y="-332.94" font-family="Times,serif" font-size="14.00">SE 4367</text>
<text text-anchor="middle" x="2035.12" y="-317.94" font-family="Times,serif" font-size="14.00">Software Testing, Verif, Valid, QA</text>
</g>
<!-- SE 3306&#45;&gt;SE 4367 -->
<g id="edge33" class="edge">
<title>SE 3306&#45;&gt;SE 4367</title>
<path fill="none" stroke="black" d="M719.25,-351.14C754.94,-369.87 809.79,-395.35 861.12,-405.76 1075.86,-449.35 1632.1,-447.9 1847.12,-405.76 1896.07,-396.17 1948.35,-373.77 1985.32,-355.65"/>
<polygon fill="black" stroke="black" points="1986.98,-358.74 1994.38,-351.15 1983.86,-352.47 1986.98,-358.74"/>
</g>
<!-- SE 3306&#45;&gt;FAST TRACK -->
<g id="edge40" class="edge">
<title>SE 3306&#45;&gt;FAST TRACK</title>
<path fill="none" stroke="black" stroke-dasharray="5,2" d="M719.25,-351.14C754.94,-369.87 809.79,-395.35 861.12,-405.76 1222.21,-479.05 2155.63,-465.96 2519.12,-405.76 2577.34,-396.12 2640.73,-373.34 2685.35,-355.11"/>
<polygon fill="black" stroke="black" points="2686.95,-358.23 2694.85,-351.18 2684.27,-351.76 2686.95,-358.23"/>
</g>
<!-- SE 3345&#45;&gt;SE 4348 -->
<g id="edge26" class="edge">
<title>SE 3345&#45;&gt;SE 4348</title>
<path fill="none" stroke="black" d="M1418.86,-351.19C1471.26,-369.95 1551.11,-395.45 1623.12,-405.76 1879.18,-442.44 1952.48,-461.26 2205.12,-405.76 2248.62,-396.21 2294.31,-374.11 2326.71,-356.09"/>
<polygon fill="black" stroke="black" points="2328.5,-359.09 2335.49,-351.13 2325.06,-353 2328.5,-359.09"/>
</g>
<!-- SE 3345&#45;&gt;SE 4351 -->
<g id="edge32" class="edge">
<title>SE 3345&#45;&gt;SE 4351</title>
<path fill="none" stroke="black" d="M1361.12,-306.47C1361.12,-280.86 1361.12,-238.03 1361.12,-208.66"/>
<polygon fill="black" stroke="black" points="1364.62,-208.51 1361.12,-198.51 1357.62,-208.51 1364.62,-208.51"/>
</g>
<!-- SE 3345&#45;&gt;FAST TRACK -->
<g id="edge41" class="edge">
<title>SE 3345&#45;&gt;FAST TRACK</title>
<path fill="none" stroke="black" stroke-dasharray="5,2" d="M1418.86,-351.19C1471.26,-369.95 1551.11,-395.45 1623.12,-405.76 2017.32,-462.23 2126.25,-470.83 2519.12,-405.76 2577.34,-396.12 2640.73,-373.34 2685.35,-355.11"/>
<polygon fill="black" stroke="black" points="2686.95,-358.23 2694.85,-351.18 2684.27,-351.76 2686.95,-358.23"/>
</g>
<!-- SE 3377&#45;&gt;SE 4348 -->
<g id="edge27" class="edge">
<title>SE 3377&#45;&gt;SE 4348</title>
<path fill="none" stroke="black" d="M1631.95,-462.92C1793.84,-433.84 2106.35,-377.7 2268.27,-348.61"/>
<polygon fill="black" stroke="black" points="2269.01,-352.04 2278.24,-346.82 2267.77,-345.15 2269.01,-352.04"/>
</g>
<!-- ECS 2390 -->
<g id="node21" class="node">
<title>ECS 2390</title>
<ellipse fill="yellow" stroke="black" cx="1734.12" cy="-788.9" rx="208.69" ry="22.76"/>
<text text-anchor="middle" x="1734.12" y="-792.7" font-family="Times,serif" font-size="14.00">ECS 2390</text>
<text text-anchor="middle" x="1734.12" y="-777.7" font-family="Times,serif" font-size="14.00">Professional &amp; Technical Communication</text>
</g>
<!-- ECS 2390&#45;&gt;SE 3354 -->
<g id="edge24" class="edge">
<title>ECS 2390&#45;&gt;SE 3354</title>
<path fill="none" stroke="black" d="M1734.58,-766.01C1735.62,-713.3 1738.01,-575.13 1737.12,-459.76 1736.87,-426.53 1736.24,-388.51 1735.76,-362.28"/>
<polygon fill="black" stroke="black" points="1739.26,-362.09 1735.57,-352.15 1732.26,-362.22 1739.26,-362.09"/>
</g>
<!-- SE 3162 -->
<g id="node25" class="node">
<title>SE 3162</title>
<ellipse fill="#b2dfee" stroke="black" cx="1971.12" cy="-635.65" rx="186.85" ry="22.76"/>
<text text-anchor="middle" x="1971.12" y="-639.45" font-family="Times,serif" font-size="14.00">SE 3162</text>
<text text-anchor="middle" x="1971.12" y="-624.45" font-family="Times,serif" font-size="14.00">Professional Responsibility in CS/SE</text>
</g>
<!-- ECS 2390&#45;&gt;SE 3162 -->
<g id="edge28" class="edge">
<title>ECS 2390&#45;&gt;SE 3162</title>
<path fill="none" stroke="black" d="M1767.58,-766.55C1809.89,-739.55 1882.79,-693.03 1928.89,-663.6"/>
<polygon fill="black" stroke="black" points="1930.91,-666.46 1937.46,-658.13 1927.15,-660.56 1930.91,-666.46"/>
</g>
<!-- RHET 1302 -->
<g id="node22" class="node">
<title>RHET 1302</title>
<ellipse fill="lightgreen" stroke="black" cx="1601.12" cy="-942.16" rx="112.36" ry="22.76"/>
<text text-anchor="middle" x="1601.12" y="-945.96" font-family="Times,serif" font-size="14.00">RHET 1302 &#45; Transfer</text>
<text text-anchor="middle" x="1601.12" y="-930.96" font-family="Times,serif" font-size="14.00">Core: 010</text>
</g>
<!-- RHET 1302&#45;&gt;ECS 2390 -->
<g id="edge21" class="edge">
<title>RHET 1302&#45;&gt;ECS 2390</title>
<path fill="none" stroke="black" d="M1619.9,-919.81C1643.04,-893.49 1682.46,-848.65 1708.41,-819.15"/>
<polygon fill="black" stroke="black" points="1711.04,-821.45 1715.02,-811.63 1705.78,-816.83 1711.04,-821.45"/>
</g>
<!-- SE 4381 -->
<g id="node27" class="node">
<title>SE 4381</title>
<ellipse fill="#b2dfee" stroke="black" cx="1702.12" cy="-175.88" rx="183.28" ry="22.76"/>
<text text-anchor="middle" x="1702.12" y="-179.68" font-family="Times,serif" font-size="14.00">SE 4381</text>
<text text-anchor="middle" x="1702.12" y="-164.68" font-family="Times,serif" font-size="14.00">Software Project Planning &amp; Mgmt.</text>
</g>
<!-- SE 3354&#45;&gt;SE 4381 -->
<g id="edge30" class="edge">
<title>SE 3354&#45;&gt;SE 4381</title>
<path fill="none" stroke="black" d="M1730.4,-306.47C1724.81,-280.86 1715.46,-238.03 1709.06,-208.66"/>
<polygon fill="black" stroke="black" points="1712.4,-207.54 1706.84,-198.51 1705.56,-209.03 1712.4,-207.54"/>
</g>
<!-- SE 3354&#45;&gt;SE 4367 -->
<g id="edge34" class="edge">
<title>SE 3354&#45;&gt;SE 4367</title>
<path fill="none" stroke="black" d="M1847.62,-329.14C1850.1,-329.14 1852.57,-329.14 1855.04,-329.14"/>
<polygon fill="black" stroke="black" points="1855.2,-332.64 1865.2,-329.14 1855.2,-325.64 1855.2,-332.64"/>
</g>
<!-- SE 3354&#45;&gt;FAST TRACK -->
<g id="edge42" class="edge">
<title>SE 3354&#45;&gt;FAST TRACK</title>
<path fill="none" stroke="black" stroke-dasharray="5,2" d="M1762.54,-351.25C1787.57,-369.91 1826.45,-395.22 1865.12,-405.76 2145.55,-482.26 2232.36,-453.26 2519.12,-405.76 2577.34,-396.12 2640.73,-373.34 2685.35,-355.11"/>
<polygon fill="black" stroke="black" points="2686.95,-358.23 2694.85,-351.18 2684.27,-351.76 2686.95,-358.23"/>
</g>
<!-- CS 4397 -->
<g id="node32" class="node">
<title>CS 4397</title>
<ellipse fill="#b2dfee" stroke="black" cx="2013.12" cy="-175.88" rx="110.12" ry="22.76"/>
<text text-anchor="middle" x="2013.12" y="-179.68" font-family="Times,serif" font-size="14.00">CS 4397</text>
<text text-anchor="middle" x="2013.12" y="-164.68" font-family="Times,serif" font-size="14.00">SE Technical Elective</text>
</g>
<!-- SE 4348&#45;&gt;CS 4397 -->
<g id="edge38" class="edge">
<title>SE 4348&#45;&gt;CS 4397</title>
<path fill="none" stroke="black" d="M2322.84,-307.74C2256.86,-279.86 2138.76,-229.96 2069.02,-200.5"/>
<polygon fill="black" stroke="black" points="2070.08,-197.15 2059.51,-196.48 2067.36,-203.6 2070.08,-197.15"/>
</g>
<!-- SE 4348&#45;&gt;FAST TRACK -->
<g id="edge43" class="edge">
<title>SE 4348&#45;&gt;FAST TRACK</title>
<path fill="none" stroke="black" stroke-dasharray="5,2" d="M2519.74,-329.14C2522.21,-329.14 2524.67,-329.14 2527.14,-329.14"/>
<polygon fill="black" stroke="black" points="2527.27,-332.64 2537.27,-329.14 2527.27,-325.64 2527.27,-332.64"/>
</g>
<!-- GOVT 2305 -->
<g id="node26" class="node">
<title>GOVT 2305</title>
<ellipse fill="lightgreen" stroke="black" cx="1848.12" cy="-942.16" rx="116.85" ry="22.76"/>
<text text-anchor="middle" x="1848.12" y="-945.96" font-family="Times,serif" font-size="14.00">GOVT 2305 &#45; 2025 Fall</text>
<text text-anchor="middle" x="1848.12" y="-930.96" font-family="Times,serif" font-size="14.00">Core: 070</text>
</g>
<!-- GOVT 2305&#45;&gt;SE 3162 -->
<g id="edge29" class="edge">
<title>GOVT 2305&#45;&gt;SE 3162</title>
<path fill="none" stroke="black" d="M1871.76,-919.91C1896.44,-896.16 1934.04,-855.25 1952.12,-811.53 1971.54,-764.6 1973.75,-704.84 1972.91,-668.73"/>
<polygon fill="black" stroke="black" points="1976.4,-668.2 1972.57,-658.32 1969.4,-668.43 1976.4,-668.2"/>
</g>
<!-- SE 4485 -->
<g id="node30" class="node">
<title>SE 4485</title>
<ellipse fill="#b2dfee" stroke="black" cx="1702.12" cy="-22.63" rx="152.06" ry="22.76"/>
<text text-anchor="middle" x="1702.12" y="-26.43" font-family="Times,serif" font-size="14.00">SE 4485</text>
<text text-anchor="middle" x="1702.12" y="-11.43" font-family="Times,serif" font-size="14.00">Software Engineering Project</text>
</g>
<!-- SE 4381&#45;&gt;SE 4485 -->
<g id="edge35" class="edge">
<title>SE 4381&#45;&gt;SE 4485</title>
<path fill="none" stroke="black" d="M1702.12,-153.21C1702.12,-127.6 1702.12,-84.77 1702.12,-55.41"/>
<polygon fill="black" stroke="black" points="1705.62,-55.26 1702.12,-45.26 1698.62,-55.26 1705.62,-55.26"/>
</g>
<!-- SE 4351&#45;&gt;SE 4485 -->
<g id="edge36" class="edge">
<title>SE 4351&#45;&gt;SE 4485</title>
<path fill="none" stroke="black" d="M1407.11,-154.48C1469.15,-126.97 1579.52,-78.01 1646.26,-48.41"/>
<polygon fill="black" stroke="black" points="1648.05,-51.44 1655.78,-44.19 1645.22,-45.04 1648.05,-51.44"/>
</g>
<!-- SE 4367&#45;&gt;FAST TRACK -->
<g id="edge44" class="edge">
<title>SE 4367&#45;&gt;FAST TRACK</title>
<path fill="none" stroke="black" stroke-dasharray="5,2" d="M2075.87,-351.15C2113.02,-369.88 2170.03,-395.36 2223.12,-405.76 2352.22,-431.06 2389.34,-427.26 2519.12,-405.76 2577.34,-396.12 2640.73,-373.34 2685.35,-355.11"/>
<polygon fill="black" stroke="black" points="2686.95,-358.23 2694.85,-351.18 2684.27,-351.76 2686.95,-358.23"/>
</g>
<!-- SE 6362 -->
<g id="node31" class="node">
<title>SE 6362</title>
<ellipse fill="#b2dfee" stroke="black" cx="2373.12" cy="-175.88" rx="231.86" ry="22.76"/>
<text text-anchor="middle" x="2373.12" y="-179.68" font-family="Times,serif" font-size="14.00">SE 6362 (SE 4352)</text>
<text text-anchor="middle" x="2373.12" y="-164.68" font-family="Times,serif" font-size="14.00">Architecture and Design *(Approval Needed)*</text>
</g>
<!-- SE 6362&#45;&gt;SE 4485 -->
<g id="edge37" class="edge">
<title>SE 6362&#45;&gt;SE 4485</title>
<path fill="none" stroke="black" d="M2284.71,-154.95C2156.9,-126.14 1921.75,-73.13 1792.72,-44.05"/>
<polygon fill="black" stroke="black" points="1793.39,-40.61 1782.86,-41.83 1791.85,-47.44 1793.39,-40.61"/>
</g>
<!-- GOVT 2306 -->
<g id="node33" class="node">
<title>GOVT 2306</title>
<ellipse fill="yellow" stroke="black" cx="2042.12" cy="-942.16" rx="59.29" ry="22.76"/>
<text text-anchor="middle" x="2042.12" y="-945.96" font-family="Times,serif" font-size="14.00">GOVT 2306</text>
<text text-anchor="middle" x="2042.12" y="-930.96" font-family="Times,serif" font-size="14.00">Core: 070</text>
</g>
<!-- HIST 1301 -->
<g id="node34" class="node">
<title>HIST 1301</title>
<ellipse fill="yellow" stroke="black" cx="2175.12" cy="-942.16" rx="55.72" ry="22.76"/>
<text text-anchor="middle" x="2175.12" y="-945.96" font-family="Times,serif" font-size="14.00">HIST 1301</text>
<text text-anchor="middle" x="2175.12" y="-930.96" font-family="Times,serif" font-size="14.00">Core: 060</text>
</g>
<!-- HIST 1302 -->
<g id="node35" class="node">
<title>HIST 1302</title>
<ellipse fill="yellow" stroke="black" cx="2305.12" cy="-942.16" rx="55.72" ry="22.76"/>
<text text-anchor="middle" x="2305.12" y="-945.96" font-family="Times,serif" font-size="14.00">HIST 1302</text>
<text text-anchor="middle" x="2305.12" y="-930.96" font-family="Times,serif" font-size="14.00">Core: 060</text>
</g>
<!-- HIST 2322 -->
<g id="node36" class="node">
<title>HIST 2322</title>
<ellipse fill="lightgreen" stroke="black" cx="2487.12" cy="-942.16" rx="108.38" ry="22.76"/>
<text text-anchor="middle" x="2487.12" y="-945.96" font-family="Times,serif" font-size="14.00">HIST 2322 &#45; Transfer</text>
<text text-anchor="middle" x="2487.12" y="-930.96" font-family="Times,serif" font-size="14.00">Core: 040</text>
</g>
<!-- THEA 1310 -->
<g id="node37" class="node">
<title>THEA 1310</title>
<ellipse fill="yellow" stroke="black" cx="2673.12" cy="-942.16" rx="59.29" ry="22.76"/>
<text text-anchor="middle" x="2673.12" y="-945.96" font-family="Times,serif" font-size="14.00">THEA 1310</text>
<text text-anchor="middle" x="2673.12" y="-930.96" font-family="Times,serif" font-size="14.00">Core: 050</text>
</g>
<!-- GEOG 2303 -->
<g id="node38" class="node">
<title>GEOG 2303</title>
<ellipse fill="lightgreen" stroke="black" cx="2865.12" cy="-942.16" rx="114.6" ry="22.76"/>
<text text-anchor="middle" x="2865.12" y="-945.96" font-family="Times,serif" font-size="14.00">GEOG 2303 &#45; Transfer</text>
<text text-anchor="middle" x="2865.12" y="-930.96" font-family="Times,serif" font-size="14.00">Core: 080</text>
</g>
<!-- MATH 1316 -->
<g id="node39" class="node">
<title>MATH 1316</title>
<ellipse fill="lightgreen" stroke="black" cx="3112.12" cy="-942.16" rx="114.6" ry="22.76"/>
<text text-anchor="middle" x="3112.12" y="-945.96" font-family="Times,serif" font-size="14.00">MATH 1316 &#45; Transfer</text>
<text text-anchor="middle" x="3112.12" y="-930.96" font-family="Times,serif" font-size="14.00">Free Elective</text>
</g>
<!-- RHET 1301 -->
<g id="node40" class="node">
<title>RHET 1301</title>
<ellipse fill="lightgreen" stroke="black" cx="3357.12" cy="-942.16" rx="112.36" ry="22.76"/>
<text text-anchor="middle" x="3357.12" y="-945.96" font-family="Times,serif" font-size="14.00">RHET 1301 &#45; Transfer</text>
<text text-anchor="middle" x="3357.12" y="-930.96" font-family="Times,serif" font-size="14.00">Free Elective</text>
</g>
<!-- FAST TRACK&#45;&gt;SE 6362 -->
<g id="edge47" class="edge">
<title>FAST TRACK&#45;&gt;SE 6362</title>
<path fill="none" stroke="black" d="M2692.54,-307.11C2624.89,-279.53 2506.38,-231.21 2434.29,-201.82"/>
<polygon fill="black" stroke="black" points="2435.45,-198.51 2424.87,-197.98 2432.81,-204.99 2435.45,-198.51"/>
</g>
<!-- SE 6329 -->
<g id="node42" class="node">
<title>SE 6329</title>
<ellipse fill="#b2dfee" stroke="black" cx="2744.12" cy="-175.88" rx="120.83" ry="22.76"/>
<text text-anchor="middle" x="2744.12" y="-179.68" font-family="Times,serif" font-size="14.00">SE 6329 (SE 4376)</text>
<text text-anchor="middle" x="2744.12" y="-164.68" font-family="Times,serif" font-size="14.00">Object Oriented Design</text>
</g>
<!-- FAST TRACK&#45;&gt;SE 6329 -->
<g id="edge45" class="edge">
<title>FAST TRACK&#45;&gt;SE 6329</title>
<path fill="none" stroke="black" d="M2744.12,-306.47C2744.12,-280.86 2744.12,-238.03 2744.12,-208.66"/>
<polygon fill="black" stroke="black" points="2747.62,-208.51 2744.12,-198.51 2740.62,-208.51 2747.62,-208.51"/>
</g>
<!-- CS 6360 -->
<g id="node43" class="node">
<title>CS 6360</title>
<ellipse fill="#b2dfee" stroke="black" cx="2981.12" cy="-175.88" rx="98.08" ry="22.76"/>
<text text-anchor="middle" x="2981.12" y="-179.68" font-family="Times,serif" font-size="14.00">CS 6360 (SE 4347)</text>
<text text-anchor="middle" x="2981.12" y="-164.68" font-family="Times,serif" font-size="14.00">Database Systems</text>
</g>
<!-- FAST TRACK&#45;&gt;CS 6360 -->
<g id="edge46" class="edge">
<title>FAST TRACK&#45;&gt;CS 6360</title>
<path fill="none" stroke="black" d="M2777.58,-306.79C2820.37,-279.48 2894.44,-232.2 2940.45,-202.84"/>
<polygon fill="black" stroke="black" points="2942.43,-205.73 2948.98,-197.4 2938.67,-199.83 2942.43,-205.73"/>
</g>
<!-- CS 5349 -->
<g id="node45" class="node">
<title>CS 5349</title>
<ellipse fill="#b2dfee" stroke="black" cx="3196.12" cy="-175.88" rx="98.08" ry="22.76"/>
<text text-anchor="middle" x="3196.12" y="-179.68" font-family="Times,serif" font-size="14.00">CS 5349 (CS 4384)</text>
<text text-anchor="middle" x="3196.12" y="-164.68" font-family="Times,serif" font-size="14.00">Automata Theory</text>
</g>
<!-- FAST TRACK&#45;&gt;CS 5349 -->
<g id="edge49" class="edge">
<title>FAST TRACK&#45;&gt;CS 5349</title>
<path fill="none" stroke="black" d="M2806.03,-307.42C2891.82,-278.71 3046.05,-227.1 3132.66,-198.12"/>
<polygon fill="black" stroke="black" points="3134,-201.36 3142.37,-194.87 3131.77,-194.73 3134,-201.36"/>
</g>
<!-- CS 6371 -->
<g id="node44" class="node">
<title>CS 6371</title>
<ellipse fill="#b2dfee" stroke="black" cx="3196.12" cy="-22.63" rx="236.35" ry="22.76"/>
<text text-anchor="middle" x="3196.12" y="-26.43" font-family="Times,serif" font-size="14.00">CS 6371 (CS 4337)</text>
<text text-anchor="middle" x="3196.12" y="-11.43" font-family="Times,serif" font-size="14.00">Programming Languages *(Approval Needed)*</text>
</g>
<!-- CS 5349&#45;&gt;CS 6371 -->
<g id="edge48" class="edge">
<title>CS 5349&#45;&gt;CS 6371</title>
<path fill="none" stroke="black" d="M3196.12,-153.21C3196.12,-127.6 3196.12,-84.77 3196.12,-55.41"/>
<polygon fill="black" stroke="black" points="3199.62,-55.26 3196.12,-45.26 3192.62,-55.26 3199.62,-55.26"/>
</g>
<!-- degree -->
<g id="node46" class="node">
<title>degree</title>
<ellipse fill="orangered" stroke="black" cx="2108.12" cy="-1090.78" rx="104.24" ry="18"/>
<text text-anchor="middle" x="2108.12" y="-1087.08" font-family="Times,serif" font-size="14.00">B.S. in Computer Science</text>
</g>
<!-- degree&#45;&gt;ECS 1100 -->
<g id="edge50" class="edge">
<title>degree&#45;&gt;ECS 1100</title>
<path fill="none" stroke="black" d="M2013.61,-1083.1C1786.73,-1066.67 1193.51,-1021.52 700.12,-964.78 686.72,-963.24 672.68,-961.47 658.77,-959.62"/>
<polygon fill="black" stroke="black" points="659.05,-956.13 648.67,-958.26 658.11,-963.07 659.05,-956.13"/>
</g>
<!-- degree&#45;&gt;CS 1200 -->
<g id="edge51" class="edge">
<title>degree&#45;&gt;CS 1200</title>
<path fill="none" stroke="black" d="M2014.28,-1082.77C1813.18,-1067.1 1326.07,-1025.79 921.12,-964.78 911.91,-963.4 902.3,-961.77 892.76,-960.05"/>
<polygon fill="black" stroke="black" points="893.33,-956.59 882.86,-958.22 892.05,-963.48 893.33,-956.59"/>
</g>
<!-- degree&#45;&gt;MATH 2312 -->
<g id="edge52" class="edge">
<title>degree&#45;&gt;MATH 2312</title>
<path fill="none" stroke="black" d="M2025.06,-1079.87C1861.12,-1060.05 1484.47,-1013.25 1169.12,-964.78 1158.89,-963.21 1148.21,-961.48 1137.58,-959.7"/>
<polygon fill="black" stroke="black" points="1137.87,-956.2 1127.42,-957.99 1136.7,-963.11 1137.87,-956.2"/>
</g>
<!-- degree&#45;&gt;CS 1436 -->
<g id="edge53" class="edge">
<title>degree&#45;&gt;CS 1436</title>
<path fill="none" stroke="black" d="M2040.26,-1077.09C1901.81,-1051.2 1586.19,-992.17 1424.17,-961.87"/>
<polygon fill="black" stroke="black" points="1424.67,-958.4 1414.19,-960 1423.38,-965.28 1424.67,-958.4"/>
</g>
<!-- degree&#45;&gt;RHET 1302 -->
<g id="edge54" class="edge">
<title>degree&#45;&gt;RHET 1302</title>
<path fill="none" stroke="black" d="M2057.19,-1075.05C1966.45,-1048.81 1776.63,-993.91 1672.78,-963.88"/>
<polygon fill="black" stroke="black" points="1673.58,-960.47 1663,-961.05 1671.64,-967.19 1673.58,-960.47"/>
</g>
<!-- degree&#45;&gt;GOVT 2305 -->
<g id="edge55" class="edge">
<title>degree&#45;&gt;GOVT 2305</title>
<path fill="none" stroke="black" d="M2079.06,-1073.39C2033.96,-1047.96 1946.79,-998.8 1893.4,-968.69"/>
<polygon fill="black" stroke="black" points="1894.92,-965.53 1884.49,-963.66 1891.48,-971.62 1894.92,-965.53"/>
</g>
<!-- degree&#45;&gt;GOVT 2306 -->
<g id="edge56" class="edge">
<title>degree&#45;&gt;GOVT 2306</title>
<path fill="none" stroke="black" d="M2100.42,-1072.68C2089.56,-1048.55 2069.56,-1004.11 2056.05,-974.1"/>
<polygon fill="black" stroke="black" points="2059.21,-972.59 2051.92,-964.91 2052.83,-975.46 2059.21,-972.59"/>
</g>
<!-- degree&#45;&gt;HIST 1301 -->
<g id="edge57" class="edge">
<title>degree&#45;&gt;HIST 1301</title>
<path fill="none" stroke="black" d="M2115.94,-1072.68C2126.97,-1048.55 2147.27,-1004.11 2160.99,-974.1"/>
<polygon fill="black" stroke="black" points="2164.21,-975.46 2165.19,-964.91 2157.85,-972.55 2164.21,-975.46"/>
</g>
<!-- degree&#45;&gt;HIST 1302 -->
<g id="edge58" class="edge">
<title>degree&#45;&gt;HIST 1302</title>
<path fill="none" stroke="black" d="M2130.72,-1072.96C2165.16,-1047.33 2231.01,-998.32 2271.21,-968.4"/>
<polygon fill="black" stroke="black" points="2273.44,-971.1 2279.37,-962.32 2269.26,-965.49 2273.44,-971.1"/>
</g>
<!-- degree&#45;&gt;HIST 2322 -->
<g id="edge59" class="edge">
<title>degree&#45;&gt;HIST 2322</title>
<path fill="none" stroke="black" d="M2148.68,-1074.09C2215.8,-1048.13 2350.25,-996.11 2427.97,-966.04"/>
<polygon fill="black" stroke="black" points="2429.56,-969.18 2437.62,-962.31 2427.03,-962.65 2429.56,-969.18"/>
</g>
<!-- degree&#45;&gt;THEA 1310 -->
<g id="edge60" class="edge">
<title>degree&#45;&gt;THEA 1310</title>
<path fill="none" stroke="black" d="M2167.59,-1075.95C2260.97,-1053.98 2447.52,-1009.02 2604.12,-964.78 2609.06,-963.39 2614.17,-961.89 2619.28,-960.36"/>
<polygon fill="black" stroke="black" points="2620.52,-963.64 2629.07,-957.38 2618.48,-956.94 2620.52,-963.64"/>
</g>
<!-- degree&#45;&gt;GEOG 2303 -->
<g id="edge61" class="edge">
<title>degree&#45;&gt;GEOG 2303</title>
<path fill="none" stroke="black" d="M2174.64,-1076.9C2311,-1050.49 2622.3,-990.19 2775.96,-960.43"/>
<polygon fill="black" stroke="black" points="2776.7,-963.85 2785.85,-958.51 2775.37,-956.98 2776.7,-963.85"/>
</g>
<!-- degree&#45;&gt;MATH 1316 -->
<g id="edge62" class="edge">
<title>degree&#45;&gt;MATH 1316</title>
<path fill="none" stroke="black" d="M2188.73,-1079.26C2343.91,-1058.79 2694.85,-1011.52 2989.12,-964.78 2999.1,-963.2 3009.53,-961.47 3019.9,-959.71"/>
<polygon fill="black" stroke="black" points="3020.55,-963.15 3029.82,-958.02 3019.37,-956.25 3020.55,-963.15"/>
</g>
<!-- degree&#45;&gt;RHET 1301 -->
<g id="edge63" class="edge">
<title>degree&#45;&gt;RHET 1301</title>
<path fill="none" stroke="black" d="M2198.67,-1081.81C2390.49,-1064.47 2851.72,-1020.37 3236.12,-964.78 3246.29,-963.31 3256.91,-961.63 3267.45,-959.87"/>
<polygon fill="black" stroke="black" points="3268.24,-963.29 3277.52,-958.16 3267.07,-956.39 3268.24,-963.29"/>
</g>
</g>
</svg>
