<?xml version="1.0" encoding="UTF-8" standalone="no"?>
<!DOCTYPE svg PUBLIC "-//W3C//DTD SVG 1.1//EN"
 "http://www.w3.org/Graphics/SVG/1.1/DTD/svg11.dtd">
<!-- Generated by graphviz version 2.43.0 (0)
 -->
<!-- Title: graph_name Pages: 1 -->
<svg width="864pt" height="482pt"
 viewBox="36.00 54.00 828.00 427.85" xmlns="http://www.w3.org/2000/svg" xmlns:xlink="http://www.w3.org/1999/xlink">
<g id="graph0" class="graph" transform="scale(0.28 0.28) rotate(0) translate(133.71 1537.61)">
<title>graph_name</title>
<polygon fill="white" stroke="transparent" points="-4,4 -4,-1343.04 2849.68,-1343.04 2849.68,4 -4,4"/>
<text text-anchor="middle" x="1422.84" y="-1311.04" font-family="Times,serif" font-size="30.00">Degree Plan</text>
<!-- ECS 1100 -->
<g id="node1" class="node">
<title>ECS 1100</title>
<ellipse fill="lightgreen" stroke="black" cx="144.25" cy="-1095.41" rx="144.5" ry="22.76"/>
<text text-anchor="middle" x="144.25" y="-1099.21" font-family="Times,serif" font-size="14.00">ECS 1100 &#45; 2025 Fall</text>
<text text-anchor="middle" x="144.25" y="-1084.21" font-family="Times,serif" font-size="14.00">Intro to Engineering and CS</text>
</g>
<!-- CS 1200 -->
<g id="node2" class="node">
<title>CS 1200</title>
<ellipse fill="lightgreen" stroke="black" cx="391.25" cy="-1095.41" rx="101.65" ry="22.76"/>
<text text-anchor="middle" x="391.25" y="-1099.21" font-family="Times,serif" font-size="14.00">CS 1200 &#45; 2025 Fall</text>
<text text-anchor="middle" x="391.25" y="-1084.21" font-family="Times,serif" font-size="14.00">Intro to CS and SE</text>
</g>
<!-- MATH 2413 -->
<g id="node3" class="node">
<title>MATH 2413</title>
<ellipse fill="lightgreen" stroke="black" cx="675.25" cy="-942.16" rx="114.6" ry="22.76"/>
<text text-anchor="middle" x="675.25" y="-945.96" font-family="Times,serif" font-size="14.00">MATH 2413 &#45; Transfer</text>
<text text-anchor="middle" x="675.25" y="-930.96" font-family="Times,serif" font-size="14.00">Differential Calculus</text>
</g>
<!-- MATH 2414 -->
<g id="node6" class="node">
<title>MATH 2414</title>
<ellipse fill="lightgreen" stroke="black" cx="167.25" cy="-788.9" rx="118.59" ry="22.76"/>
<text text-anchor="middle" x="167.25" y="-792.7" font-family="Times,serif" font-size="14.00">MATH 2414 &#45; 2025 Fall</text>
<text text-anchor="middle" x="167.25" y="-777.7" font-family="Times,serif" font-size="14.00">Integral Calculus</text>
</g>
<!-- MATH 2413&#45;&gt;MATH 2414 -->
<g id="edge2" class="edge">
<title>MATH 2413&#45;&gt;MATH 2414</title>
<path fill="none" stroke="black" d="M614.23,-922.99C519.96,-894.92 339.33,-841.14 238.96,-811.25"/>
<polygon fill="black" stroke="black" points="239.79,-807.85 229.21,-808.35 237.8,-814.56 239.79,-807.85"/>
</g>
<!-- CS 2305 -->
<g id="node10" class="node">
<title>CS 2305</title>
<ellipse fill="yellow" stroke="black" cx="1197.25" cy="-788.9" rx="196.65" ry="22.76"/>
<text text-anchor="middle" x="1197.25" y="-792.7" font-family="Times,serif" font-size="14.00">CS 2305</text>
<text text-anchor="middle" x="1197.25" y="-777.7" font-family="Times,serif" font-size="14.00">Discrete Mathematics for Computing I</text>
</g>
<!-- MATH 2413&#45;&gt;CS 2305 -->
<g id="edge6" class="edge">
<title>MATH 2413&#45;&gt;CS 2305</title>
<path fill="none" stroke="black" d="M737.44,-923.14C832.37,-895.63 1013.39,-843.18 1117.75,-812.94"/>
<polygon fill="black" stroke="black" points="1118.97,-816.23 1127.6,-810.08 1117.02,-809.5 1118.97,-816.23"/>
</g>
<!-- MATH 2418 -->
<g id="node16" class="node">
<title>MATH 2418</title>
<ellipse fill="yellow" stroke="black" cx="743.25" cy="-788.9" rx="76.24" ry="22.76"/>
<text text-anchor="middle" x="743.25" y="-792.7" font-family="Times,serif" font-size="14.00">MATH 2418</text>
<text text-anchor="middle" x="743.25" y="-777.7" font-family="Times,serif" font-size="14.00">Linear Algebra</text>
</g>
<!-- MATH 2413&#45;&gt;MATH 2418 -->
<g id="edge13" class="edge">
<title>MATH 2413&#45;&gt;MATH 2418</title>
<path fill="none" stroke="black" d="M684.99,-919.49C696.61,-893.65 716.1,-850.29 729.31,-820.91"/>
<polygon fill="black" stroke="black" points="732.62,-822.09 733.53,-811.53 726.23,-819.22 732.62,-822.09"/>
</g>
<!-- MATH 2312 -->
<g id="node4" class="node">
<title>MATH 2312</title>
<ellipse fill="lightgreen" stroke="black" cx="608.25" cy="-1095.41" rx="114.6" ry="22.76"/>
<text text-anchor="middle" x="608.25" y="-1099.21" font-family="Times,serif" font-size="14.00">MATH 2312 &#45; Transfer</text>
<text text-anchor="middle" x="608.25" y="-1084.21" font-family="Times,serif" font-size="14.00">Precalculus</text>
</g>
<!-- MATH 2312&#45;&gt;MATH 2413 -->
<g id="edge1" class="edge">
<title>MATH 2312&#45;&gt;MATH 2413</title>
<path fill="none" stroke="black" d="M617.85,-1072.74C629.29,-1046.91 648.5,-1003.55 661.51,-974.17"/>
<polygon fill="black" stroke="black" points="664.82,-975.35 665.67,-964.79 658.42,-972.51 664.82,-975.35"/>
</g>
<!-- CS 1436 -->
<g id="node5" class="node">
<title>CS 1436</title>
<ellipse fill="lightgreen" stroke="black" cx="870.25" cy="-1095.41" rx="146.24" ry="22.76"/>
<text text-anchor="middle" x="870.25" y="-1099.21" font-family="Times,serif" font-size="14.00">CS 1436 &#45; Transfer</text>
<text text-anchor="middle" x="870.25" y="-1084.21" font-family="Times,serif" font-size="14.00">Programming Fundamentals</text>
</g>
<!-- CS 1337 -->
<g id="node7" class="node">
<title>CS 1337</title>
<ellipse fill="lightgreen" stroke="black" cx="1665.25" cy="-942.16" rx="101.23" ry="22.76"/>
<text text-anchor="middle" x="1665.25" y="-945.96" font-family="Times,serif" font-size="14.00">CS 1337 &#45; Transfer</text>
<text text-anchor="middle" x="1665.25" y="-930.96" font-family="Times,serif" font-size="14.00">Computer Science I</text>
</g>
<!-- CS 1436&#45;&gt;CS 1337 -->
<g id="edge3" class="edge">
<title>CS 1436&#45;&gt;CS 1337</title>
<path fill="none" stroke="black" d="M959.52,-1077.43C1113.86,-1048.06 1428.58,-988.18 1580.05,-959.37"/>
<polygon fill="black" stroke="black" points="1581.06,-962.74 1590.23,-957.43 1579.76,-955.86 1581.06,-962.74"/>
</g>
<!-- PHYS 2325 -->
<g id="node8" class="node">
<title>PHYS 2325</title>
<ellipse fill="yellow" stroke="black" cx="346.25" cy="-788.9" rx="59.29" ry="22.76"/>
<text text-anchor="middle" x="346.25" y="-792.7" font-family="Times,serif" font-size="14.00">PHYS 2325</text>
<text text-anchor="middle" x="346.25" y="-777.7" font-family="Times,serif" font-size="14.00">Mechanics</text>
</g>
<!-- MATH 2414&#45;&gt;PHYS 2325 -->
<g id="edge4" class="edge">
<title>MATH 2414&#45;&gt;PHYS 2325</title>
<path fill="none" stroke="black" stroke-dasharray="5,2" d="M286.12,-788.9C286.2,-788.9 286.27,-788.9 286.35,-788.9"/>
<polygon fill="black" stroke="black" points="276.59,-792.41 286.59,-788.9 276.59,-785.41 276.59,-792.41"/>
</g>
<!-- MATH 4332 -->
<g id="node13" class="node">
<title>MATH 4332</title>
<ellipse fill="yellow" stroke="black" cx="72.25" cy="-635.65" rx="72.25" ry="22.76"/>
<text text-anchor="middle" x="72.25" y="-639.45" font-family="Times,serif" font-size="14.00">MATH 4332</text>
<text text-anchor="middle" x="72.25" y="-624.45" font-family="Times,serif" font-size="14.00">Math Elective</text>
</g>
<!-- MATH 2414&#45;&gt;MATH 4332 -->
<g id="edge10" class="edge">
<title>MATH 2414&#45;&gt;MATH 4332</title>
<path fill="none" stroke="black" d="M153.64,-766.23C137.27,-740.17 109.71,-696.28 91.25,-666.9"/>
<polygon fill="black" stroke="black" points="94.12,-664.88 85.84,-658.28 88.19,-668.61 94.12,-664.88"/>
</g>
<!-- SE 3341 -->
<g id="node18" class="node">
<title>SE 3341</title>
<ellipse fill="#b2dfee" stroke="black" cx="839.25" cy="-635.65" rx="168.08" ry="22.76"/>
<text text-anchor="middle" x="839.25" y="-639.45" font-family="Times,serif" font-size="14.00">SE 3341</text>
<text text-anchor="middle" x="839.25" y="-624.45" font-family="Times,serif" font-size="14.00">Probability &amp; Statistics in CS/SE</text>
</g>
<!-- MATH 2414&#45;&gt;SE 3341 -->
<g id="edge15" class="edge">
<title>MATH 2414&#45;&gt;SE 3341</title>
<path fill="none" stroke="black" d="M241.41,-771.21C364.71,-743.46 611.59,-687.89 746.31,-657.57"/>
<polygon fill="black" stroke="black" points="747.23,-660.95 756.21,-655.34 745.69,-654.12 747.23,-660.95"/>
</g>
<!-- CS 2337 -->
<g id="node11" class="node">
<title>CS 2337</title>
<ellipse fill="lightgreen" stroke="black" cx="1841.25" cy="-788.9" rx="104.8" ry="22.76"/>
<text text-anchor="middle" x="1841.25" y="-792.7" font-family="Times,serif" font-size="14.00">CS 2337 &#45; 2025 Fall</text>
<text text-anchor="middle" x="1841.25" y="-777.7" font-family="Times,serif" font-size="14.00">Computer Science II</text>
</g>
<!-- CS 1337&#45;&gt;CS 2337 -->
<g id="edge7" class="edge">
<title>CS 1337&#45;&gt;CS 2337</title>
<path fill="none" stroke="black" d="M1689.72,-920.13C1720.76,-893.45 1774.39,-847.36 1808.81,-817.78"/>
<polygon fill="black" stroke="black" points="1811.4,-820.17 1816.7,-811 1806.84,-814.86 1811.4,-820.17"/>
</g>
<!-- SE 2340 -->
<g id="node12" class="node">
<title>SE 2340</title>
<ellipse fill="#b2dfee" stroke="red" stroke-width="7" cx="1944.25" cy="-635.65" rx="118.59" ry="22.76"/>
<text text-anchor="middle" x="1944.25" y="-639.45" font-family="Times,serif" font-size="14.00">SE 2340</text>
<text text-anchor="middle" x="1944.25" y="-624.45" font-family="Times,serif" font-size="14.00">Computer Architecture</text>
</g>
<!-- CS 1337&#45;&gt;SE 2340 -->
<g id="edge8" class="edge">
<title>CS 1337&#45;&gt;SE 2340</title>
<path fill="none" stroke="black" d="M1669.47,-919.54C1677.31,-884.1 1697.01,-812.91 1736.25,-766.27 1776.75,-718.15 1839.83,-682.38 1885.9,-660.75"/>
<polygon fill="black" stroke="black" points="1887.56,-663.84 1895.17,-656.48 1884.63,-657.48 1887.56,-663.84"/>
</g>
<!-- PHYS 2125 -->
<g id="node9" class="node">
<title>PHYS 2125</title>
<ellipse fill="yellow" stroke="black" cx="512.25" cy="-788.9" rx="106.13" ry="22.76"/>
<text text-anchor="middle" x="512.25" y="-792.7" font-family="Times,serif" font-size="14.00">PHYS 2125</text>
<text text-anchor="middle" x="512.25" y="-777.7" font-family="Times,serif" font-size="14.00">Physics Laboratory I</text>
</g>
<!-- PHYS 2325&#45;&gt;PHYS 2125 -->
<g id="edge5" class="edge">
<title>PHYS 2325&#45;&gt;PHYS 2125</title>
<path fill="none" stroke="black" stroke-dasharray="5,2" d="M405.91,-788.9C405.98,-788.9 406.04,-788.9 406.11,-788.9"/>
<polygon fill="black" stroke="black" points="396.32,-792.41 406.32,-788.9 396.32,-785.41 396.32,-792.41"/>
</g>
<!-- PHYS 2326 -->
<g id="node14" class="node">
<title>PHYS 2326</title>
<ellipse fill="#b2dfee" stroke="black" cx="297.25" cy="-635.65" rx="152.06" ry="22.76"/>
<text text-anchor="middle" x="297.25" y="-639.45" font-family="Times,serif" font-size="14.00">PHYS 2326</text>
<text text-anchor="middle" x="297.25" y="-624.45" font-family="Times,serif" font-size="14.00">Electromagnetism and Waves</text>
</g>
<!-- PHYS 2325&#45;&gt;PHYS 2326 -->
<g id="edge11" class="edge">
<title>PHYS 2325&#45;&gt;PHYS 2326</title>
<path fill="none" stroke="black" d="M339.23,-766.23C330.9,-740.51 316.94,-697.41 307.42,-668.04"/>
<polygon fill="black" stroke="black" points="310.67,-666.71 304.26,-658.28 304.01,-668.87 310.67,-666.71"/>
</g>
<!-- CS 2305&#45;&gt;SE 2340 -->
<g id="edge9" class="edge">
<title>CS 2305&#45;&gt;SE 2340</title>
<path fill="none" stroke="black" d="M1290.72,-768.97C1435.81,-739.6 1713.27,-683.42 1855.45,-654.63"/>
<polygon fill="black" stroke="black" points="1856.34,-658.02 1865.45,-652.6 1854.95,-651.16 1856.34,-658.02"/>
</g>
<!-- SE 3306 -->
<g id="node17" class="node">
<title>SE 3306</title>
<ellipse fill="#b2dfee" stroke="red" stroke-width="7" cx="1172.25" cy="-635.65" rx="163.18" ry="22.76"/>
<text text-anchor="middle" x="1172.25" y="-639.45" font-family="Times,serif" font-size="14.00">SE 3306</text>
<text text-anchor="middle" x="1172.25" y="-624.45" font-family="Times,serif" font-size="14.00">Mathematics Foundations of SE</text>
</g>
<!-- CS 2305&#45;&gt;SE 3306 -->
<g id="edge14" class="edge">
<title>CS 2305&#45;&gt;SE 3306</title>
<path fill="none" stroke="black" d="M1193.67,-766.23C1189.44,-740.62 1182.36,-697.79 1177.5,-668.43"/>
<polygon fill="black" stroke="black" points="1180.91,-667.57 1175.83,-658.28 1174,-668.71 1180.91,-667.57"/>
</g>
<!-- CS 2305&#45;&gt;SE 3341 -->
<g id="edge16" class="edge">
<title>CS 2305&#45;&gt;SE 3341</title>
<path fill="none" stroke="black" d="M1147.47,-766.87C1082.06,-739.23 967.34,-690.76 897.82,-661.39"/>
<polygon fill="black" stroke="black" points="898.89,-658.05 888.32,-657.38 896.17,-664.49 898.89,-658.05"/>
</g>
<!-- SE 3345 -->
<g id="node19" class="node">
<title>SE 3345</title>
<ellipse fill="#b2dfee" stroke="red" stroke-width="7" cx="1580.25" cy="-635.65" rx="243.9" ry="22.76"/>
<text text-anchor="middle" x="1580.25" y="-639.45" font-family="Times,serif" font-size="14.00">SE 3345</text>
<text text-anchor="middle" x="1580.25" y="-624.45" font-family="Times,serif" font-size="14.00">Data Structures &amp; Intro to Algorithmic Analysis</text>
</g>
<!-- CS 2305&#45;&gt;SE 3345 -->
<g id="edge18" class="edge">
<title>CS 2305&#45;&gt;SE 3345</title>
<path fill="none" stroke="black" d="M1250.1,-767.03C1319.82,-739.5 1442.38,-691.09 1516.96,-661.64"/>
<polygon fill="black" stroke="black" points="1518.69,-664.72 1526.71,-657.79 1516.12,-658.21 1518.69,-664.72"/>
</g>
<!-- SE 3354 -->
<g id="node23" class="node">
<title>SE 3354</title>
<ellipse fill="#b2dfee" stroke="red" stroke-width="7" cx="2576.25" cy="-635.65" rx="112.36" ry="22.76"/>
<text text-anchor="middle" x="2576.25" y="-639.45" font-family="Times,serif" font-size="14.00">SE 3354</text>
<text text-anchor="middle" x="2576.25" y="-624.45" font-family="Times,serif" font-size="14.00">Software Engineering</text>
</g>
<!-- CS 2305&#45;&gt;SE 3354 -->
<g id="edge22" class="edge">
<title>CS 2305&#45;&gt;SE 3354</title>
<path fill="none" stroke="black" d="M1357.27,-775.71C1597.51,-756.46 2065.37,-715.25 2460.25,-658.27 2469.43,-656.95 2478.99,-655.42 2488.51,-653.79"/>
<polygon fill="black" stroke="black" points="2489.15,-657.23 2498.4,-652.07 2487.95,-650.34 2489.15,-657.23"/>
</g>
<!-- CS 2337&#45;&gt;SE 3345 -->
<g id="edge19" class="edge">
<title>CS 2337&#45;&gt;SE 3345</title>
<path fill="none" stroke="black" d="M1806.05,-767.5C1759.58,-740.57 1677.67,-693.1 1626.32,-663.35"/>
<polygon fill="black" stroke="black" points="1627.82,-660.17 1617.42,-658.18 1624.31,-666.23 1627.82,-660.17"/>
</g>
<!-- SE 3377 -->
<g id="node20" class="node">
<title>SE 3377</title>
<ellipse fill="yellow" stroke="black" cx="2263.25" cy="-635.65" rx="199.31" ry="22.76"/>
<text text-anchor="middle" x="2263.25" y="-639.45" font-family="Times,serif" font-size="14.00">SE 3377</text>
<text text-anchor="middle" x="2263.25" y="-624.45" font-family="Times,serif" font-size="14.00">C/C++ Programming in a UNIX Envirn</text>
</g>
<!-- CS 2337&#45;&gt;SE 3377 -->
<g id="edge20" class="edge">
<title>CS 2337&#45;&gt;SE 3377</title>
<path fill="none" stroke="black" d="M1893.42,-769.2C1969.75,-741.84 2111.92,-690.89 2196.01,-660.75"/>
<polygon fill="black" stroke="black" points="2197.23,-664.03 2205.46,-657.36 2194.87,-657.44 2197.23,-664.03"/>
</g>
<!-- CS 2337&#45;&gt;SE 3354 -->
<g id="edge23" class="edge">
<title>CS 2337&#45;&gt;SE 3354</title>
<path fill="none" stroke="black" d="M1914.75,-772.78C2051.49,-744.64 2344.29,-684.38 2490.09,-654.38"/>
<polygon fill="black" stroke="black" points="2490.81,-657.8 2499.9,-652.36 2489.4,-650.95 2490.81,-657.8"/>
</g>
<!-- SE 4348 -->
<g id="node24" class="node">
<title>SE 4348</title>
<ellipse fill="#b2dfee" stroke="red" stroke-width="7" cx="1964.25" cy="-482.39" rx="148.48" ry="22.76"/>
<text text-anchor="middle" x="1964.25" y="-486.19" font-family="Times,serif" font-size="14.00">SE 4348</text>
<text text-anchor="middle" x="1964.25" y="-471.19" font-family="Times,serif" font-size="14.00">Operating Systems Concepts</text>
</g>
<!-- SE 2340&#45;&gt;SE 4348 -->
<g id="edge25" class="edge">
<title>SE 2340&#45;&gt;SE 4348</title>
<path fill="none" stroke="black" d="M1947.12,-612.98C1950.5,-587.37 1956.16,-544.54 1960.05,-515.17"/>
<polygon fill="black" stroke="black" points="1963.55,-515.4 1961.39,-505.02 1956.61,-514.48 1963.55,-515.4"/>
</g>
<!-- PHYS 2126 -->
<g id="node15" class="node">
<title>PHYS 2126</title>
<ellipse fill="#b2dfee" stroke="black" cx="560.25" cy="-635.65" rx="109.7" ry="22.76"/>
<text text-anchor="middle" x="560.25" y="-639.45" font-family="Times,serif" font-size="14.00">PHYS 2126</text>
<text text-anchor="middle" x="560.25" y="-624.45" font-family="Times,serif" font-size="14.00">Physics Laboratory II</text>
</g>
<!-- PHYS 2326&#45;&gt;PHYS 2126 -->
<g id="edge12" class="edge">
<title>PHYS 2326&#45;&gt;PHYS 2126</title>
<path fill="none" stroke="black" stroke-dasharray="5,2" d="M449.3,-635.65C449.41,-635.65 449.51,-635.65 449.62,-635.65"/>
<polygon fill="black" stroke="black" points="440.6,-639.15 450.6,-635.65 440.6,-632.15 440.6,-639.15"/>
</g>
<!-- MATH 2418&#45;&gt;SE 3341 -->
<g id="edge17" class="edge">
<title>MATH 2418&#45;&gt;SE 3341</title>
<path fill="none" stroke="black" d="M756.8,-766.55C773.29,-740.57 801.24,-696.54 819.96,-667.03"/>
<polygon fill="black" stroke="black" points="823.05,-668.7 825.46,-658.38 817.14,-664.95 823.05,-668.7"/>
</g>
<!-- SE 4351 -->
<g id="node28" class="node">
<title>SE 4351</title>
<ellipse fill="#b2dfee" stroke="black" cx="1313.25" cy="-482.39" rx="137.77" ry="22.76"/>
<text text-anchor="middle" x="1313.25" y="-486.19" font-family="Times,serif" font-size="14.00">SE 4351</text>
<text text-anchor="middle" x="1313.25" y="-471.19" font-family="Times,serif" font-size="14.00">Requirements Engineering</text>
</g>
<!-- SE 3306&#45;&gt;SE 4351 -->
<g id="edge31" class="edge">
<title>SE 3306&#45;&gt;SE 4351</title>
<path fill="none" stroke="black" d="M1192.45,-612.98C1217.06,-586.58 1258.72,-541.89 1286.11,-512.51"/>
<polygon fill="black" stroke="black" points="1288.83,-514.72 1293.09,-505.02 1283.71,-509.95 1288.83,-514.72"/>
</g>
<!-- SE 4367 -->
<g id="node29" class="node">
<title>SE 4367</title>
<ellipse fill="#b2dfee" stroke="red" stroke-width="7" cx="1645.25" cy="-482.39" rx="169.91" ry="22.76"/>
<text text-anchor="middle" x="1645.25" y="-486.19" font-family="Times,serif" font-size="14.00">SE 4367</text>
<text text-anchor="middle" x="1645.25" y="-471.19" font-family="Times,serif" font-size="14.00">Software Testing, Verif, Valid, QA</text>
</g>
<!-- SE 3306&#45;&gt;SE 4367 -->
<g id="edge33" class="edge">
<title>SE 3306&#45;&gt;SE 4367</title>
<path fill="none" stroke="black" d="M1234.57,-614.72C1321.92,-586.79 1480.38,-536.11 1572.85,-506.54"/>
<polygon fill="black" stroke="black" points="1573.95,-509.87 1582.41,-503.49 1571.82,-503.2 1573.95,-509.87"/>
</g>
<!-- SE 3345&#45;&gt;SE 4348 -->
<g id="edge26" class="edge">
<title>SE 3345&#45;&gt;SE 4348</title>
<path fill="none" stroke="black" d="M1634.05,-613.46C1704.77,-585.6 1828.7,-536.78 1902.96,-507.53"/>
<polygon fill="black" stroke="black" points="1904.64,-510.64 1912.66,-503.71 1902.07,-504.12 1904.64,-510.64"/>
</g>
<!-- SE 3345&#45;&gt;SE 4351 -->
<g id="edge32" class="edge">
<title>SE 3345&#45;&gt;SE 4351</title>
<path fill="none" stroke="black" d="M1542.28,-613.14C1494.06,-585.82 1410.94,-538.73 1359.2,-509.42"/>
<polygon fill="black" stroke="black" points="1360.66,-506.23 1350.23,-504.34 1357.21,-512.32 1360.66,-506.23"/>
</g>
<!-- SE 3377&#45;&gt;SE 4348 -->
<g id="edge27" class="edge">
<title>SE 3377&#45;&gt;SE 4348</title>
<path fill="none" stroke="black" d="M2221.36,-613.46C2167.05,-585.98 2072.43,-538.12 2014.37,-508.75"/>
<polygon fill="black" stroke="black" points="2015.88,-505.59 2005.38,-504.2 2012.72,-511.83 2015.88,-505.59"/>
</g>
<!-- ECS 2390 -->
<g id="node21" class="node">
<title>ECS 2390</title>
<ellipse fill="yellow" stroke="black" cx="1976.25" cy="-942.16" rx="208.69" ry="22.76"/>
<text text-anchor="middle" x="1976.25" y="-945.96" font-family="Times,serif" font-size="14.00">ECS 2390</text>
<text text-anchor="middle" x="1976.25" y="-930.96" font-family="Times,serif" font-size="14.00">Professional &amp; Technical Communication</text>
</g>
<!-- ECS 2390&#45;&gt;SE 3354 -->
<g id="edge24" class="edge">
<title>ECS 2390&#45;&gt;SE 3354</title>
<path fill="none" stroke="black" d="M1971.4,-919.46C1964.63,-882.93 1957.07,-808.95 1995.25,-766.27 2011.73,-747.85 2328.01,-684.58 2486.83,-653.77"/>
<polygon fill="black" stroke="black" points="2487.91,-657.13 2497.06,-651.79 2486.58,-650.26 2487.91,-657.13"/>
</g>
<!-- SE 3162 -->
<g id="node25" class="node">
<title>SE 3162</title>
<ellipse fill="#b2dfee" stroke="black" cx="2182.25" cy="-788.9" rx="186.85" ry="22.76"/>
<text text-anchor="middle" x="2182.25" y="-792.7" font-family="Times,serif" font-size="14.00">SE 3162</text>
<text text-anchor="middle" x="2182.25" y="-777.7" font-family="Times,serif" font-size="14.00">Professional Responsibility in CS/SE</text>
</g>
<!-- ECS 2390&#45;&gt;SE 3162 -->
<g id="edge28" class="edge">
<title>ECS 2390&#45;&gt;SE 3162</title>
<path fill="none" stroke="black" d="M2005.76,-919.49C2042.43,-892.56 2105.01,-846.61 2144.96,-817.28"/>
<polygon fill="black" stroke="black" points="2147.13,-820.03 2153.12,-811.29 2142.99,-814.39 2147.13,-820.03"/>
</g>
<!-- RHET 1302 -->
<g id="node22" class="node">
<title>RHET 1302</title>
<ellipse fill="lightgreen" stroke="black" cx="1130.25" cy="-1095.41" rx="112.36" ry="22.76"/>
<text text-anchor="middle" x="1130.25" y="-1099.21" font-family="Times,serif" font-size="14.00">RHET 1302 &#45; Transfer</text>
<text text-anchor="middle" x="1130.25" y="-1084.21" font-family="Times,serif" font-size="14.00">Core: 010</text>
</g>
<!-- RHET 1302&#45;&gt;ECS 2390 -->
<g id="edge21" class="edge">
<title>RHET 1302&#45;&gt;ECS 2390</title>
<path fill="none" stroke="black" d="M1210.11,-1079.43C1222.21,-1077.19 1234.56,-1074.91 1246.25,-1072.78 1462.83,-1033.37 1715.83,-988.76 1859.93,-963.49"/>
<polygon fill="black" stroke="black" points="1860.87,-966.88 1870.11,-961.71 1859.66,-959.99 1860.87,-966.88"/>
</g>
<!-- SE 4381 -->
<g id="node27" class="node">
<title>SE 4381</title>
<ellipse fill="#b2dfee" stroke="black" cx="2532.25" cy="-329.14" rx="183.28" ry="22.76"/>
<text text-anchor="middle" x="2532.25" y="-332.94" font-family="Times,serif" font-size="14.00">SE 4381</text>
<text text-anchor="middle" x="2532.25" y="-317.94" font-family="Times,serif" font-size="14.00">Software Project Planning &amp; Mgmt.</text>
</g>
<!-- SE 3354&#45;&gt;SE 4381 -->
<g id="edge30" class="edge">
<title>SE 3354&#45;&gt;SE 4381</title>
<path fill="none" stroke="black" d="M2573.09,-612.75C2565.41,-559.64 2545.78,-423.8 2536.83,-361.82"/>
<polygon fill="black" stroke="black" points="2540.28,-361.23 2535.39,-351.84 2533.35,-362.24 2540.28,-361.23"/>
</g>
<!-- SE 3354&#45;&gt;SE 4367 -->
<g id="edge34" class="edge">
<title>SE 3354&#45;&gt;SE 4367</title>
<path fill="none" stroke="black" d="M2496.74,-619.53C2484.53,-617.3 2472.06,-615.06 2460.25,-613.02 2213.31,-570.37 1923.35,-525.49 1764.44,-501.33"/>
<polygon fill="black" stroke="black" points="1764.57,-497.81 1754.16,-499.77 1763.52,-504.73 1764.57,-497.81"/>
</g>
<!-- CS 4397 -->
<g id="node32" class="node">
<title>CS 4397</title>
<ellipse fill="#b2dfee" stroke="black" cx="1974.25" cy="-329.14" rx="110.12" ry="22.76"/>
<text text-anchor="middle" x="1974.25" y="-332.94" font-family="Times,serif" font-size="14.00">CS 4397</text>
<text text-anchor="middle" x="1974.25" y="-317.94" font-family="Times,serif" font-size="14.00">SE Technical Elective</text>
</g>
<!-- SE 4348&#45;&gt;CS 4397 -->
<g id="edge38" class="edge">
<title>SE 4348&#45;&gt;CS 4397</title>
<path fill="none" stroke="black" d="M1965.68,-459.72C1967.38,-434.11 1970.21,-391.28 1972.15,-361.92"/>
<polygon fill="black" stroke="black" points="1975.65,-361.98 1972.82,-351.77 1968.67,-361.52 1975.65,-361.98"/>
</g>
<!-- FAST TRACK -->
<g id="node41" class="node">
<title>FAST TRACK</title>
<ellipse fill="#b2dfee" stroke="red" stroke-width="7" cx="1656.25" cy="-329.14" rx="206.45" ry="22.76"/>
<text text-anchor="middle" x="1656.25" y="-332.94" font-family="Times,serif" font-size="14.00">FAST TRACK</text>
<text text-anchor="middle" x="1656.25" y="-317.94" font-family="Times,serif" font-size="14.00">Fast Track Program Benchmark Courses</text>
</g>
<!-- SE 4348&#45;&gt;FAST TRACK -->
<g id="edge39" class="edge">
<title>SE 4348&#45;&gt;FAST TRACK</title>
<path fill="none" stroke="black" d="M1922.07,-460.68C1866.55,-433.41 1768.97,-385.49 1708.74,-355.91"/>
<polygon fill="black" stroke="black" points="1709.93,-352.6 1699.41,-351.33 1706.84,-358.88 1709.93,-352.6"/>
</g>
<!-- GOVT 2305 -->
<g id="node26" class="node">
<title>GOVT 2305</title>
<ellipse fill="lightgreen" stroke="black" cx="1360.25" cy="-1095.41" rx="116.85" ry="22.76"/>
<text text-anchor="middle" x="1360.25" y="-1099.21" font-family="Times,serif" font-size="14.00">GOVT 2305 &#45; 2025 Fall</text>
<text text-anchor="middle" x="1360.25" y="-1084.21" font-family="Times,serif" font-size="14.00">Core: 070</text>
</g>
<!-- GOVT 2305&#45;&gt;SE 3162 -->
<g id="edge29" class="edge">
<title>GOVT 2305&#45;&gt;SE 3162</title>
<path fill="none" stroke="black" d="M1442.87,-1079.37C1455.71,-1077.11 1468.83,-1074.85 1481.25,-1072.78 1636.73,-1046.92 2079.63,-1084.42 2182.25,-964.78 2216.18,-925.22 2204.61,-860.08 2193.3,-821.46"/>
<polygon fill="black" stroke="black" points="2196.6,-820.3 2190.31,-811.77 2189.91,-822.36 2196.6,-820.3"/>
</g>
<!-- SE 4485 -->
<g id="node30" class="node">
<title>SE 4485</title>
<ellipse fill="#b2dfee" stroke="black" cx="2228.25" cy="-22.63" rx="152.06" ry="22.76"/>
<text text-anchor="middle" x="2228.25" y="-26.43" font-family="Times,serif" font-size="14.00">SE 4485</text>
<text text-anchor="middle" x="2228.25" y="-11.43" font-family="Times,serif" font-size="14.00">Software Engineering Project</text>
</g>
<!-- SE 4381&#45;&gt;SE 4485 -->
<g id="edge35" class="edge">
<title>SE 4381&#45;&gt;SE 4485</title>
<path fill="none" stroke="black" d="M2526.05,-306.43C2515,-270.86 2488.95,-199.49 2446.25,-153.25 2402.28,-105.64 2336.8,-69.93 2289.09,-48.17"/>
<polygon fill="black" stroke="black" points="2290.35,-44.9 2279.8,-44.01 2287.49,-51.29 2290.35,-44.9"/>
</g>
<!-- SE 4351&#45;&gt;SE 4485 -->
<g id="edge36" class="edge">
<title>SE 4351&#45;&gt;SE 4485</title>
<path fill="none" stroke="black" d="M1305.16,-459.65C1285.13,-401.67 1240.28,-241.74 1318.25,-153.25 1319.88,-151.4 1865.42,-74.58 2110.93,-40.09"/>
<polygon fill="black" stroke="black" points="2111.55,-43.54 2120.97,-38.68 2110.58,-36.61 2111.55,-43.54"/>
</g>
<!-- SE 4367&#45;&gt;FAST TRACK -->
<g id="edge40" class="edge">
<title>SE 4367&#45;&gt;FAST TRACK</title>
<path fill="none" stroke="black" d="M1646.83,-459.72C1648.69,-434.11 1651.8,-391.28 1653.94,-361.92"/>
<polygon fill="black" stroke="black" points="1657.44,-362 1654.68,-351.77 1650.46,-361.49 1657.44,-362"/>
</g>
<!-- SE 6362 -->
<g id="node31" class="node">
<title>SE 6362</title>
<ellipse fill="#b2dfee" stroke="black" cx="2214.25" cy="-175.88" rx="231.86" ry="22.76"/>
<text text-anchor="middle" x="2214.25" y="-179.68" font-family="Times,serif" font-size="14.00">SE 6362 (SE 4352)</text>
<text text-anchor="middle" x="2214.25" y="-164.68" font-family="Times,serif" font-size="14.00">Architecture and Design *(Approval Needed)*</text>
</g>
<!-- SE 6362&#45;&gt;SE 4485 -->
<g id="edge37" class="edge">
<title>SE 6362&#45;&gt;SE 4485</title>
<path fill="none" stroke="black" d="M2216.26,-153.21C2218.63,-127.6 2222.59,-84.77 2225.31,-55.41"/>
<polygon fill="black" stroke="black" points="2228.81,-55.54 2226.25,-45.26 2221.84,-54.89 2228.81,-55.54"/>
</g>
<!-- GOVT 2306 -->
<g id="node33" class="node">
<title>GOVT 2306</title>
<ellipse fill="yellow" stroke="black" cx="1537.25" cy="-1095.41" rx="59.29" ry="22.76"/>
<text text-anchor="middle" x="1537.25" y="-1099.21" font-family="Times,serif" font-size="14.00">GOVT 2306</text>
<text text-anchor="middle" x="1537.25" y="-1084.21" font-family="Times,serif" font-size="14.00">Core: 070</text>
</g>
<!-- HIST 1301 -->
<g id="node34" class="node">
<title>HIST 1301</title>
<ellipse fill="yellow" stroke="black" cx="1653.25" cy="-1095.41" rx="55.72" ry="22.76"/>
<text text-anchor="middle" x="1653.25" y="-1099.21" font-family="Times,serif" font-size="14.00">HIST 1301</text>
<text text-anchor="middle" x="1653.25" y="-1084.21" font-family="Times,serif" font-size="14.00">Core: 060</text>
</g>
<!-- HIST 1302 -->
<g id="node35" class="node">
<title>HIST 1302</title>
<ellipse fill="yellow" stroke="black" cx="1766.25" cy="-1095.41" rx="55.72" ry="22.76"/>
<text text-anchor="middle" x="1766.25" y="-1099.21" font-family="Times,serif" font-size="14.00">HIST 1302</text>
<text text-anchor="middle" x="1766.25" y="-1084.21" font-family="Times,serif" font-size="14.00">Core: 060</text>
</g>
<!-- HIST 2322 -->
<g id="node36" class="node">
<title>HIST 2322</title>
<ellipse fill="lightgreen" stroke="black" cx="1931.25" cy="-1095.41" rx="108.38" ry="22.76"/>
<text text-anchor="middle" x="1931.25" y="-1099.21" font-family="Times,serif" font-size="14.00">HIST 2322 &#45; Transfer</text>
<text text-anchor="middle" x="1931.25" y="-1084.21" font-family="Times,serif" font-size="14.00">Core: 040</text>
</g>
<!-- THEA 1310 -->
<g id="node37" class="node">
<title>THEA 1310</title>
<ellipse fill="yellow" stroke="black" cx="2100.25" cy="-1095.41" rx="59.29" ry="22.76"/>
<text text-anchor="middle" x="2100.25" y="-1099.21" font-family="Times,serif" font-size="14.00">THEA 1310</text>
<text text-anchor="middle" x="2100.25" y="-1084.21" font-family="Times,serif" font-size="14.00">Core: 050</text>
</g>
<!-- GEOG 2303 -->
<g id="node38" class="node">
<title>GEOG 2303</title>
<ellipse fill="lightgreen" stroke="black" cx="2275.25" cy="-1095.41" rx="114.6" ry="22.76"/>
<text text-anchor="middle" x="2275.25" y="-1099.21" font-family="Times,serif" font-size="14.00">GEOG 2303 &#45; Transfer</text>
<text text-anchor="middle" x="2275.25" y="-1084.21" font-family="Times,serif" font-size="14.00">Core: 080</text>
</g>
<!-- MATH 1316 -->
<g id="node39" class="node">
<title>MATH 1316</title>
<ellipse fill="lightgreen" stroke="black" cx="2505.25" cy="-1095.41" rx="114.6" ry="22.76"/>
<text text-anchor="middle" x="2505.25" y="-1099.21" font-family="Times,serif" font-size="14.00">MATH 1316 &#45; Transfer</text>
<text text-anchor="middle" x="2505.25" y="-1084.21" font-family="Times,serif" font-size="14.00">Free Elective</text>
</g>
<!-- RHET 1301 -->
<g id="node40" class="node">
<title>RHET 1301</title>
<ellipse fill="lightgreen" stroke="black" cx="2733.25" cy="-1095.41" rx="112.36" ry="22.76"/>
<text text-anchor="middle" x="2733.25" y="-1099.21" font-family="Times,serif" font-size="14.00">RHET 1301 &#45; Transfer</text>
<text text-anchor="middle" x="2733.25" y="-1084.21" font-family="Times,serif" font-size="14.00">Free Elective</text>
</g>
<!-- FAST TRACK&#45;&gt;SE 6362 -->
<g id="edge43" class="edge">
<title>FAST TRACK&#45;&gt;SE 6362</title>
<path fill="none" stroke="black" d="M1730.64,-307.97C1833.79,-280.01 2019.82,-229.58 2128.63,-200.09"/>
<polygon fill="black" stroke="black" points="2129.86,-203.39 2138.59,-197.39 2128.02,-196.63 2129.86,-203.39"/>
</g>
<!-- SE 6329 -->
<g id="node42" class="node">
<title>SE 6329</title>
<ellipse fill="#b2dfee" stroke="black" cx="1436.25" cy="-175.88" rx="120.83" ry="22.76"/>
<text text-anchor="middle" x="1436.25" y="-179.68" font-family="Times,serif" font-size="14.00">SE 6329 (SE 4376)</text>
<text text-anchor="middle" x="1436.25" y="-164.68" font-family="Times,serif" font-size="14.00">Object Oriented Design</text>
</g>
<!-- FAST TRACK&#45;&gt;SE 6329 -->
<g id="edge41" class="edge">
<title>FAST TRACK&#45;&gt;SE 6329</title>
<path fill="none" stroke="black" d="M1624.73,-306.47C1585.27,-279.34 1517.7,-232.88 1475.08,-203.58"/>
<polygon fill="black" stroke="black" points="1476.87,-200.56 1466.65,-197.78 1472.91,-206.33 1476.87,-200.56"/>
</g>
<!-- CS 6360 -->
<g id="node43" class="node">
<title>CS 6360</title>
<ellipse fill="#b2dfee" stroke="black" cx="1656.25" cy="-175.88" rx="98.08" ry="22.76"/>
<text text-anchor="middle" x="1656.25" y="-179.68" font-family="Times,serif" font-size="14.00">CS 6360 (SE 4347)</text>
<text text-anchor="middle" x="1656.25" y="-164.68" font-family="Times,serif" font-size="14.00">Database Systems</text>
</g>
<!-- FAST TRACK&#45;&gt;CS 6360 -->
<g id="edge42" class="edge">
<title>FAST TRACK&#45;&gt;CS 6360</title>
<path fill="none" stroke="black" d="M1656.25,-306.47C1656.25,-280.86 1656.25,-238.03 1656.25,-208.66"/>
<polygon fill="black" stroke="black" points="1659.75,-208.51 1656.25,-198.51 1652.75,-208.51 1659.75,-208.51"/>
</g>
<!-- CS 5349 -->
<g id="node45" class="node">
<title>CS 5349</title>
<ellipse fill="#b2dfee" stroke="black" cx="1854.25" cy="-175.88" rx="98.08" ry="22.76"/>
<text text-anchor="middle" x="1854.25" y="-179.68" font-family="Times,serif" font-size="14.00">CS 5349 (CS 4384)</text>
<text text-anchor="middle" x="1854.25" y="-164.68" font-family="Times,serif" font-size="14.00">Automata Theory</text>
</g>
<!-- FAST TRACK&#45;&gt;CS 5349 -->
<g id="edge45" class="edge">
<title>FAST TRACK&#45;&gt;CS 5349</title>
<path fill="none" stroke="black" d="M1684.62,-306.47C1719.91,-279.51 1780.19,-233.46 1818.58,-204.13"/>
<polygon fill="black" stroke="black" points="1821.07,-206.64 1826.89,-197.78 1816.82,-201.07 1821.07,-206.64"/>
</g>
<!-- CS 6371 -->
<g id="node44" class="node">
<title>CS 6371</title>
<ellipse fill="#b2dfee" stroke="black" cx="1839.25" cy="-22.63" rx="236.35" ry="22.76"/>
<text text-anchor="middle" x="1839.25" y="-26.43" font-family="Times,serif" font-size="14.00">CS 6371 (CS 4337)</text>
<text text-anchor="middle" x="1839.25" y="-11.43" font-family="Times,serif" font-size="14.00">Programming Languages *(Approval Needed)*</text>
</g>
<!-- CS 5349&#45;&gt;CS 6371 -->
<g id="edge44" class="edge">
<title>CS 5349&#45;&gt;CS 6371</title>
<path fill="none" stroke="black" d="M1852.1,-153.21C1849.56,-127.6 1845.31,-84.77 1842.4,-55.41"/>
<polygon fill="black" stroke="black" points="1845.86,-54.86 1841.39,-45.26 1838.9,-55.55 1845.86,-54.86"/>
</g>
<!-- degree -->
<g id="node46" class="node">
<title>degree</title>
<ellipse fill="orangered" stroke="black" cx="1595.25" cy="-1244.04" rx="104.24" ry="18"/>
<text text-anchor="middle" x="1595.25" y="-1240.34" font-family="Times,serif" font-size="14.00">B.S. in Computer Science</text>
</g>
<!-- degree&#45;&gt;ECS 1100 -->
<g id="edge46" class="edge">
<title>degree&#45;&gt;ECS 1100</title>
<path fill="none" stroke="black" d="M1502.26,-1235.71C1288.33,-1218.5 744.88,-1172.79 292.25,-1118.04 280.04,-1116.56 267.29,-1114.89 254.61,-1113.15"/>
<polygon fill="black" stroke="black" points="254.86,-1109.65 244.47,-1111.74 253.89,-1116.58 254.86,-1109.65"/>
</g>
<!-- degree&#45;&gt;CS 1200 -->
<g id="edge47" class="edge">
<title>degree&#45;&gt;CS 1200</title>
<path fill="none" stroke="black" d="M1503.78,-1235.37C1314.97,-1218.93 868.64,-1176.95 497.25,-1118.04 489.05,-1116.74 480.52,-1115.24 472.02,-1113.66"/>
<polygon fill="black" stroke="black" points="472.56,-1110.2 462.08,-1111.76 471.25,-1117.07 472.56,-1110.2"/>
</g>
<!-- degree&#45;&gt;MATH 2312 -->
<g id="edge48" class="edge">
<title>degree&#45;&gt;MATH 2312</title>
<path fill="none" stroke="black" d="M1514.92,-1232.47C1361.55,-1212.08 1016.52,-1165.14 727.25,-1118.04 718.1,-1116.55 708.56,-1114.93 699.05,-1113.27"/>
<polygon fill="black" stroke="black" points="699.61,-1109.81 689.16,-1111.53 698.4,-1116.71 699.61,-1109.81"/>
</g>
<!-- degree&#45;&gt;CS 1436 -->
<g id="edge49" class="edge">
<title>degree&#45;&gt;CS 1436</title>
<path fill="none" stroke="black" d="M1530.27,-1229.9C1402.1,-1203.98 1116.15,-1146.14 966.21,-1115.82"/>
<polygon fill="black" stroke="black" points="966.59,-1112.32 956.09,-1113.77 965.2,-1119.19 966.59,-1112.32"/>
</g>
<!-- degree&#45;&gt;RHET 1302 -->
<g id="edge50" class="edge">
<title>degree&#45;&gt;RHET 1302</title>
<path fill="none" stroke="black" d="M1547.24,-1227.9C1464.2,-1201.72 1293.55,-1147.91 1198.31,-1117.87"/>
<polygon fill="black" stroke="black" points="1199.08,-1114.45 1188.49,-1114.78 1196.98,-1121.12 1199.08,-1114.45"/>
</g>
<!-- degree&#45;&gt;GOVT 2305 -->
<g id="edge51" class="edge">
<title>degree&#45;&gt;GOVT 2305</title>
<path fill="none" stroke="black" d="M1568.75,-1226.5C1528.18,-1201.19 1450.32,-1152.61 1402.08,-1122.51"/>
<polygon fill="black" stroke="black" points="1403.77,-1119.44 1393.43,-1117.12 1400.06,-1125.38 1403.77,-1119.44"/>
</g>
<!-- degree&#45;&gt;GOVT 2306 -->
<g id="edge52" class="edge">
<title>degree&#45;&gt;GOVT 2306</title>
<path fill="none" stroke="black" d="M1588.48,-1225.93C1578.98,-1201.91 1561.51,-1157.75 1549.64,-1127.75"/>
<polygon fill="black" stroke="black" points="1552.79,-1126.17 1545.85,-1118.16 1546.28,-1128.75 1552.79,-1126.17"/>
</g>
<!-- degree&#45;&gt;HIST 1301 -->
<g id="edge53" class="edge">
<title>degree&#45;&gt;HIST 1301</title>
<path fill="none" stroke="black" d="M1602.02,-1225.93C1611.52,-1201.91 1628.99,-1157.75 1640.86,-1127.75"/>
<polygon fill="black" stroke="black" points="1644.22,-1128.75 1644.65,-1118.16 1637.71,-1126.17 1644.22,-1128.75"/>
</g>
<!-- degree&#45;&gt;HIST 1302 -->
<g id="edge54" class="edge">
<title>degree&#45;&gt;HIST 1302</title>
<path fill="none" stroke="black" d="M1614.87,-1226.22C1644.35,-1200.94 1700.35,-1152.92 1735.35,-1122.91"/>
<polygon fill="black" stroke="black" points="1738.03,-1125.22 1743.34,-1116.06 1733.47,-1119.91 1738.03,-1125.22"/>
</g>
<!-- degree&#45;&gt;HIST 2322 -->
<g id="edge55" class="edge">
<title>degree&#45;&gt;HIST 2322</title>
<path fill="none" stroke="black" d="M1631.85,-1227.07C1690.98,-1201.26 1807.85,-1150.26 1876.78,-1120.18"/>
<polygon fill="black" stroke="black" points="1878.42,-1123.29 1886.18,-1116.08 1875.62,-1116.87 1878.42,-1123.29"/>
</g>
<!-- degree&#45;&gt;THEA 1310 -->
<g id="edge56" class="edge">
<title>degree&#45;&gt;THEA 1310</title>
<path fill="none" stroke="black" d="M1649.97,-1228.6C1733.77,-1206.27 1898.73,-1161.37 2037.25,-1118.04 2040.77,-1116.94 2044.39,-1115.78 2048.03,-1114.59"/>
<polygon fill="black" stroke="black" points="2049.27,-1117.86 2057.65,-1111.39 2047.06,-1111.22 2049.27,-1117.86"/>
</g>
<!-- degree&#45;&gt;GEOG 2303 -->
<g id="edge57" class="edge">
<title>degree&#45;&gt;GEOG 2303</title>
<path fill="none" stroke="black" d="M1657.7,-1229.57C1780.06,-1203.19 2051.48,-1144.66 2190.13,-1114.77"/>
<polygon fill="black" stroke="black" points="2191.25,-1118.1 2200.29,-1112.58 2189.77,-1111.26 2191.25,-1118.1"/>
</g>
<!-- degree&#45;&gt;MATH 1316 -->
<g id="edge58" class="edge">
<title>degree&#45;&gt;MATH 1316</title>
<path fill="none" stroke="black" d="M1671.15,-1231.64C1812.18,-1210.33 2124.11,-1162.57 2386.25,-1118.04 2395.22,-1116.52 2404.56,-1114.89 2413.89,-1113.24"/>
<polygon fill="black" stroke="black" points="2414.77,-1116.64 2424,-1111.44 2413.54,-1109.74 2414.77,-1116.64"/>
</g>
<!-- degree&#45;&gt;RHET 1301 -->
<g id="edge59" class="edge">
<title>degree&#45;&gt;RHET 1301</title>
<path fill="none" stroke="black" d="M1683,-1234.18C1860.1,-1215.88 2272.75,-1171.17 2617.25,-1118.04 2626.25,-1116.65 2635.61,-1115.09 2644.95,-1113.47"/>
<polygon fill="black" stroke="black" points="2645.82,-1116.87 2655.05,-1111.68 2644.6,-1109.98 2645.82,-1116.87"/>
</g>
</g>
</svg>
