<?xml version="1.0" encoding="UTF-8" standalone="no"?>
<!DOCTYPE svg PUBLIC "-//W3C//DTD SVG 1.1//EN"
 "http://www.w3.org/Graphics/SVG/1.1/DTD/svg11.dtd">
<!-- Generated by graphviz version 2.43.0 (0)
 -->
<!-- Title: graph_name Pages: 1 -->
<svg width="864pt" height="455pt"
 viewBox="36.00 54.00 828.00 400.98" xmlns="http://www.w3.org/2000/svg" xmlns:xlink="http://www.w3.org/1999/xlink">
<g id="graph0" class="graph" transform="scale(0.26 0.26) rotate(0) translate(143.76 1552.68)">
<title>graph_name</title>
<polygon fill="white" stroke="transparent" points="-4,4 -4,-1343.04 3070.68,-1343.04 3070.68,4 -4,4"/>
<text text-anchor="middle" x="1533.34" y="-1311.04" font-family="Times,serif" font-size="30.00">Degree Plan</text>
<!-- ECS 1100 -->
<g id="node1" class="node">
<title>ECS 1100</title>
<ellipse fill="lightgreen" stroke="black" cx="144.25" cy="-1095.41" rx="144.5" ry="22.76"/>
<text text-anchor="middle" x="144.25" y="-1099.21" font-family="Times,serif" font-size="14.00">ECS 1100 &#45; 2025 Fall</text>
<text text-anchor="middle" x="144.25" y="-1084.21" font-family="Times,serif" font-size="14.00">Intro to Engineering and CS</text>
</g>
<!-- CS 1200 -->
<g id="node2" class="node">
<title>CS 1200</title>
<ellipse fill="lightgreen" stroke="black" cx="408.25" cy="-1095.41" rx="101.65" ry="22.76"/>
<text text-anchor="middle" x="408.25" y="-1099.21" font-family="Times,serif" font-size="14.00">CS 1200 &#45; 2025 Fall</text>
<text text-anchor="middle" x="408.25" y="-1084.21" font-family="Times,serif" font-size="14.00">Intro to CS and SE</text>
</g>
<!-- MATH 2413 -->
<g id="node3" class="node">
<title>MATH 2413</title>
<ellipse fill="lightgreen" stroke="black" cx="718.25" cy="-942.16" rx="114.6" ry="22.76"/>
<text text-anchor="middle" x="718.25" y="-945.96" font-family="Times,serif" font-size="14.00">MATH 2413 &#45; Transfer</text>
<text text-anchor="middle" x="718.25" y="-930.96" font-family="Times,serif" font-size="14.00">Differential Calculus</text>
</g>
<!-- MATH 2414 -->
<g id="node6" class="node">
<title>MATH 2414</title>
<ellipse fill="lightgreen" stroke="black" cx="167.25" cy="-788.9" rx="118.59" ry="22.76"/>
<text text-anchor="middle" x="167.25" y="-792.7" font-family="Times,serif" font-size="14.00">MATH 2414 &#45; 2025 Fall</text>
<text text-anchor="middle" x="167.25" y="-777.7" font-family="Times,serif" font-size="14.00">Integral Calculus</text>
</g>
<!-- MATH 2413&#45;&gt;MATH 2414 -->
<g id="edge2" class="edge">
<title>MATH 2413&#45;&gt;MATH 2414</title>
<path fill="none" stroke="black" d="M653.69,-923.44C551.18,-895.29 351.64,-840.52 242.69,-810.61"/>
<polygon fill="black" stroke="black" points="243.33,-807.16 232.76,-807.88 241.48,-813.91 243.33,-807.16"/>
</g>
<!-- CS 2305 -->
<g id="node10" class="node">
<title>CS 2305</title>
<ellipse fill="yellow" stroke="black" cx="1257.25" cy="-788.9" rx="196.65" ry="22.76"/>
<text text-anchor="middle" x="1257.25" y="-792.7" font-family="Times,serif" font-size="14.00">CS 2305</text>
<text text-anchor="middle" x="1257.25" y="-777.7" font-family="Times,serif" font-size="14.00">Discrete Mathematics for Computing I</text>
</g>
<!-- MATH 2413&#45;&gt;CS 2305 -->
<g id="edge6" class="edge">
<title>MATH 2413&#45;&gt;CS 2305</title>
<path fill="none" stroke="black" d="M781.93,-923.29C879.99,-895.77 1067.89,-843.04 1175.74,-812.77"/>
<polygon fill="black" stroke="black" points="1176.92,-816.08 1185.61,-810.01 1175.03,-809.34 1176.92,-816.08"/>
</g>
<!-- MATH 2418 -->
<g id="node16" class="node">
<title>MATH 2418</title>
<ellipse fill="yellow" stroke="black" cx="794.25" cy="-788.9" rx="76.24" ry="22.76"/>
<text text-anchor="middle" x="794.25" y="-792.7" font-family="Times,serif" font-size="14.00">MATH 2418</text>
<text text-anchor="middle" x="794.25" y="-777.7" font-family="Times,serif" font-size="14.00">Linear Algebra</text>
</g>
<!-- MATH 2413&#45;&gt;MATH 2418 -->
<g id="edge13" class="edge">
<title>MATH 2413&#45;&gt;MATH 2418</title>
<path fill="none" stroke="black" d="M729.14,-919.49C742.18,-893.54 764.1,-849.92 778.86,-820.53"/>
<polygon fill="black" stroke="black" points="782.02,-822.04 783.38,-811.53 775.76,-818.9 782.02,-822.04"/>
</g>
<!-- MATH 2312 -->
<g id="node4" class="node">
<title>MATH 2312</title>
<ellipse fill="lightgreen" stroke="black" cx="642.25" cy="-1095.41" rx="114.6" ry="22.76"/>
<text text-anchor="middle" x="642.25" y="-1099.21" font-family="Times,serif" font-size="14.00">MATH 2312 &#45; Transfer</text>
<text text-anchor="middle" x="642.25" y="-1084.21" font-family="Times,serif" font-size="14.00">Precalculus</text>
</g>
<!-- MATH 2312&#45;&gt;MATH 2413 -->
<g id="edge1" class="edge">
<title>MATH 2312&#45;&gt;MATH 2413</title>
<path fill="none" stroke="black" d="M653.14,-1072.74C666.18,-1046.79 688.1,-1003.17 702.86,-973.79"/>
<polygon fill="black" stroke="black" points="706.02,-975.29 707.38,-964.79 699.76,-972.15 706.02,-975.29"/>
</g>
<!-- CS 1436 -->
<g id="node5" class="node">
<title>CS 1436</title>
<ellipse fill="lightgreen" stroke="black" cx="921.25" cy="-1095.41" rx="146.24" ry="22.76"/>
<text text-anchor="middle" x="921.25" y="-1099.21" font-family="Times,serif" font-size="14.00">CS 1436 &#45; Transfer</text>
<text text-anchor="middle" x="921.25" y="-1084.21" font-family="Times,serif" font-size="14.00">Programming Fundamentals</text>
</g>
<!-- CS 1337 -->
<g id="node7" class="node">
<title>CS 1337</title>
<ellipse fill="lightgreen" stroke="black" cx="1762.25" cy="-942.16" rx="101.23" ry="22.76"/>
<text text-anchor="middle" x="1762.25" y="-945.96" font-family="Times,serif" font-size="14.00">CS 1337 &#45; Transfer</text>
<text text-anchor="middle" x="1762.25" y="-930.96" font-family="Times,serif" font-size="14.00">Computer Science I</text>
</g>
<!-- CS 1436&#45;&gt;CS 1337 -->
<g id="edge3" class="edge">
<title>CS 1436&#45;&gt;CS 1337</title>
<path fill="none" stroke="black" d="M1013.66,-1077.79C1177.22,-1048.37 1515.49,-987.54 1675.17,-958.82"/>
<polygon fill="black" stroke="black" points="1676.21,-962.19 1685.43,-956.97 1674.97,-955.3 1676.21,-962.19"/>
</g>
<!-- PHYS 2325 -->
<g id="node8" class="node">
<title>PHYS 2325</title>
<ellipse fill="yellow" stroke="black" cx="363.25" cy="-788.9" rx="59.29" ry="22.76"/>
<text text-anchor="middle" x="363.25" y="-792.7" font-family="Times,serif" font-size="14.00">PHYS 2325</text>
<text text-anchor="middle" x="363.25" y="-777.7" font-family="Times,serif" font-size="14.00">Mechanics</text>
</g>
<!-- MATH 2414&#45;&gt;PHYS 2325 -->
<g id="edge4" class="edge">
<title>MATH 2414&#45;&gt;PHYS 2325</title>
<path fill="none" stroke="black" stroke-dasharray="5,2" d="M286.3,-788.9C288.76,-788.9 291.21,-788.9 293.66,-788.9"/>
<polygon fill="black" stroke="black" points="293.74,-792.4 303.74,-788.9 293.74,-785.4 293.74,-792.4"/>
</g>
<!-- MATH 4332 -->
<g id="node13" class="node">
<title>MATH 4332</title>
<ellipse fill="yellow" stroke="black" cx="72.25" cy="-635.65" rx="72.25" ry="22.76"/>
<text text-anchor="middle" x="72.25" y="-639.45" font-family="Times,serif" font-size="14.00">MATH 4332</text>
<text text-anchor="middle" x="72.25" y="-624.45" font-family="Times,serif" font-size="14.00">Math Elective</text>
</g>
<!-- MATH 2414&#45;&gt;MATH 4332 -->
<g id="edge10" class="edge">
<title>MATH 2414&#45;&gt;MATH 4332</title>
<path fill="none" stroke="black" d="M153.64,-766.23C137.27,-740.17 109.71,-696.28 91.25,-666.9"/>
<polygon fill="black" stroke="black" points="94.12,-664.88 85.84,-658.28 88.19,-668.61 94.12,-664.88"/>
</g>
<!-- SE 3341 -->
<g id="node18" class="node">
<title>SE 3341</title>
<ellipse fill="#b2dfee" stroke="black" cx="890.25" cy="-635.65" rx="168.08" ry="22.76"/>
<text text-anchor="middle" x="890.25" y="-639.45" font-family="Times,serif" font-size="14.00">SE 3341</text>
<text text-anchor="middle" x="890.25" y="-624.45" font-family="Times,serif" font-size="14.00">Probability &amp; Statistics in CS/SE</text>
</g>
<!-- MATH 2414&#45;&gt;SE 3341 -->
<g id="edge15" class="edge">
<title>MATH 2414&#45;&gt;SE 3341</title>
<path fill="none" stroke="black" d="M244.62,-771.71C377.18,-743.98 647.44,-687.44 792.7,-657.05"/>
<polygon fill="black" stroke="black" points="793.44,-660.47 802.52,-655 792.01,-653.62 793.44,-660.47"/>
</g>
<!-- CS 2337 -->
<g id="node11" class="node">
<title>CS 2337</title>
<ellipse fill="lightgreen" stroke="black" cx="1938.25" cy="-788.9" rx="104.8" ry="22.76"/>
<text text-anchor="middle" x="1938.25" y="-792.7" font-family="Times,serif" font-size="14.00">CS 2337 &#45; 2025 Fall</text>
<text text-anchor="middle" x="1938.25" y="-777.7" font-family="Times,serif" font-size="14.00">Computer Science II</text>
</g>
<!-- CS 1337&#45;&gt;CS 2337 -->
<g id="edge7" class="edge">
<title>CS 1337&#45;&gt;CS 2337</title>
<path fill="none" stroke="black" d="M1786.72,-920.13C1817.76,-893.45 1871.39,-847.36 1905.81,-817.78"/>
<polygon fill="black" stroke="black" points="1908.4,-820.17 1913.7,-811 1903.84,-814.86 1908.4,-820.17"/>
</g>
<!-- SE 2340 -->
<g id="node12" class="node">
<title>SE 2340</title>
<ellipse fill="#b2dfee" stroke="red" stroke-width="7" cx="2046.25" cy="-635.65" rx="118.59" ry="22.76"/>
<text text-anchor="middle" x="2046.25" y="-639.45" font-family="Times,serif" font-size="14.00">SE 2340</text>
<text text-anchor="middle" x="2046.25" y="-624.45" font-family="Times,serif" font-size="14.00">Computer Architecture</text>
</g>
<!-- CS 1337&#45;&gt;SE 2340 -->
<g id="edge8" class="edge">
<title>CS 1337&#45;&gt;SE 2340</title>
<path fill="none" stroke="black" d="M1765.05,-919.43C1770.63,-883.83 1786.04,-812.43 1824.25,-766.27 1866.09,-715.73 1933.1,-680.49 1982.56,-659.64"/>
<polygon fill="black" stroke="black" points="1983.99,-662.84 1991.9,-655.79 1981.32,-656.37 1983.99,-662.84"/>
</g>
<!-- PHYS 2125 -->
<g id="node9" class="node">
<title>PHYS 2125</title>
<ellipse fill="yellow" stroke="black" cx="546.25" cy="-788.9" rx="106.13" ry="22.76"/>
<text text-anchor="middle" x="546.25" y="-792.7" font-family="Times,serif" font-size="14.00">PHYS 2125</text>
<text text-anchor="middle" x="546.25" y="-777.7" font-family="Times,serif" font-size="14.00">Physics Laboratory I</text>
</g>
<!-- PHYS 2325&#45;&gt;PHYS 2125 -->
<g id="edge5" class="edge">
<title>PHYS 2325&#45;&gt;PHYS 2125</title>
<path fill="none" stroke="black" stroke-dasharray="5,2" d="M422.94,-788.9C425.22,-788.9 427.51,-788.9 429.79,-788.9"/>
<polygon fill="black" stroke="black" points="429.8,-792.4 439.8,-788.9 429.8,-785.4 429.8,-792.4"/>
</g>
<!-- PHYS 2326 -->
<g id="node14" class="node">
<title>PHYS 2326</title>
<ellipse fill="#b2dfee" stroke="black" cx="314.25" cy="-635.65" rx="152.06" ry="22.76"/>
<text text-anchor="middle" x="314.25" y="-639.45" font-family="Times,serif" font-size="14.00">PHYS 2326</text>
<text text-anchor="middle" x="314.25" y="-624.45" font-family="Times,serif" font-size="14.00">Electromagnetism and Waves</text>
</g>
<!-- PHYS 2325&#45;&gt;PHYS 2326 -->
<g id="edge11" class="edge">
<title>PHYS 2325&#45;&gt;PHYS 2326</title>
<path fill="none" stroke="black" d="M356.23,-766.23C347.9,-740.51 333.94,-697.41 324.42,-668.04"/>
<polygon fill="black" stroke="black" points="327.67,-666.71 321.26,-658.28 321.01,-668.87 327.67,-666.71"/>
</g>
<!-- CS 2305&#45;&gt;SE 2340 -->
<g id="edge9" class="edge">
<title>CS 2305&#45;&gt;SE 2340</title>
<path fill="none" stroke="black" d="M1354.79,-769.2C1508.55,-739.73 1805.16,-682.86 1954.95,-654.15"/>
<polygon fill="black" stroke="black" points="1955.88,-657.53 1965.04,-652.21 1954.56,-650.66 1955.88,-657.53"/>
</g>
<!-- SE 3306 -->
<g id="node17" class="node">
<title>SE 3306</title>
<ellipse fill="#b2dfee" stroke="red" stroke-width="7" cx="1240.25" cy="-635.65" rx="163.18" ry="22.76"/>
<text text-anchor="middle" x="1240.25" y="-639.45" font-family="Times,serif" font-size="14.00">SE 3306</text>
<text text-anchor="middle" x="1240.25" y="-624.45" font-family="Times,serif" font-size="14.00">Mathematics Foundations of SE</text>
</g>
<!-- CS 2305&#45;&gt;SE 3306 -->
<g id="edge14" class="edge">
<title>CS 2305&#45;&gt;SE 3306</title>
<path fill="none" stroke="black" d="M1254.81,-766.23C1251.94,-740.62 1247.12,-697.79 1243.82,-668.43"/>
<polygon fill="black" stroke="black" points="1247.28,-667.82 1242.68,-658.28 1240.32,-668.61 1247.28,-667.82"/>
</g>
<!-- CS 2305&#45;&gt;SE 3341 -->
<g id="edge16" class="edge">
<title>CS 2305&#45;&gt;SE 3341</title>
<path fill="none" stroke="black" d="M1206.61,-767.03C1139.42,-739.34 1021.03,-690.55 949.69,-661.14"/>
<polygon fill="black" stroke="black" points="950.95,-657.88 940.37,-657.31 948.29,-664.35 950.95,-657.88"/>
</g>
<!-- SE 3345 -->
<g id="node19" class="node">
<title>SE 3345</title>
<ellipse fill="#b2dfee" stroke="red" stroke-width="7" cx="1665.25" cy="-635.65" rx="243.9" ry="22.76"/>
<text text-anchor="middle" x="1665.25" y="-639.45" font-family="Times,serif" font-size="14.00">SE 3345</text>
<text text-anchor="middle" x="1665.25" y="-624.45" font-family="Times,serif" font-size="14.00">Data Structures &amp; Intro to Algorithmic Analysis</text>
</g>
<!-- CS 2305&#45;&gt;SE 3345 -->
<g id="edge18" class="edge">
<title>CS 2305&#45;&gt;SE 3345</title>
<path fill="none" stroke="black" d="M1313.12,-767.19C1387.68,-739.55 1519.5,-690.68 1598.98,-661.21"/>
<polygon fill="black" stroke="black" points="1600.25,-664.48 1608.41,-657.72 1597.82,-657.91 1600.25,-664.48"/>
</g>
<!-- SE 3354 -->
<g id="node23" class="node">
<title>SE 3354</title>
<ellipse fill="#b2dfee" stroke="red" stroke-width="7" cx="2712.25" cy="-635.65" rx="112.36" ry="22.76"/>
<text text-anchor="middle" x="2712.25" y="-639.45" font-family="Times,serif" font-size="14.00">SE 3354</text>
<text text-anchor="middle" x="2712.25" y="-624.45" font-family="Times,serif" font-size="14.00">Software Engineering</text>
</g>
<!-- CS 2305&#45;&gt;SE 3354 -->
<g id="edge22" class="edge">
<title>CS 2305&#45;&gt;SE 3354</title>
<path fill="none" stroke="black" d="M1420.09,-776.21C1671.74,-757.21 2169.98,-715.87 2590.25,-658.27 2600.77,-656.83 2611.78,-655.14 2622.68,-653.35"/>
<polygon fill="black" stroke="black" points="2623.37,-656.79 2632.66,-651.68 2622.22,-649.88 2623.37,-656.79"/>
</g>
<!-- CS 2337&#45;&gt;SE 3345 -->
<g id="edge19" class="edge">
<title>CS 2337&#45;&gt;SE 3345</title>
<path fill="none" stroke="black" d="M1901.72,-767.66C1853.09,-740.72 1767.02,-693.03 1713.21,-663.22"/>
<polygon fill="black" stroke="black" points="1714.66,-660.02 1704.21,-658.23 1711.26,-666.14 1714.66,-660.02"/>
</g>
<!-- SE 3377 -->
<g id="node20" class="node">
<title>SE 3377</title>
<ellipse fill="yellow" stroke="black" cx="2382.25" cy="-635.65" rx="199.31" ry="22.76"/>
<text text-anchor="middle" x="2382.25" y="-639.45" font-family="Times,serif" font-size="14.00">SE 3377</text>
<text text-anchor="middle" x="2382.25" y="-624.45" font-family="Times,serif" font-size="14.00">C/C++ Programming in a UNIX Envirn</text>
</g>
<!-- CS 2337&#45;&gt;SE 3377 -->
<g id="edge20" class="edge">
<title>CS 2337&#45;&gt;SE 3377</title>
<path fill="none" stroke="black" d="M1992.25,-769.51C2072.44,-742.19 2223.07,-690.87 2311.82,-660.64"/>
<polygon fill="black" stroke="black" points="2313.2,-663.87 2321.54,-657.33 2310.94,-657.24 2313.2,-663.87"/>
</g>
<!-- CS 2337&#45;&gt;SE 3354 -->
<g id="edge23" class="edge">
<title>CS 2337&#45;&gt;SE 3354</title>
<path fill="none" stroke="black" d="M2013.87,-773.12C2157.92,-744.97 2470.93,-683.81 2624.16,-653.86"/>
<polygon fill="black" stroke="black" points="2624.88,-657.29 2634.02,-651.93 2623.53,-650.42 2624.88,-657.29"/>
</g>
<!-- SE 4348 -->
<g id="node24" class="node">
<title>SE 4348</title>
<ellipse fill="#b2dfee" stroke="red" stroke-width="7" cx="2061.25" cy="-482.39" rx="148.48" ry="22.76"/>
<text text-anchor="middle" x="2061.25" y="-486.19" font-family="Times,serif" font-size="14.00">SE 4348</text>
<text text-anchor="middle" x="2061.25" y="-471.19" font-family="Times,serif" font-size="14.00">Operating Systems Concepts</text>
</g>
<!-- SE 2340&#45;&gt;SE 4348 -->
<g id="edge25" class="edge">
<title>SE 2340&#45;&gt;SE 4348</title>
<path fill="none" stroke="black" d="M2048.4,-612.98C2050.94,-587.37 2055.19,-544.54 2058.1,-515.17"/>
<polygon fill="black" stroke="black" points="2061.6,-515.32 2059.1,-505.02 2054.63,-514.63 2061.6,-515.32"/>
</g>
<!-- PHYS 2126 -->
<g id="node15" class="node">
<title>PHYS 2126</title>
<ellipse fill="#b2dfee" stroke="black" cx="594.25" cy="-635.65" rx="109.7" ry="22.76"/>
<text text-anchor="middle" x="594.25" y="-639.45" font-family="Times,serif" font-size="14.00">PHYS 2126</text>
<text text-anchor="middle" x="594.25" y="-624.45" font-family="Times,serif" font-size="14.00">Physics Laboratory II</text>
</g>
<!-- PHYS 2326&#45;&gt;PHYS 2126 -->
<g id="edge12" class="edge">
<title>PHYS 2326&#45;&gt;PHYS 2126</title>
<path fill="none" stroke="black" stroke-dasharray="5,2" d="M466.28,-635.65C468.91,-635.65 471.53,-635.65 474.15,-635.65"/>
<polygon fill="black" stroke="black" points="474.28,-639.15 484.28,-635.65 474.28,-632.15 474.28,-639.15"/>
</g>
<!-- MATH 2418&#45;&gt;SE 3341 -->
<g id="edge17" class="edge">
<title>MATH 2418&#45;&gt;SE 3341</title>
<path fill="none" stroke="black" d="M807.8,-766.55C824.29,-740.57 852.24,-696.54 870.96,-667.03"/>
<polygon fill="black" stroke="black" points="874.05,-668.7 876.46,-658.38 868.14,-664.95 874.05,-668.7"/>
</g>
<!-- SE 4351 -->
<g id="node28" class="node">
<title>SE 4351</title>
<ellipse fill="#b2dfee" stroke="black" cx="1347.25" cy="-482.39" rx="137.77" ry="22.76"/>
<text text-anchor="middle" x="1347.25" y="-486.19" font-family="Times,serif" font-size="14.00">SE 4351</text>
<text text-anchor="middle" x="1347.25" y="-471.19" font-family="Times,serif" font-size="14.00">Requirements Engineering</text>
</g>
<!-- SE 3306&#45;&gt;SE 4351 -->
<g id="edge31" class="edge">
<title>SE 3306&#45;&gt;SE 4351</title>
<path fill="none" stroke="black" d="M1255.58,-612.98C1274.09,-586.81 1305.33,-542.65 1326.12,-513.26"/>
<polygon fill="black" stroke="black" points="1329.03,-515.21 1331.95,-505.02 1323.32,-511.17 1329.03,-515.21"/>
</g>
<!-- SE 4367 -->
<g id="node29" class="node">
<title>SE 4367</title>
<ellipse fill="#b2dfee" stroke="red" stroke-width="7" cx="1725.25" cy="-482.39" rx="169.91" ry="22.76"/>
<text text-anchor="middle" x="1725.25" y="-486.19" font-family="Times,serif" font-size="14.00">SE 4367</text>
<text text-anchor="middle" x="1725.25" y="-471.19" font-family="Times,serif" font-size="14.00">Software Testing, Verif, Valid, QA</text>
</g>
<!-- SE 3306&#45;&gt;SE 4367 -->
<g id="edge33" class="edge">
<title>SE 3306&#45;&gt;SE 4367</title>
<path fill="none" stroke="black" d="M1303.9,-614.8C1393.51,-586.85 1556.47,-536.03 1651.32,-506.45"/>
<polygon fill="black" stroke="black" points="1652.63,-509.71 1661.13,-503.39 1650.54,-503.02 1652.63,-509.71"/>
</g>
<!-- SE 3345&#45;&gt;SE 4348 -->
<g id="edge26" class="edge">
<title>SE 3345&#45;&gt;SE 4348</title>
<path fill="none" stroke="black" d="M1720.73,-613.46C1793.91,-585.5 1922.35,-536.45 1998.84,-507.23"/>
<polygon fill="black" stroke="black" points="2000.27,-510.43 2008.36,-503.59 1997.77,-503.89 2000.27,-510.43"/>
</g>
<!-- SE 3345&#45;&gt;SE 4351 -->
<g id="edge32" class="edge">
<title>SE 3345&#45;&gt;SE 4351</title>
<path fill="none" stroke="black" d="M1620.36,-613.3C1562.23,-585.64 1461.07,-537.53 1399.53,-508.26"/>
<polygon fill="black" stroke="black" points="1400.91,-505.04 1390.38,-503.91 1397.91,-511.36 1400.91,-505.04"/>
</g>
<!-- SE 3377&#45;&gt;SE 4348 -->
<g id="edge27" class="edge">
<title>SE 3377&#45;&gt;SE 4348</title>
<path fill="none" stroke="black" d="M2337.28,-613.46C2278.77,-585.89 2176.69,-537.79 2114.41,-508.44"/>
<polygon fill="black" stroke="black" points="2115.68,-505.17 2105.15,-504.08 2112.7,-511.5 2115.68,-505.17"/>
</g>
<!-- ECS 2390 -->
<g id="node21" class="node">
<title>ECS 2390</title>
<ellipse fill="yellow" stroke="black" cx="2090.25" cy="-942.16" rx="208.69" ry="22.76"/>
<text text-anchor="middle" x="2090.25" y="-945.96" font-family="Times,serif" font-size="14.00">ECS 2390</text>
<text text-anchor="middle" x="2090.25" y="-930.96" font-family="Times,serif" font-size="14.00">Professional &amp; Technical Communication</text>
</g>
<!-- ECS 2390&#45;&gt;SE 3354 -->
<g id="edge24" class="edge">
<title>ECS 2390&#45;&gt;SE 3354</title>
<path fill="none" stroke="black" d="M2087.86,-919.48C2085.1,-882.64 2085.35,-807.78 2126.25,-766.27 2143.76,-748.5 2463.13,-684.76 2622.84,-653.78"/>
<polygon fill="black" stroke="black" points="2623.97,-657.13 2633.13,-651.79 2622.64,-650.26 2623.97,-657.13"/>
</g>
<!-- SE 3162 -->
<g id="node25" class="node">
<title>SE 3162</title>
<ellipse fill="#b2dfee" stroke="black" cx="2322.25" cy="-788.9" rx="186.85" ry="22.76"/>
<text text-anchor="middle" x="2322.25" y="-792.7" font-family="Times,serif" font-size="14.00">SE 3162</text>
<text text-anchor="middle" x="2322.25" y="-777.7" font-family="Times,serif" font-size="14.00">Professional Responsibility in CS/SE</text>
</g>
<!-- ECS 2390&#45;&gt;SE 3162 -->
<g id="edge28" class="edge">
<title>ECS 2390&#45;&gt;SE 3162</title>
<path fill="none" stroke="black" d="M2123,-919.81C2164.42,-892.8 2235.77,-846.28 2280.91,-816.85"/>
<polygon fill="black" stroke="black" points="2282.83,-819.78 2289.29,-811.39 2279.01,-813.92 2282.83,-819.78"/>
</g>
<!-- RHET 1302 -->
<g id="node22" class="node">
<title>RHET 1302</title>
<ellipse fill="lightgreen" stroke="black" cx="1198.25" cy="-1095.41" rx="112.36" ry="22.76"/>
<text text-anchor="middle" x="1198.25" y="-1099.21" font-family="Times,serif" font-size="14.00">RHET 1302 &#45; Transfer</text>
<text text-anchor="middle" x="1198.25" y="-1084.21" font-family="Times,serif" font-size="14.00">Core: 010</text>
</g>
<!-- RHET 1302&#45;&gt;ECS 2390 -->
<g id="edge21" class="edge">
<title>RHET 1302&#45;&gt;ECS 2390</title>
<path fill="none" stroke="black" d="M1279.59,-1079.75C1292.84,-1077.4 1306.42,-1075.01 1319.25,-1072.78 1549.01,-1032.94 1817.63,-988.19 1969.47,-963.07"/>
<polygon fill="black" stroke="black" points="1970.45,-966.45 1979.75,-961.37 1969.31,-959.55 1970.45,-966.45"/>
</g>
<!-- SE 4381 -->
<g id="node27" class="node">
<title>SE 4381</title>
<ellipse fill="#b2dfee" stroke="black" cx="2619.25" cy="-329.14" rx="183.28" ry="22.76"/>
<text text-anchor="middle" x="2619.25" y="-332.94" font-family="Times,serif" font-size="14.00">SE 4381</text>
<text text-anchor="middle" x="2619.25" y="-317.94" font-family="Times,serif" font-size="14.00">Software Project Planning &amp; Mgmt.</text>
</g>
<!-- SE 3354&#45;&gt;SE 4381 -->
<g id="edge30" class="edge">
<title>SE 3354&#45;&gt;SE 4381</title>
<path fill="none" stroke="black" d="M2705.56,-612.75C2689.31,-559.53 2647.68,-423.24 2628.81,-361.44"/>
<polygon fill="black" stroke="black" points="2632.15,-360.38 2625.88,-351.84 2625.45,-362.42 2632.15,-360.38"/>
</g>
<!-- SE 3354&#45;&gt;SE 4367 -->
<g id="edge34" class="edge">
<title>SE 3354&#45;&gt;SE 4367</title>
<path fill="none" stroke="black" d="M2630.93,-619.92C2617.35,-617.55 2603.41,-615.17 2590.25,-613.02 2326.27,-569.85 2016.02,-524.71 1848.17,-500.76"/>
<polygon fill="black" stroke="black" points="1848.45,-497.26 1838.06,-499.32 1847.47,-504.19 1848.45,-497.26"/>
</g>
<!-- CS 4397 -->
<g id="node32" class="node">
<title>CS 4397</title>
<ellipse fill="#b2dfee" stroke="black" cx="2068.25" cy="-329.14" rx="110.12" ry="22.76"/>
<text text-anchor="middle" x="2068.25" y="-332.94" font-family="Times,serif" font-size="14.00">CS 4397</text>
<text text-anchor="middle" x="2068.25" y="-317.94" font-family="Times,serif" font-size="14.00">SE Technical Elective</text>
</g>
<!-- SE 4348&#45;&gt;CS 4397 -->
<g id="edge38" class="edge">
<title>SE 4348&#45;&gt;CS 4397</title>
<path fill="none" stroke="black" d="M2062.25,-459.72C2063.44,-434.11 2065.42,-391.28 2066.78,-361.92"/>
<polygon fill="black" stroke="black" points="2070.28,-361.92 2067.25,-351.77 2063.29,-361.6 2070.28,-361.92"/>
</g>
<!-- FAST TRACK -->
<g id="node41" class="node">
<title>FAST TRACK</title>
<ellipse fill="#b2dfee" stroke="red" stroke-width="7" cx="1733.25" cy="-329.14" rx="206.45" ry="22.76"/>
<text text-anchor="middle" x="1733.25" y="-332.94" font-family="Times,serif" font-size="14.00">FAST TRACK</text>
<text text-anchor="middle" x="1733.25" y="-317.94" font-family="Times,serif" font-size="14.00">Fast Track Program Benchmark Courses</text>
</g>
<!-- SE 4348&#45;&gt;FAST TRACK -->
<g id="edge39" class="edge">
<title>SE 4348&#45;&gt;FAST TRACK</title>
<path fill="none" stroke="black" d="M2016.33,-460.68C1956.88,-433.26 1852.14,-384.96 1788.09,-355.43"/>
<polygon fill="black" stroke="black" points="1789.49,-352.22 1778.94,-351.21 1786.56,-358.57 1789.49,-352.22"/>
</g>
<!-- GOVT 2305 -->
<g id="node26" class="node">
<title>GOVT 2305</title>
<ellipse fill="lightgreen" stroke="black" cx="1445.25" cy="-1095.41" rx="116.85" ry="22.76"/>
<text text-anchor="middle" x="1445.25" y="-1099.21" font-family="Times,serif" font-size="14.00">GOVT 2305 &#45; 2025 Fall</text>
<text text-anchor="middle" x="1445.25" y="-1084.21" font-family="Times,serif" font-size="14.00">Core: 070</text>
</g>
<!-- GOVT 2305&#45;&gt;SE 3162 -->
<g id="edge29" class="edge">
<title>GOVT 2305&#45;&gt;SE 3162</title>
<path fill="none" stroke="black" d="M1529.24,-1079.7C1543.26,-1077.33 1557.66,-1074.95 1571.25,-1072.78 1734.72,-1046.78 2195.11,-1085.61 2308.25,-964.78 2344.08,-926.52 2338.06,-860.65 2330.27,-821.6"/>
<polygon fill="black" stroke="black" points="2333.69,-820.85 2328.16,-811.81 2326.84,-822.32 2333.69,-820.85"/>
</g>
<!-- SE 4485 -->
<g id="node30" class="node">
<title>SE 4485</title>
<ellipse fill="#b2dfee" stroke="black" cx="2339.25" cy="-22.63" rx="152.06" ry="22.76"/>
<text text-anchor="middle" x="2339.25" y="-26.43" font-family="Times,serif" font-size="14.00">SE 4485</text>
<text text-anchor="middle" x="2339.25" y="-11.43" font-family="Times,serif" font-size="14.00">Software Engineering Project</text>
</g>
<!-- SE 4381&#45;&gt;SE 4485 -->
<g id="edge35" class="edge">
<title>SE 4381&#45;&gt;SE 4485</title>
<path fill="none" stroke="black" d="M2617.78,-306.41C2614.35,-270.81 2603.04,-199.39 2566.25,-153.25 2525.65,-102.33 2459.24,-67.77 2408.71,-47.22"/>
<polygon fill="black" stroke="black" points="2409.74,-43.87 2399.15,-43.43 2407.15,-50.37 2409.74,-43.87"/>
</g>
<!-- SE 4351&#45;&gt;SE 4485 -->
<g id="edge36" class="edge">
<title>SE 4351&#45;&gt;SE 4485</title>
<path fill="none" stroke="black" d="M1340.24,-459.44C1323.06,-400.94 1285.89,-239.83 1366.25,-153.25 1490.09,-19.84 1997.82,-69.37 2178.25,-45.25 2191.63,-43.47 2205.64,-41.59 2219.58,-39.72"/>
<polygon fill="black" stroke="black" points="2220.25,-43.16 2229.7,-38.36 2219.32,-36.22 2220.25,-43.16"/>
</g>
<!-- SE 4367&#45;&gt;FAST TRACK -->
<g id="edge40" class="edge">
<title>SE 4367&#45;&gt;FAST TRACK</title>
<path fill="none" stroke="black" d="M1726.4,-459.72C1727.75,-434.11 1730.02,-391.28 1731.57,-361.92"/>
<polygon fill="black" stroke="black" points="1735.07,-361.94 1732.11,-351.77 1728.08,-361.57 1735.07,-361.94"/>
</g>
<!-- SE 6362 -->
<g id="node31" class="node">
<title>SE 6362</title>
<ellipse fill="#b2dfee" stroke="black" cx="2325.25" cy="-175.88" rx="231.86" ry="22.76"/>
<text text-anchor="middle" x="2325.25" y="-179.68" font-family="Times,serif" font-size="14.00">SE 6362 (SE 4352)</text>
<text text-anchor="middle" x="2325.25" y="-164.68" font-family="Times,serif" font-size="14.00">Architecture and Design *(Approval Needed)*</text>
</g>
<!-- SE 6362&#45;&gt;SE 4485 -->
<g id="edge37" class="edge">
<title>SE 6362&#45;&gt;SE 4485</title>
<path fill="none" stroke="black" d="M2327.26,-153.21C2329.63,-127.6 2333.59,-84.77 2336.31,-55.41"/>
<polygon fill="black" stroke="black" points="2339.81,-55.54 2337.25,-45.26 2332.84,-54.89 2339.81,-55.54"/>
</g>
<!-- GOVT 2306 -->
<g id="node33" class="node">
<title>GOVT 2306</title>
<ellipse fill="yellow" stroke="black" cx="1639.25" cy="-1095.41" rx="59.29" ry="22.76"/>
<text text-anchor="middle" x="1639.25" y="-1099.21" font-family="Times,serif" font-size="14.00">GOVT 2306</text>
<text text-anchor="middle" x="1639.25" y="-1084.21" font-family="Times,serif" font-size="14.00">Core: 070</text>
</g>
<!-- HIST 1301 -->
<g id="node34" class="node">
<title>HIST 1301</title>
<ellipse fill="yellow" stroke="black" cx="1772.25" cy="-1095.41" rx="55.72" ry="22.76"/>
<text text-anchor="middle" x="1772.25" y="-1099.21" font-family="Times,serif" font-size="14.00">HIST 1301</text>
<text text-anchor="middle" x="1772.25" y="-1084.21" font-family="Times,serif" font-size="14.00">Core: 060</text>
</g>
<!-- HIST 1302 -->
<g id="node35" class="node">
<title>HIST 1302</title>
<ellipse fill="yellow" stroke="black" cx="1902.25" cy="-1095.41" rx="55.72" ry="22.76"/>
<text text-anchor="middle" x="1902.25" y="-1099.21" font-family="Times,serif" font-size="14.00">HIST 1302</text>
<text text-anchor="middle" x="1902.25" y="-1084.21" font-family="Times,serif" font-size="14.00">Core: 060</text>
</g>
<!-- HIST 2322 -->
<g id="node36" class="node">
<title>HIST 2322</title>
<ellipse fill="lightgreen" stroke="black" cx="2084.25" cy="-1095.41" rx="108.38" ry="22.76"/>
<text text-anchor="middle" x="2084.25" y="-1099.21" font-family="Times,serif" font-size="14.00">HIST 2322 &#45; Transfer</text>
<text text-anchor="middle" x="2084.25" y="-1084.21" font-family="Times,serif" font-size="14.00">Core: 040</text>
</g>
<!-- THEA 1310 -->
<g id="node37" class="node">
<title>THEA 1310</title>
<ellipse fill="yellow" stroke="black" cx="2270.25" cy="-1095.41" rx="59.29" ry="22.76"/>
<text text-anchor="middle" x="2270.25" y="-1099.21" font-family="Times,serif" font-size="14.00">THEA 1310</text>
<text text-anchor="middle" x="2270.25" y="-1084.21" font-family="Times,serif" font-size="14.00">Core: 050</text>
</g>
<!-- GEOG 2303 -->
<g id="node38" class="node">
<title>GEOG 2303</title>
<ellipse fill="lightgreen" stroke="black" cx="2462.25" cy="-1095.41" rx="114.6" ry="22.76"/>
<text text-anchor="middle" x="2462.25" y="-1099.21" font-family="Times,serif" font-size="14.00">GEOG 2303 &#45; Transfer</text>
<text text-anchor="middle" x="2462.25" y="-1084.21" font-family="Times,serif" font-size="14.00">Core: 080</text>
</g>
<!-- MATH 1316 -->
<g id="node39" class="node">
<title>MATH 1316</title>
<ellipse fill="lightgreen" stroke="black" cx="2709.25" cy="-1095.41" rx="114.6" ry="22.76"/>
<text text-anchor="middle" x="2709.25" y="-1099.21" font-family="Times,serif" font-size="14.00">MATH 1316 &#45; Transfer</text>
<text text-anchor="middle" x="2709.25" y="-1084.21" font-family="Times,serif" font-size="14.00">Free Elective</text>
</g>
<!-- RHET 1301 -->
<g id="node40" class="node">
<title>RHET 1301</title>
<ellipse fill="lightgreen" stroke="black" cx="2954.25" cy="-1095.41" rx="112.36" ry="22.76"/>
<text text-anchor="middle" x="2954.25" y="-1099.21" font-family="Times,serif" font-size="14.00">RHET 1301 &#45; Transfer</text>
<text text-anchor="middle" x="2954.25" y="-1084.21" font-family="Times,serif" font-size="14.00">Free Elective</text>
</g>
<!-- FAST TRACK&#45;&gt;SE 6362 -->
<g id="edge43" class="edge">
<title>FAST TRACK&#45;&gt;SE 6362</title>
<path fill="none" stroke="black" d="M1811.56,-308.13C1921.33,-280.08 2120.43,-229.21 2235.87,-199.72"/>
<polygon fill="black" stroke="black" points="2236.92,-203.06 2245.75,-197.2 2235.19,-196.28 2236.92,-203.06"/>
</g>
<!-- SE 6329 -->
<g id="node42" class="node">
<title>SE 6329</title>
<ellipse fill="#b2dfee" stroke="black" cx="1496.25" cy="-175.88" rx="120.83" ry="22.76"/>
<text text-anchor="middle" x="1496.25" y="-179.68" font-family="Times,serif" font-size="14.00">SE 6329 (SE 4376)</text>
<text text-anchor="middle" x="1496.25" y="-164.68" font-family="Times,serif" font-size="14.00">Object Oriented Design</text>
</g>
<!-- FAST TRACK&#45;&gt;SE 6329 -->
<g id="edge41" class="edge">
<title>FAST TRACK&#45;&gt;SE 6329</title>
<path fill="none" stroke="black" d="M1699.8,-306.79C1657.24,-279.63 1583.76,-232.73 1537.7,-203.34"/>
<polygon fill="black" stroke="black" points="1539.46,-200.31 1529.15,-197.88 1535.7,-206.21 1539.46,-200.31"/>
</g>
<!-- CS 6360 -->
<g id="node43" class="node">
<title>CS 6360</title>
<ellipse fill="#b2dfee" stroke="black" cx="1733.25" cy="-175.88" rx="98.08" ry="22.76"/>
<text text-anchor="middle" x="1733.25" y="-179.68" font-family="Times,serif" font-size="14.00">CS 6360 (SE 4347)</text>
<text text-anchor="middle" x="1733.25" y="-164.68" font-family="Times,serif" font-size="14.00">Database Systems</text>
</g>
<!-- FAST TRACK&#45;&gt;CS 6360 -->
<g id="edge42" class="edge">
<title>FAST TRACK&#45;&gt;CS 6360</title>
<path fill="none" stroke="black" d="M1733.25,-306.47C1733.25,-280.86 1733.25,-238.03 1733.25,-208.66"/>
<polygon fill="black" stroke="black" points="1736.75,-208.51 1733.25,-198.51 1729.75,-208.51 1736.75,-208.51"/>
</g>
<!-- CS 5349 -->
<g id="node45" class="node">
<title>CS 5349</title>
<ellipse fill="#b2dfee" stroke="black" cx="1948.25" cy="-175.88" rx="98.08" ry="22.76"/>
<text text-anchor="middle" x="1948.25" y="-179.68" font-family="Times,serif" font-size="14.00">CS 5349 (CS 4384)</text>
<text text-anchor="middle" x="1948.25" y="-164.68" font-family="Times,serif" font-size="14.00">Automata Theory</text>
</g>
<!-- FAST TRACK&#45;&gt;CS 5349 -->
<g id="edge45" class="edge">
<title>FAST TRACK&#45;&gt;CS 5349</title>
<path fill="none" stroke="black" d="M1764.05,-306.47C1802.73,-279.26 1869.03,-232.62 1910.65,-203.33"/>
<polygon fill="black" stroke="black" points="1912.72,-206.16 1918.88,-197.54 1908.69,-200.43 1912.72,-206.16"/>
</g>
<!-- CS 6371 -->
<g id="node44" class="node">
<title>CS 6371</title>
<ellipse fill="#b2dfee" stroke="black" cx="1933.25" cy="-22.63" rx="236.35" ry="22.76"/>
<text text-anchor="middle" x="1933.25" y="-26.43" font-family="Times,serif" font-size="14.00">CS 6371 (CS 4337)</text>
<text text-anchor="middle" x="1933.25" y="-11.43" font-family="Times,serif" font-size="14.00">Programming Languages *(Approval Needed)*</text>
</g>
<!-- CS 5349&#45;&gt;CS 6371 -->
<g id="edge44" class="edge">
<title>CS 5349&#45;&gt;CS 6371</title>
<path fill="none" stroke="black" d="M1946.1,-153.21C1943.56,-127.6 1939.31,-84.77 1936.4,-55.41"/>
<polygon fill="black" stroke="black" points="1939.86,-54.86 1935.39,-45.26 1932.9,-55.55 1939.86,-54.86"/>
</g>
<!-- degree -->
<g id="node46" class="node">
<title>degree</title>
<ellipse fill="orangered" stroke="black" cx="1705.25" cy="-1244.04" rx="104.24" ry="18"/>
<text text-anchor="middle" x="1705.25" y="-1240.34" font-family="Times,serif" font-size="14.00">B.S. in Computer Science</text>
</g>
<!-- degree&#45;&gt;ECS 1100 -->
<g id="edge46" class="edge">
<title>degree&#45;&gt;ECS 1100</title>
<path fill="none" stroke="black" d="M1610.74,-1236.35C1383.86,-1219.92 790.64,-1174.77 297.25,-1118.04 283.85,-1116.5 269.8,-1114.73 255.89,-1112.88"/>
<polygon fill="black" stroke="black" points="256.17,-1109.38 245.79,-1111.52 255.24,-1116.32 256.17,-1109.38"/>
</g>
<!-- degree&#45;&gt;CS 1200 -->
<g id="edge47" class="edge">
<title>degree&#45;&gt;CS 1200</title>
<path fill="none" stroke="black" d="M1611.4,-1236.02C1410.31,-1220.35 923.19,-1179.04 518.25,-1118.04 509.04,-1116.65 499.42,-1115.03 489.88,-1113.3"/>
<polygon fill="black" stroke="black" points="490.45,-1109.85 479.98,-1111.47 489.18,-1116.73 490.45,-1109.85"/>
</g>
<!-- degree&#45;&gt;MATH 2312 -->
<g id="edge48" class="edge">
<title>degree&#45;&gt;MATH 2312</title>
<path fill="none" stroke="black" d="M1622.19,-1233.12C1458.24,-1213.3 1081.6,-1166.51 766.25,-1118.04 756.02,-1116.47 745.33,-1114.74 734.7,-1112.96"/>
<polygon fill="black" stroke="black" points="734.99,-1109.46 724.55,-1111.24 733.83,-1116.36 734.99,-1109.46"/>
</g>
<!-- degree&#45;&gt;CS 1436 -->
<g id="edge49" class="edge">
<title>degree&#45;&gt;CS 1436</title>
<path fill="none" stroke="black" d="M1637.39,-1230.35C1498.93,-1204.45 1183.32,-1145.42 1021.29,-1115.12"/>
<polygon fill="black" stroke="black" points="1021.79,-1111.65 1011.32,-1113.26 1020.51,-1118.54 1021.79,-1111.65"/>
</g>
<!-- degree&#45;&gt;RHET 1302 -->
<g id="edge50" class="edge">
<title>degree&#45;&gt;RHET 1302</title>
<path fill="none" stroke="black" d="M1654.32,-1228.31C1563.58,-1202.07 1373.76,-1147.17 1269.91,-1117.13"/>
<polygon fill="black" stroke="black" points="1270.71,-1113.72 1260.13,-1114.31 1268.76,-1120.45 1270.71,-1113.72"/>
</g>
<!-- degree&#45;&gt;GOVT 2305 -->
<g id="edge51" class="edge">
<title>degree&#45;&gt;GOVT 2305</title>
<path fill="none" stroke="black" d="M1676.18,-1226.65C1631.09,-1201.21 1543.91,-1152.05 1490.52,-1121.94"/>
<polygon fill="black" stroke="black" points="1492.04,-1118.78 1481.61,-1116.92 1488.6,-1124.88 1492.04,-1118.78"/>
</g>
<!-- degree&#45;&gt;GOVT 2306 -->
<g id="edge52" class="edge">
<title>degree&#45;&gt;GOVT 2306</title>
<path fill="none" stroke="black" d="M1697.55,-1225.93C1686.69,-1201.8 1666.69,-1157.37 1653.18,-1127.35"/>
<polygon fill="black" stroke="black" points="1656.34,-1125.84 1649.04,-1118.16 1649.95,-1128.72 1656.34,-1125.84"/>
</g>
<!-- degree&#45;&gt;HIST 1301 -->
<g id="edge53" class="edge">
<title>degree&#45;&gt;HIST 1301</title>
<path fill="none" stroke="black" d="M1713.07,-1225.93C1724.09,-1201.8 1744.4,-1157.37 1758.11,-1127.35"/>
<polygon fill="black" stroke="black" points="1761.34,-1128.71 1762.31,-1118.16 1754.97,-1125.8 1761.34,-1128.71"/>
</g>
<!-- degree&#45;&gt;HIST 1302 -->
<g id="edge54" class="edge">
<title>degree&#45;&gt;HIST 1302</title>
<path fill="none" stroke="black" d="M1727.85,-1226.22C1762.29,-1200.59 1828.14,-1151.57 1868.33,-1121.66"/>
<polygon fill="black" stroke="black" points="1870.57,-1124.36 1876.5,-1115.58 1866.39,-1118.74 1870.57,-1124.36"/>
</g>
<!-- degree&#45;&gt;HIST 2322 -->
<g id="edge55" class="edge">
<title>degree&#45;&gt;HIST 2322</title>
<path fill="none" stroke="black" d="M1745.81,-1227.35C1812.93,-1201.38 1947.38,-1149.36 2025.09,-1119.3"/>
<polygon fill="black" stroke="black" points="2026.68,-1122.44 2034.74,-1115.56 2024.16,-1115.91 2026.68,-1122.44"/>
</g>
<!-- degree&#45;&gt;THEA 1310 -->
<g id="edge56" class="edge">
<title>degree&#45;&gt;THEA 1310</title>
<path fill="none" stroke="black" d="M1764.71,-1229.21C1858.09,-1207.23 2044.65,-1162.28 2201.25,-1118.04 2206.18,-1116.65 2211.3,-1115.15 2216.41,-1113.61"/>
<polygon fill="black" stroke="black" points="2217.64,-1116.89 2226.19,-1110.63 2215.6,-1110.2 2217.64,-1116.89"/>
</g>
<!-- degree&#45;&gt;GEOG 2303 -->
<g id="edge57" class="edge">
<title>degree&#45;&gt;GEOG 2303</title>
<path fill="none" stroke="black" d="M1771.77,-1230.15C1908.12,-1203.74 2219.43,-1143.45 2373.08,-1113.68"/>
<polygon fill="black" stroke="black" points="2373.82,-1117.1 2382.97,-1111.77 2372.49,-1110.23 2373.82,-1117.1"/>
</g>
<!-- degree&#45;&gt;MATH 1316 -->
<g id="edge58" class="edge">
<title>degree&#45;&gt;MATH 1316</title>
<path fill="none" stroke="black" d="M1785.86,-1232.51C1941.04,-1212.04 2291.98,-1164.77 2586.25,-1118.04 2596.23,-1116.45 2606.65,-1114.73 2617.03,-1112.97"/>
<polygon fill="black" stroke="black" points="2617.67,-1116.41 2626.94,-1111.27 2616.49,-1109.51 2617.67,-1116.41"/>
</g>
<!-- degree&#45;&gt;RHET 1301 -->
<g id="edge59" class="edge">
<title>degree&#45;&gt;RHET 1301</title>
<path fill="none" stroke="black" d="M1795.8,-1235.07C1987.62,-1217.72 2448.85,-1173.63 2833.25,-1118.04 2843.41,-1116.57 2854.03,-1114.89 2864.57,-1113.13"/>
<polygon fill="black" stroke="black" points="2865.37,-1116.54 2874.64,-1111.42 2864.2,-1109.64 2865.37,-1116.54"/>
</g>
</g>
</svg>
