<?xml version="1.0" encoding="UTF-8" standalone="no"?>
<!DOCTYPE svg PUBLIC "-//W3C//DTD SVG 1.1//EN"
 "http://www.w3.org/Graphics/SVG/1.1/DTD/svg11.dtd">
<!-- Generated by graphviz version 2.43.0 (0)
 -->
<!-- Title: graph_name Pages: 1 -->
<svg width="864pt" height="505pt"
 viewBox="36.00 54.00 828.00 450.82" xmlns="http://www.w3.org/2000/svg" xmlns:xlink="http://www.w3.org/1999/xlink">
<g id="graph0" class="graph" transform="scale(0.29 0.29) rotate(0) translate(126.2 1526.35)">
<title>graph_name</title>
<polygon fill="white" stroke="transparent" points="-4,4 -4,-1343.04 2684.5,-1343.04 2684.5,4 -4,4"/>
<text text-anchor="middle" x="1340.25" y="-1311.04" font-family="Times,serif" font-size="30.00">Degree Plan</text>
<!-- ECS 1100 -->
<g id="node1" class="node">
<title>ECS 1100</title>
<ellipse fill="lightgreen" stroke="black" cx="211.07" cy="-1095.41" rx="144.5" ry="22.76"/>
<text text-anchor="middle" x="211.07" y="-1099.21" font-family="Times,serif" font-size="14.00">ECS 1100 &#45; 2025 Fall</text>
<text text-anchor="middle" x="211.07" y="-1084.21" font-family="Times,serif" font-size="14.00">Intro to Engineering and CS</text>
</g>
<!-- CS 1200 -->
<g id="node2" class="node">
<title>CS 1200</title>
<ellipse fill="lightgreen" stroke="black" cx="458.07" cy="-1095.41" rx="101.65" ry="22.76"/>
<text text-anchor="middle" x="458.07" y="-1099.21" font-family="Times,serif" font-size="14.00">CS 1200 &#45; 2025 Fall</text>
<text text-anchor="middle" x="458.07" y="-1084.21" font-family="Times,serif" font-size="14.00">Intro to CS and SE</text>
</g>
<!-- MATH 2413 -->
<g id="node3" class="node">
<title>MATH 2413</title>
<ellipse fill="lightgreen" stroke="black" cx="675.07" cy="-942.16" rx="114.6" ry="22.76"/>
<text text-anchor="middle" x="675.07" y="-945.96" font-family="Times,serif" font-size="14.00">MATH 2413 &#45; Transfer</text>
<text text-anchor="middle" x="675.07" y="-930.96" font-family="Times,serif" font-size="14.00">Differential Calculus</text>
</g>
<!-- MATH 2414 -->
<g id="node6" class="node">
<title>MATH 2414</title>
<ellipse fill="lightgreen" stroke="black" cx="602.07" cy="-788.9" rx="118.59" ry="22.76"/>
<text text-anchor="middle" x="602.07" y="-792.7" font-family="Times,serif" font-size="14.00">MATH 2414 &#45; 2025 Fall</text>
<text text-anchor="middle" x="602.07" y="-777.7" font-family="Times,serif" font-size="14.00">Integral Calculus</text>
</g>
<!-- MATH 2413&#45;&gt;MATH 2414 -->
<g id="edge2" class="edge">
<title>MATH 2413&#45;&gt;MATH 2414</title>
<path fill="none" stroke="black" d="M664.61,-919.49C652.14,-893.65 631.21,-850.29 617.03,-820.91"/>
<polygon fill="black" stroke="black" points="620,-819.02 612.51,-811.53 613.7,-822.06 620,-819.02"/>
</g>
<!-- PHYS 2325 -->
<g id="node8" class="node">
<title>PHYS 2325</title>
<ellipse fill="yellow" stroke="black" cx="365.07" cy="-788.9" rx="59.29" ry="22.76"/>
<text text-anchor="middle" x="365.07" y="-792.7" font-family="Times,serif" font-size="14.00">PHYS 2325</text>
<text text-anchor="middle" x="365.07" y="-777.7" font-family="Times,serif" font-size="14.00">Mechanics</text>
</g>
<!-- MATH 2413&#45;&gt;PHYS 2325 -->
<g id="edge4" class="edge">
<title>MATH 2413&#45;&gt;PHYS 2325</title>
<path fill="none" stroke="black" d="M633.58,-920.91C575.32,-892.49 469.71,-840.96 409.76,-811.71"/>
<polygon fill="black" stroke="black" points="411.07,-808.45 400.55,-807.21 408,-814.75 411.07,-808.45"/>
</g>
<!-- CS 2305 -->
<g id="node10" class="node">
<title>CS 2305</title>
<ellipse fill="yellow" stroke="black" cx="1206.07" cy="-788.9" rx="196.65" ry="22.76"/>
<text text-anchor="middle" x="1206.07" y="-792.7" font-family="Times,serif" font-size="14.00">CS 2305</text>
<text text-anchor="middle" x="1206.07" y="-777.7" font-family="Times,serif" font-size="14.00">Discrete Mathematics for Computing I</text>
</g>
<!-- MATH 2413&#45;&gt;CS 2305 -->
<g id="edge6" class="edge">
<title>MATH 2413&#45;&gt;CS 2305</title>
<path fill="none" stroke="black" d="M738.06,-923.21C834.63,-895.7 1019.21,-843.13 1125.42,-812.87"/>
<polygon fill="black" stroke="black" points="1126.48,-816.21 1135.14,-810.11 1124.56,-809.48 1126.48,-816.21"/>
</g>
<!-- MATH 2418 -->
<g id="node16" class="node">
<title>MATH 2418</title>
<ellipse fill="yellow" stroke="black" cx="809.07" cy="-788.9" rx="76.24" ry="22.76"/>
<text text-anchor="middle" x="809.07" y="-792.7" font-family="Times,serif" font-size="14.00">MATH 2418</text>
<text text-anchor="middle" x="809.07" y="-777.7" font-family="Times,serif" font-size="14.00">Linear Algebra</text>
</g>
<!-- MATH 2413&#45;&gt;MATH 2418 -->
<g id="edge14" class="edge">
<title>MATH 2413&#45;&gt;MATH 2418</title>
<path fill="none" stroke="black" d="M693.98,-919.81C717.42,-893.34 757.47,-848.14 783.6,-818.65"/>
<polygon fill="black" stroke="black" points="786.24,-820.95 790.25,-811.14 781,-816.31 786.24,-820.95"/>
</g>
<!-- MATH 2312 -->
<g id="node4" class="node">
<title>MATH 2312</title>
<ellipse fill="lightgreen" stroke="black" cx="675.07" cy="-1095.41" rx="114.6" ry="22.76"/>
<text text-anchor="middle" x="675.07" y="-1099.21" font-family="Times,serif" font-size="14.00">MATH 2312 &#45; Transfer</text>
<text text-anchor="middle" x="675.07" y="-1084.21" font-family="Times,serif" font-size="14.00">Precalculus</text>
</g>
<!-- MATH 2312&#45;&gt;MATH 2413 -->
<g id="edge1" class="edge">
<title>MATH 2312&#45;&gt;MATH 2413</title>
<path fill="none" stroke="black" d="M675.07,-1072.74C675.07,-1047.13 675.07,-1004.3 675.07,-974.94"/>
<polygon fill="black" stroke="black" points="678.57,-974.79 675.07,-964.79 671.57,-974.79 678.57,-974.79"/>
</g>
<!-- CS 1436 -->
<g id="node5" class="node">
<title>CS 1436</title>
<ellipse fill="lightgreen" stroke="black" cx="937.07" cy="-1095.41" rx="146.24" ry="22.76"/>
<text text-anchor="middle" x="937.07" y="-1099.21" font-family="Times,serif" font-size="14.00">CS 1436 &#45; Transfer</text>
<text text-anchor="middle" x="937.07" y="-1084.21" font-family="Times,serif" font-size="14.00">Programming Fundamentals</text>
</g>
<!-- CS 1337 -->
<g id="node7" class="node">
<title>CS 1337</title>
<ellipse fill="lightgreen" stroke="black" cx="1447.07" cy="-942.16" rx="101.23" ry="22.76"/>
<text text-anchor="middle" x="1447.07" y="-945.96" font-family="Times,serif" font-size="14.00">CS 1337 &#45; Transfer</text>
<text text-anchor="middle" x="1447.07" y="-930.96" font-family="Times,serif" font-size="14.00">Computer Science I</text>
</g>
<!-- CS 1436&#45;&gt;CS 1337 -->
<g id="edge3" class="edge">
<title>CS 1436&#45;&gt;CS 1337</title>
<path fill="none" stroke="black" d="M1002.18,-1075.1C1098.88,-1046.42 1279.65,-992.81 1378.39,-963.53"/>
<polygon fill="black" stroke="black" points="1379.67,-966.8 1388.26,-960.6 1377.68,-960.08 1379.67,-966.8"/>
</g>
<!-- MATH 4332 -->
<g id="node13" class="node">
<title>MATH 4332</title>
<ellipse fill="yellow" stroke="black" cx="590.07" cy="-635.65" rx="72.25" ry="22.76"/>
<text text-anchor="middle" x="590.07" y="-639.45" font-family="Times,serif" font-size="14.00">MATH 4332</text>
<text text-anchor="middle" x="590.07" y="-624.45" font-family="Times,serif" font-size="14.00">Math Elective</text>
</g>
<!-- MATH 2414&#45;&gt;MATH 4332 -->
<g id="edge10" class="edge">
<title>MATH 2414&#45;&gt;MATH 4332</title>
<path fill="none" stroke="black" d="M600.35,-766.23C598.32,-740.62 594.92,-697.79 592.59,-668.43"/>
<polygon fill="black" stroke="black" points="596.06,-667.97 591.78,-658.28 589.08,-668.52 596.06,-667.97"/>
</g>
<!-- PHYS 2326 -->
<g id="node14" class="node">
<title>PHYS 2326</title>
<ellipse fill="#b2dfee" stroke="black" cx="365.07" cy="-635.65" rx="152.06" ry="22.76"/>
<text text-anchor="middle" x="365.07" y="-639.45" font-family="Times,serif" font-size="14.00">PHYS 2326</text>
<text text-anchor="middle" x="365.07" y="-624.45" font-family="Times,serif" font-size="14.00">Electromagnetism and Waves</text>
</g>
<!-- MATH 2414&#45;&gt;PHYS 2326 -->
<g id="edge11" class="edge">
<title>MATH 2414&#45;&gt;PHYS 2326</title>
<path fill="none" stroke="black" d="M569.11,-766.87C526.69,-739.8 452.96,-692.74 406.71,-663.22"/>
<polygon fill="black" stroke="black" points="408.43,-660.17 398.12,-657.74 404.67,-666.07 408.43,-660.17"/>
</g>
<!-- SE 3341 -->
<g id="node18" class="node">
<title>SE 3341</title>
<ellipse fill="#b2dfee" stroke="black" cx="831.07" cy="-635.65" rx="168.08" ry="22.76"/>
<text text-anchor="middle" x="831.07" y="-639.45" font-family="Times,serif" font-size="14.00">SE 3341</text>
<text text-anchor="middle" x="831.07" y="-624.45" font-family="Times,serif" font-size="14.00">Probability &amp; Statistics in CS/SE</text>
</g>
<!-- MATH 2414&#45;&gt;SE 3341 -->
<g id="edge16" class="edge">
<title>MATH 2414&#45;&gt;SE 3341</title>
<path fill="none" stroke="black" d="M633.91,-766.87C674.69,-739.93 745.44,-693.2 790.17,-663.66"/>
<polygon fill="black" stroke="black" points="792.34,-666.42 798.76,-657.99 788.48,-660.58 792.34,-666.42"/>
</g>
<!-- CS 2337 -->
<g id="node11" class="node">
<title>CS 2337</title>
<ellipse fill="lightgreen" stroke="black" cx="1811.07" cy="-788.9" rx="104.8" ry="22.76"/>
<text text-anchor="middle" x="1811.07" y="-792.7" font-family="Times,serif" font-size="14.00">CS 2337 &#45; 2025 Fall</text>
<text text-anchor="middle" x="1811.07" y="-777.7" font-family="Times,serif" font-size="14.00">Computer Science II</text>
</g>
<!-- CS 1337&#45;&gt;CS 2337 -->
<g id="edge7" class="edge">
<title>CS 1337&#45;&gt;CS 2337</title>
<path fill="none" stroke="black" d="M1493.17,-922C1559.9,-894.27 1683.27,-843.01 1755.12,-813.15"/>
<polygon fill="black" stroke="black" points="1756.59,-816.33 1764.48,-809.26 1753.9,-809.87 1756.59,-816.33"/>
</g>
<!-- SE 2340 -->
<g id="node12" class="node">
<title>SE 2340</title>
<ellipse fill="#b2dfee" stroke="red" stroke-width="7" cx="1447.07" cy="-635.65" rx="118.59" ry="22.76"/>
<text text-anchor="middle" x="1447.07" y="-639.45" font-family="Times,serif" font-size="14.00">SE 2340</text>
<text text-anchor="middle" x="1447.07" y="-624.45" font-family="Times,serif" font-size="14.00">Computer Architecture</text>
</g>
<!-- CS 1337&#45;&gt;SE 2340 -->
<g id="edge8" class="edge">
<title>CS 1337&#45;&gt;SE 2340</title>
<path fill="none" stroke="black" d="M1447.07,-919.26C1447.07,-866.25 1447.07,-730.87 1447.07,-668.72"/>
<polygon fill="black" stroke="black" points="1450.57,-668.35 1447.07,-658.35 1443.57,-668.35 1450.57,-668.35"/>
</g>
<!-- PHYS 2125 -->
<g id="node9" class="node">
<title>PHYS 2125</title>
<ellipse fill="#b2dfee" stroke="black" cx="106.07" cy="-635.65" rx="106.13" ry="22.76"/>
<text text-anchor="middle" x="106.07" y="-639.45" font-family="Times,serif" font-size="14.00">PHYS 2125</text>
<text text-anchor="middle" x="106.07" y="-624.45" font-family="Times,serif" font-size="14.00">Physics Laboratory I</text>
</g>
<!-- PHYS 2325&#45;&gt;PHYS 2125 -->
<g id="edge5" class="edge">
<title>PHYS 2325&#45;&gt;PHYS 2125</title>
<path fill="none" stroke="black" d="M333.82,-769.66C287.91,-742.84 202.02,-692.68 149.84,-662.21"/>
<polygon fill="black" stroke="black" points="151.54,-659.15 141.14,-657.13 148.01,-665.19 151.54,-659.15"/>
</g>
<!-- PHYS 2325&#45;&gt;PHYS 2326 -->
<g id="edge12" class="edge">
<title>PHYS 2325&#45;&gt;PHYS 2326</title>
<path fill="none" stroke="black" d="M365.07,-766.23C365.07,-740.62 365.07,-697.79 365.07,-668.43"/>
<polygon fill="black" stroke="black" points="368.57,-668.28 365.07,-658.28 361.57,-668.28 368.57,-668.28"/>
</g>
<!-- CS 2305&#45;&gt;SE 2340 -->
<g id="edge9" class="edge">
<title>CS 2305&#45;&gt;SE 2340</title>
<path fill="none" stroke="black" d="M1240.08,-766.55C1283.48,-739.32 1358.5,-692.23 1405.31,-662.85"/>
<polygon fill="black" stroke="black" points="1407.38,-665.68 1413.99,-657.4 1403.66,-659.75 1407.38,-665.68"/>
</g>
<!-- SE 3306 -->
<g id="node17" class="node">
<title>SE 3306</title>
<ellipse fill="#b2dfee" stroke="red" stroke-width="7" cx="1164.07" cy="-635.65" rx="163.18" ry="22.76"/>
<text text-anchor="middle" x="1164.07" y="-639.45" font-family="Times,serif" font-size="14.00">SE 3306</text>
<text text-anchor="middle" x="1164.07" y="-624.45" font-family="Times,serif" font-size="14.00">Mathematics Foundations of SE</text>
</g>
<!-- CS 2305&#45;&gt;SE 3306 -->
<g id="edge15" class="edge">
<title>CS 2305&#45;&gt;SE 3306</title>
<path fill="none" stroke="black" d="M1200.05,-766.23C1192.91,-740.51 1180.94,-697.41 1172.78,-668.04"/>
<polygon fill="black" stroke="black" points="1176.12,-666.98 1170.07,-658.28 1169.38,-668.85 1176.12,-666.98"/>
</g>
<!-- CS 2305&#45;&gt;SE 3341 -->
<g id="edge17" class="edge">
<title>CS 2305&#45;&gt;SE 3341</title>
<path fill="none" stroke="black" d="M1154.32,-767.03C1085.67,-739.34 964.7,-690.55 891.8,-661.14"/>
<polygon fill="black" stroke="black" points="892.87,-657.8 882.28,-657.31 890.25,-664.29 892.87,-657.8"/>
</g>
<!-- SE 3345 -->
<g id="node19" class="node">
<title>SE 3345</title>
<ellipse fill="#b2dfee" stroke="red" stroke-width="7" cx="1811.07" cy="-635.65" rx="243.9" ry="22.76"/>
<text text-anchor="middle" x="1811.07" y="-639.45" font-family="Times,serif" font-size="14.00">SE 3345</text>
<text text-anchor="middle" x="1811.07" y="-624.45" font-family="Times,serif" font-size="14.00">Data Structures &amp; Intro to Algorithmic Analysis</text>
</g>
<!-- CS 2305&#45;&gt;SE 3345 -->
<g id="edge19" class="edge">
<title>CS 2305&#45;&gt;SE 3345</title>
<path fill="none" stroke="black" d="M1285.16,-768.13C1397.16,-740.13 1601.47,-689.05 1719.77,-659.47"/>
<polygon fill="black" stroke="black" points="1720.68,-662.85 1729.54,-657.03 1718.99,-656.06 1720.68,-662.85"/>
</g>
<!-- SE 3354 -->
<g id="node23" class="node">
<title>SE 3354</title>
<ellipse fill="#b2dfee" stroke="red" stroke-width="7" cx="2168.07" cy="-635.65" rx="112.36" ry="22.76"/>
<text text-anchor="middle" x="2168.07" y="-639.45" font-family="Times,serif" font-size="14.00">SE 3354</text>
<text text-anchor="middle" x="2168.07" y="-624.45" font-family="Times,serif" font-size="14.00">Software Engineering</text>
</g>
<!-- CS 2305&#45;&gt;SE 3354 -->
<g id="edge23" class="edge">
<title>CS 2305&#45;&gt;SE 3354</title>
<path fill="none" stroke="black" d="M1325.35,-770.86C1489.33,-747.16 1793.51,-702.17 2052.07,-658.27 2060.82,-656.79 2069.93,-655.19 2079.03,-653.55"/>
<polygon fill="black" stroke="black" points="2079.66,-656.99 2088.88,-651.76 2078.42,-650.1 2079.66,-656.99"/>
</g>
<!-- CS 2337&#45;&gt;SE 3345 -->
<g id="edge20" class="edge">
<title>CS 2337&#45;&gt;SE 3345</title>
<path fill="none" stroke="black" d="M1811.07,-766.23C1811.07,-740.62 1811.07,-697.79 1811.07,-668.43"/>
<polygon fill="black" stroke="black" points="1814.57,-668.28 1811.07,-658.28 1807.57,-668.28 1814.57,-668.28"/>
</g>
<!-- SE 3377 -->
<g id="node20" class="node">
<title>SE 3377</title>
<ellipse fill="yellow" stroke="black" cx="2481.07" cy="-635.65" rx="199.31" ry="22.76"/>
<text text-anchor="middle" x="2481.07" y="-639.45" font-family="Times,serif" font-size="14.00">SE 3377</text>
<text text-anchor="middle" x="2481.07" y="-624.45" font-family="Times,serif" font-size="14.00">C/C++ Programming in a UNIX Envirn</text>
</g>
<!-- CS 2337&#45;&gt;SE 3377 -->
<g id="edge21" class="edge">
<title>CS 2337&#45;&gt;SE 3377</title>
<path fill="none" stroke="black" d="M1881.19,-772.07C2001.74,-744.86 2248.47,-689.16 2384.95,-658.35"/>
<polygon fill="black" stroke="black" points="2386,-661.7 2394.98,-656.08 2384.46,-654.87 2386,-661.7"/>
</g>
<!-- CS 2337&#45;&gt;SE 3354 -->
<g id="edge24" class="edge">
<title>CS 2337&#45;&gt;SE 3354</title>
<path fill="none" stroke="black" d="M1857.01,-768.44C1922.3,-740.78 2041.79,-690.15 2112.15,-660.34"/>
<polygon fill="black" stroke="black" points="2113.89,-663.4 2121.74,-656.28 2111.16,-656.95 2113.89,-663.4"/>
</g>
<!-- SE 4348 -->
<g id="node24" class="node">
<title>SE 4348</title>
<ellipse fill="#b2dfee" stroke="red" stroke-width="7" cx="1811.07" cy="-482.39" rx="148.48" ry="22.76"/>
<text text-anchor="middle" x="1811.07" y="-486.19" font-family="Times,serif" font-size="14.00">SE 4348</text>
<text text-anchor="middle" x="1811.07" y="-471.19" font-family="Times,serif" font-size="14.00">Operating Systems Concepts</text>
</g>
<!-- SE 2340&#45;&gt;SE 4348 -->
<g id="edge26" class="edge">
<title>SE 2340&#45;&gt;SE 4348</title>
<path fill="none" stroke="black" d="M1494.65,-614.87C1560.95,-587.32 1681.03,-537.43 1752.67,-507.66"/>
<polygon fill="black" stroke="black" points="1754.12,-510.84 1762.01,-503.77 1751.44,-504.38 1754.12,-510.84"/>
</g>
<!-- PHYS 2126 -->
<g id="node15" class="node">
<title>PHYS 2126</title>
<ellipse fill="#b2dfee" stroke="black" cx="365.07" cy="-482.39" rx="109.7" ry="22.76"/>
<text text-anchor="middle" x="365.07" y="-486.19" font-family="Times,serif" font-size="14.00">PHYS 2126</text>
<text text-anchor="middle" x="365.07" y="-471.19" font-family="Times,serif" font-size="14.00">Physics Laboratory II</text>
</g>
<!-- PHYS 2326&#45;&gt;PHYS 2126 -->
<g id="edge13" class="edge">
<title>PHYS 2326&#45;&gt;PHYS 2126</title>
<path fill="none" stroke="black" d="M365.07,-612.98C365.07,-587.37 365.07,-544.54 365.07,-515.17"/>
<polygon fill="black" stroke="black" points="368.57,-515.02 365.07,-505.02 361.57,-515.02 368.57,-515.02"/>
</g>
<!-- MATH 2418&#45;&gt;SE 3341 -->
<g id="edge18" class="edge">
<title>MATH 2418&#45;&gt;SE 3341</title>
<path fill="none" stroke="black" d="M812.22,-766.23C815.94,-740.62 822.17,-697.79 826.44,-668.43"/>
<polygon fill="black" stroke="black" points="829.94,-668.68 827.92,-658.28 823.02,-667.67 829.94,-668.68"/>
</g>
<!-- SE 4351 -->
<g id="node28" class="node">
<title>SE 4351</title>
<ellipse fill="#b2dfee" stroke="black" cx="1164.07" cy="-482.39" rx="137.77" ry="22.76"/>
<text text-anchor="middle" x="1164.07" y="-486.19" font-family="Times,serif" font-size="14.00">SE 4351</text>
<text text-anchor="middle" x="1164.07" y="-471.19" font-family="Times,serif" font-size="14.00">Requirements Engineering</text>
</g>
<!-- SE 3306&#45;&gt;SE 4351 -->
<g id="edge32" class="edge">
<title>SE 3306&#45;&gt;SE 4351</title>
<path fill="none" stroke="black" d="M1164.07,-612.98C1164.07,-587.37 1164.07,-544.54 1164.07,-515.17"/>
<polygon fill="black" stroke="black" points="1167.57,-515.02 1164.07,-505.02 1160.57,-515.02 1167.57,-515.02"/>
</g>
<!-- SE 4367 -->
<g id="node29" class="node">
<title>SE 4367</title>
<ellipse fill="#b2dfee" stroke="red" stroke-width="7" cx="1492.07" cy="-482.39" rx="169.91" ry="22.76"/>
<text text-anchor="middle" x="1492.07" y="-486.19" font-family="Times,serif" font-size="14.00">SE 4367</text>
<text text-anchor="middle" x="1492.07" y="-471.19" font-family="Times,serif" font-size="14.00">Software Testing, Verif, Valid, QA</text>
</g>
<!-- SE 3306&#45;&gt;SE 4367 -->
<g id="edge34" class="edge">
<title>SE 3306&#45;&gt;SE 4367</title>
<path fill="none" stroke="black" d="M1209.33,-613.77C1268.96,-586.28 1373.73,-537.96 1437.62,-508.5"/>
<polygon fill="black" stroke="black" points="1439.13,-511.66 1446.74,-504.29 1436.19,-505.3 1439.13,-511.66"/>
</g>
<!-- SE 3345&#45;&gt;SE 4348 -->
<g id="edge27" class="edge">
<title>SE 3345&#45;&gt;SE 4348</title>
<path fill="none" stroke="black" d="M1811.07,-612.98C1811.07,-587.37 1811.07,-544.54 1811.07,-515.17"/>
<polygon fill="black" stroke="black" points="1814.57,-515.02 1811.07,-505.02 1807.57,-515.02 1814.57,-515.02"/>
</g>
<!-- SE 3345&#45;&gt;SE 4351 -->
<g id="edge33" class="edge">
<title>SE 3345&#45;&gt;SE 4351</title>
<path fill="none" stroke="black" d="M1724.48,-614.4C1600.6,-585.44 1374.12,-532.5 1250.39,-503.57"/>
<polygon fill="black" stroke="black" points="1251.1,-500.14 1240.57,-501.28 1249.51,-506.96 1251.1,-500.14"/>
</g>
<!-- SE 3377&#45;&gt;SE 4348 -->
<g id="edge28" class="edge">
<title>SE 3377&#45;&gt;SE 4348</title>
<path fill="none" stroke="black" d="M2394.85,-615.18C2267.57,-586.45 2030.53,-532.94 1901.1,-503.72"/>
<polygon fill="black" stroke="black" points="1901.73,-500.27 1891.21,-501.48 1900.19,-507.1 1901.73,-500.27"/>
</g>
<!-- ECS 2390 -->
<g id="node21" class="node">
<title>ECS 2390</title>
<ellipse fill="yellow" stroke="black" cx="1781.07" cy="-942.16" rx="208.69" ry="22.76"/>
<text text-anchor="middle" x="1781.07" y="-945.96" font-family="Times,serif" font-size="14.00">ECS 2390</text>
<text text-anchor="middle" x="1781.07" y="-930.96" font-family="Times,serif" font-size="14.00">Professional &amp; Technical Communication</text>
</g>
<!-- ECS 2390&#45;&gt;SE 3354 -->
<g id="edge25" class="edge">
<title>ECS 2390&#45;&gt;SE 3354</title>
<path fill="none" stroke="black" d="M1811.47,-919.75C1841.97,-896.62 1887.93,-856.9 1913.07,-811.53 1923.05,-793.51 1910.59,-782.66 1923.07,-766.27 1965.21,-710.93 2037.89,-676.75 2093.18,-657.49"/>
<polygon fill="black" stroke="black" points="2094.59,-660.7 2102.94,-654.18 2092.34,-654.07 2094.59,-660.7"/>
</g>
<!-- SE 3162 -->
<g id="node25" class="node">
<title>SE 3162</title>
<ellipse fill="#b2dfee" stroke="black" cx="2107.07" cy="-788.9" rx="186.85" ry="22.76"/>
<text text-anchor="middle" x="2107.07" y="-792.7" font-family="Times,serif" font-size="14.00">SE 3162</text>
<text text-anchor="middle" x="2107.07" y="-777.7" font-family="Times,serif" font-size="14.00">Professional Responsibility in CS/SE</text>
</g>
<!-- ECS 2390&#45;&gt;SE 3162 -->
<g id="edge29" class="edge">
<title>ECS 2390&#45;&gt;SE 3162</title>
<path fill="none" stroke="black" d="M1826.74,-919.97C1885.91,-892.51 1988.96,-844.7 2052.28,-815.32"/>
<polygon fill="black" stroke="black" points="2054.1,-818.33 2061.7,-810.95 2051.16,-811.98 2054.1,-818.33"/>
</g>
<!-- RHET 1302 -->
<g id="node22" class="node">
<title>RHET 1302</title>
<ellipse fill="lightgreen" stroke="black" cx="1197.07" cy="-1095.41" rx="112.36" ry="22.76"/>
<text text-anchor="middle" x="1197.07" y="-1099.21" font-family="Times,serif" font-size="14.00">RHET 1302 &#45; Transfer</text>
<text text-anchor="middle" x="1197.07" y="-1084.21" font-family="Times,serif" font-size="14.00">Core: 010</text>
</g>
<!-- RHET 1302&#45;&gt;ECS 2390 -->
<g id="edge22" class="edge">
<title>RHET 1302&#45;&gt;ECS 2390</title>
<path fill="none" stroke="black" d="M1263.77,-1077.13C1369.73,-1049.69 1576.5,-996.14 1694,-965.71"/>
<polygon fill="black" stroke="black" points="1694.89,-969.09 1703.69,-963.2 1693.13,-962.32 1694.89,-969.09"/>
</g>
<!-- SE 4381 -->
<g id="node27" class="node">
<title>SE 4381</title>
<ellipse fill="#b2dfee" stroke="black" cx="2206.07" cy="-329.14" rx="183.28" ry="22.76"/>
<text text-anchor="middle" x="2206.07" y="-332.94" font-family="Times,serif" font-size="14.00">SE 4381</text>
<text text-anchor="middle" x="2206.07" y="-317.94" font-family="Times,serif" font-size="14.00">Software Project Planning &amp; Mgmt.</text>
</g>
<!-- SE 3354&#45;&gt;SE 4381 -->
<g id="edge31" class="edge">
<title>SE 3354&#45;&gt;SE 4381</title>
<path fill="none" stroke="black" d="M2170.8,-612.75C2177.43,-559.64 2194.38,-423.8 2202.11,-361.82"/>
<polygon fill="black" stroke="black" points="2205.59,-362.19 2203.36,-351.84 2198.65,-361.33 2205.59,-362.19"/>
</g>
<!-- SE 3354&#45;&gt;SE 4367 -->
<g id="edge35" class="edge">
<title>SE 3354&#45;&gt;SE 4367</title>
<path fill="none" stroke="black" d="M2095.08,-618.32C1971.68,-590.7 1721.98,-534.83 1585.8,-504.37"/>
<polygon fill="black" stroke="black" points="1586.32,-500.89 1575.8,-502.13 1584.79,-507.73 1586.32,-500.89"/>
</g>
<!-- CS 4397 -->
<g id="node32" class="node">
<title>CS 4397</title>
<ellipse fill="#b2dfee" stroke="black" cx="1811.07" cy="-329.14" rx="110.12" ry="22.76"/>
<text text-anchor="middle" x="1811.07" y="-332.94" font-family="Times,serif" font-size="14.00">CS 4397</text>
<text text-anchor="middle" x="1811.07" y="-317.94" font-family="Times,serif" font-size="14.00">SE Technical Elective</text>
</g>
<!-- SE 4348&#45;&gt;CS 4397 -->
<g id="edge39" class="edge">
<title>SE 4348&#45;&gt;CS 4397</title>
<path fill="none" stroke="black" d="M1811.07,-459.72C1811.07,-434.11 1811.07,-391.28 1811.07,-361.92"/>
<polygon fill="black" stroke="black" points="1814.57,-361.77 1811.07,-351.77 1807.57,-361.77 1814.57,-361.77"/>
</g>
<!-- FAST TRACK -->
<g id="node41" class="node">
<title>FAST TRACK</title>
<ellipse fill="#b2dfee" stroke="red" stroke-width="7" cx="1492.07" cy="-329.14" rx="206.45" ry="22.76"/>
<text text-anchor="middle" x="1492.07" y="-332.94" font-family="Times,serif" font-size="14.00">FAST TRACK</text>
<text text-anchor="middle" x="1492.07" y="-317.94" font-family="Times,serif" font-size="14.00">Fast Track Program Benchmark Courses</text>
</g>
<!-- SE 4348&#45;&gt;FAST TRACK -->
<g id="edge40" class="edge">
<title>SE 4348&#45;&gt;FAST TRACK</title>
<path fill="none" stroke="black" d="M1767.38,-460.68C1709.76,-433.36 1608.4,-385.3 1546.05,-355.73"/>
<polygon fill="black" stroke="black" points="1547.3,-352.45 1536.76,-351.33 1544.3,-358.78 1547.3,-352.45"/>
</g>
<!-- GOVT 2305 -->
<g id="node26" class="node">
<title>GOVT 2305</title>
<ellipse fill="lightgreen" stroke="black" cx="2107.07" cy="-942.16" rx="116.85" ry="22.76"/>
<text text-anchor="middle" x="2107.07" y="-945.96" font-family="Times,serif" font-size="14.00">GOVT 2305 &#45; 2025 Fall</text>
<text text-anchor="middle" x="2107.07" y="-930.96" font-family="Times,serif" font-size="14.00">Core: 070</text>
</g>
<!-- GOVT 2305&#45;&gt;SE 3162 -->
<g id="edge30" class="edge">
<title>GOVT 2305&#45;&gt;SE 3162</title>
<path fill="none" stroke="black" d="M2107.07,-919.49C2107.07,-893.88 2107.07,-851.05 2107.07,-821.68"/>
<polygon fill="black" stroke="black" points="2110.57,-821.53 2107.07,-811.53 2103.57,-821.53 2110.57,-821.53"/>
</g>
<!-- SE 4485 -->
<g id="node30" class="node">
<title>SE 4485</title>
<ellipse fill="#b2dfee" stroke="black" cx="1985.07" cy="-22.63" rx="152.06" ry="22.76"/>
<text text-anchor="middle" x="1985.07" y="-26.43" font-family="Times,serif" font-size="14.00">SE 4485</text>
<text text-anchor="middle" x="1985.07" y="-11.43" font-family="Times,serif" font-size="14.00">Software Engineering Project</text>
</g>
<!-- SE 4381&#45;&gt;SE 4485 -->
<g id="edge36" class="edge">
<title>SE 4381&#45;&gt;SE 4485</title>
<path fill="none" stroke="black" d="M2214.11,-306.45C2225.6,-271.53 2242.39,-201.83 2214.07,-153.25 2182.28,-98.73 2118.11,-65.3 2065.76,-46.08"/>
<polygon fill="black" stroke="black" points="2066.73,-42.71 2056.14,-42.66 2064.39,-49.31 2066.73,-42.71"/>
</g>
<!-- SE 4351&#45;&gt;SE 4485 -->
<g id="edge37" class="edge">
<title>SE 4351&#45;&gt;SE 4485</title>
<path fill="none" stroke="black" d="M1151.21,-459.84C1118.75,-402.32 1041.38,-243.44 1119.07,-153.25 1208.05,-49.96 1597.48,-27.78 1822.65,-23.75"/>
<polygon fill="black" stroke="black" points="1822.97,-27.25 1832.91,-23.58 1822.85,-20.25 1822.97,-27.25"/>
</g>
<!-- SE 4367&#45;&gt;FAST TRACK -->
<g id="edge41" class="edge">
<title>SE 4367&#45;&gt;FAST TRACK</title>
<path fill="none" stroke="black" d="M1492.07,-459.72C1492.07,-434.11 1492.07,-391.28 1492.07,-361.92"/>
<polygon fill="black" stroke="black" points="1495.57,-361.77 1492.07,-351.77 1488.57,-361.77 1495.57,-361.77"/>
</g>
<!-- SE 6362 -->
<g id="node31" class="node">
<title>SE 6362</title>
<ellipse fill="#b2dfee" stroke="black" cx="1985.07" cy="-175.88" rx="231.86" ry="22.76"/>
<text text-anchor="middle" x="1985.07" y="-179.68" font-family="Times,serif" font-size="14.00">SE 6362 (SE 4352)</text>
<text text-anchor="middle" x="1985.07" y="-164.68" font-family="Times,serif" font-size="14.00">Architecture and Design *(Approval Needed)*</text>
</g>
<!-- SE 6362&#45;&gt;SE 4485 -->
<g id="edge38" class="edge">
<title>SE 6362&#45;&gt;SE 4485</title>
<path fill="none" stroke="black" d="M1985.07,-153.21C1985.07,-127.6 1985.07,-84.77 1985.07,-55.41"/>
<polygon fill="black" stroke="black" points="1988.57,-55.26 1985.07,-45.26 1981.57,-55.26 1988.57,-55.26"/>
</g>
<!-- GOVT 2306 -->
<g id="node33" class="node">
<title>GOVT 2306</title>
<ellipse fill="yellow" stroke="black" cx="1372.07" cy="-1095.41" rx="59.29" ry="22.76"/>
<text text-anchor="middle" x="1372.07" y="-1099.21" font-family="Times,serif" font-size="14.00">GOVT 2306</text>
<text text-anchor="middle" x="1372.07" y="-1084.21" font-family="Times,serif" font-size="14.00">Core: 070</text>
</g>
<!-- HIST 1301 -->
<g id="node34" class="node">
<title>HIST 1301</title>
<ellipse fill="yellow" stroke="black" cx="1488.07" cy="-1095.41" rx="55.72" ry="22.76"/>
<text text-anchor="middle" x="1488.07" y="-1099.21" font-family="Times,serif" font-size="14.00">HIST 1301</text>
<text text-anchor="middle" x="1488.07" y="-1084.21" font-family="Times,serif" font-size="14.00">Core: 060</text>
</g>
<!-- HIST 1302 -->
<g id="node35" class="node">
<title>HIST 1302</title>
<ellipse fill="yellow" stroke="black" cx="1601.07" cy="-1095.41" rx="55.72" ry="22.76"/>
<text text-anchor="middle" x="1601.07" y="-1099.21" font-family="Times,serif" font-size="14.00">HIST 1302</text>
<text text-anchor="middle" x="1601.07" y="-1084.21" font-family="Times,serif" font-size="14.00">Core: 060</text>
</g>
<!-- HIST 2322 -->
<g id="node36" class="node">
<title>HIST 2322</title>
<ellipse fill="lightgreen" stroke="black" cx="1766.07" cy="-1095.41" rx="108.38" ry="22.76"/>
<text text-anchor="middle" x="1766.07" y="-1099.21" font-family="Times,serif" font-size="14.00">HIST 2322 &#45; Transfer</text>
<text text-anchor="middle" x="1766.07" y="-1084.21" font-family="Times,serif" font-size="14.00">Core: 040</text>
</g>
<!-- THEA 1310 -->
<g id="node37" class="node">
<title>THEA 1310</title>
<ellipse fill="yellow" stroke="black" cx="1935.07" cy="-1095.41" rx="59.29" ry="22.76"/>
<text text-anchor="middle" x="1935.07" y="-1099.21" font-family="Times,serif" font-size="14.00">THEA 1310</text>
<text text-anchor="middle" x="1935.07" y="-1084.21" font-family="Times,serif" font-size="14.00">Core: 050</text>
</g>
<!-- GEOG 2303 -->
<g id="node38" class="node">
<title>GEOG 2303</title>
<ellipse fill="lightgreen" stroke="black" cx="2110.07" cy="-1095.41" rx="114.6" ry="22.76"/>
<text text-anchor="middle" x="2110.07" y="-1099.21" font-family="Times,serif" font-size="14.00">GEOG 2303 &#45; Transfer</text>
<text text-anchor="middle" x="2110.07" y="-1084.21" font-family="Times,serif" font-size="14.00">Core: 080</text>
</g>
<!-- MATH 1316 -->
<g id="node39" class="node">
<title>MATH 1316</title>
<ellipse fill="lightgreen" stroke="black" cx="2340.07" cy="-1095.41" rx="114.6" ry="22.76"/>
<text text-anchor="middle" x="2340.07" y="-1099.21" font-family="Times,serif" font-size="14.00">MATH 1316 &#45; Transfer</text>
<text text-anchor="middle" x="2340.07" y="-1084.21" font-family="Times,serif" font-size="14.00">Free Elective</text>
</g>
<!-- RHET 1301 -->
<g id="node40" class="node">
<title>RHET 1301</title>
<ellipse fill="lightgreen" stroke="black" cx="2568.07" cy="-1095.41" rx="112.36" ry="22.76"/>
<text text-anchor="middle" x="2568.07" y="-1099.21" font-family="Times,serif" font-size="14.00">RHET 1301 &#45; Transfer</text>
<text text-anchor="middle" x="2568.07" y="-1084.21" font-family="Times,serif" font-size="14.00">Free Elective</text>
</g>
<!-- FAST TRACK&#45;&gt;SE 6362 -->
<g id="edge44" class="edge">
<title>FAST TRACK&#45;&gt;SE 6362</title>
<path fill="none" stroke="black" d="M1558.81,-307.66C1649.73,-279.77 1812.14,-229.94 1908.09,-200.5"/>
<polygon fill="black" stroke="black" points="1909.2,-203.82 1917.74,-197.54 1907.15,-197.13 1909.2,-203.82"/>
</g>
<!-- SE 6329 -->
<g id="node42" class="node">
<title>SE 6329</title>
<ellipse fill="#b2dfee" stroke="black" cx="1434.07" cy="-175.88" rx="120.83" ry="22.76"/>
<text text-anchor="middle" x="1434.07" y="-179.68" font-family="Times,serif" font-size="14.00">SE 6329 (SE 4376)</text>
<text text-anchor="middle" x="1434.07" y="-164.68" font-family="Times,serif" font-size="14.00">Object Oriented Design</text>
</g>
<!-- FAST TRACK&#45;&gt;SE 6329 -->
<g id="edge42" class="edge">
<title>FAST TRACK&#45;&gt;SE 6329</title>
<path fill="none" stroke="black" d="M1483.76,-306.47C1473.85,-280.63 1457.22,-237.27 1445.96,-207.89"/>
<polygon fill="black" stroke="black" points="1449.21,-206.6 1442.36,-198.51 1442.67,-209.1 1449.21,-206.6"/>
</g>
<!-- CS 6360 -->
<g id="node43" class="node">
<title>CS 6360</title>
<ellipse fill="#b2dfee" stroke="black" cx="1654.07" cy="-175.88" rx="98.08" ry="22.76"/>
<text text-anchor="middle" x="1654.07" y="-179.68" font-family="Times,serif" font-size="14.00">CS 6360 (SE 4347)</text>
<text text-anchor="middle" x="1654.07" y="-164.68" font-family="Times,serif" font-size="14.00">Database Systems</text>
</g>
<!-- FAST TRACK&#45;&gt;CS 6360 -->
<g id="edge43" class="edge">
<title>FAST TRACK&#45;&gt;CS 6360</title>
<path fill="none" stroke="black" d="M1515.28,-306.47C1543.83,-279.81 1592.37,-234.49 1623.82,-205.13"/>
<polygon fill="black" stroke="black" points="1626.5,-207.41 1631.42,-198.03 1621.72,-202.29 1626.5,-207.41"/>
</g>
<!-- CS 5349 -->
<g id="node45" class="node">
<title>CS 5349</title>
<ellipse fill="#b2dfee" stroke="black" cx="1214.07" cy="-175.88" rx="98.08" ry="22.76"/>
<text text-anchor="middle" x="1214.07" y="-179.68" font-family="Times,serif" font-size="14.00">CS 5349 (CS 4384)</text>
<text text-anchor="middle" x="1214.07" y="-164.68" font-family="Times,serif" font-size="14.00">Automata Theory</text>
</g>
<!-- FAST TRACK&#45;&gt;CS 5349 -->
<g id="edge46" class="edge">
<title>FAST TRACK&#45;&gt;CS 5349</title>
<path fill="none" stroke="black" d="M1452.83,-306.79C1402.03,-279.15 1313.68,-231.08 1259.87,-201.8"/>
<polygon fill="black" stroke="black" points="1261.35,-198.62 1250.89,-196.92 1258,-204.77 1261.35,-198.62"/>
</g>
<!-- CS 6371 -->
<g id="node44" class="node">
<title>CS 6371</title>
<ellipse fill="#b2dfee" stroke="black" cx="1214.07" cy="-22.63" rx="236.35" ry="22.76"/>
<text text-anchor="middle" x="1214.07" y="-26.43" font-family="Times,serif" font-size="14.00">CS 6371 (CS 4337)</text>
<text text-anchor="middle" x="1214.07" y="-11.43" font-family="Times,serif" font-size="14.00">Programming Languages *(Approval Needed)*</text>
</g>
<!-- CS 5349&#45;&gt;CS 6371 -->
<g id="edge45" class="edge">
<title>CS 5349&#45;&gt;CS 6371</title>
<path fill="none" stroke="black" d="M1214.07,-153.21C1214.07,-127.6 1214.07,-84.77 1214.07,-55.41"/>
<polygon fill="black" stroke="black" points="1217.57,-55.26 1214.07,-45.26 1210.57,-55.26 1217.57,-55.26"/>
</g>
<!-- degree -->
<g id="node46" class="node">
<title>degree</title>
<ellipse fill="orangered" stroke="black" cx="1430.07" cy="-1244.04" rx="104.24" ry="18"/>
<text text-anchor="middle" x="1430.07" y="-1240.34" font-family="Times,serif" font-size="14.00">B.S. in Computer Science</text>
</g>
<!-- degree&#45;&gt;ECS 1100 -->
<g id="edge47" class="edge">
<title>degree&#45;&gt;ECS 1100</title>
<path fill="none" stroke="black" d="M1343.89,-1233.84C1161.83,-1214.21 724.71,-1166.08 359.07,-1118.04 347.08,-1116.46 334.56,-1114.75 322.09,-1112.99"/>
<polygon fill="black" stroke="black" points="322.51,-1109.52 312.12,-1111.58 321.53,-1116.45 322.51,-1109.52"/>
</g>
<!-- degree&#45;&gt;CS 1200 -->
<g id="edge48" class="edge">
<title>degree&#45;&gt;CS 1200</title>
<path fill="none" stroke="black" d="M1348.03,-1232.81C1193.97,-1213.24 851.03,-1167.98 564.07,-1118.04 556.11,-1116.65 547.83,-1115.12 539.57,-1113.54"/>
<polygon fill="black" stroke="black" points="540,-1110.05 529.52,-1111.58 538.66,-1116.93 540,-1110.05"/>
</g>
<!-- degree&#45;&gt;MATH 2312 -->
<g id="edge49" class="edge">
<title>degree&#45;&gt;MATH 2312</title>
<path fill="none" stroke="black" d="M1363.4,-1230.09C1227.28,-1203.66 917.4,-1143.47 764.2,-1113.72"/>
<polygon fill="black" stroke="black" points="764.82,-1110.28 754.34,-1111.81 763.49,-1117.15 764.82,-1110.28"/>
</g>
<!-- degree&#45;&gt;CS 1436 -->
<g id="edge50" class="edge">
<title>degree&#45;&gt;CS 1436</title>
<path fill="none" stroke="black" d="M1380.08,-1228.17C1293.05,-1202.29 1113.27,-1148.82 1011.52,-1118.55"/>
<polygon fill="black" stroke="black" points="1012.5,-1115.2 1001.92,-1115.7 1010.51,-1121.91 1012.5,-1115.2"/>
</g>
<!-- degree&#45;&gt;RHET 1302 -->
<g id="edge51" class="edge">
<title>degree&#45;&gt;RHET 1302</title>
<path fill="none" stroke="black" d="M1403.79,-1226.5C1363.57,-1201.19 1286.37,-1152.61 1238.54,-1122.51"/>
<polygon fill="black" stroke="black" points="1240.3,-1119.48 1229.97,-1117.12 1236.57,-1125.4 1240.3,-1119.48"/>
</g>
<!-- degree&#45;&gt;GOVT 2305 -->
<g id="edge52" class="edge">
<title>degree&#45;&gt;GOVT 2305</title>
<path fill="none" stroke="black" d="M1406.71,-1226.34C1378.98,-1204.91 1334.21,-1164.87 1316.07,-1118.04 1308.8,-1099.28 1303.02,-1088.1 1316.07,-1072.78 1413.85,-957.97 1837.39,-990.05 1986.07,-964.78 1995.2,-963.23 2004.72,-961.58 2014.22,-959.92"/>
<polygon fill="black" stroke="black" points="2014.87,-963.36 2024.11,-958.18 2013.65,-956.46 2014.87,-963.36"/>
</g>
<!-- degree&#45;&gt;GOVT 2306 -->
<g id="edge53" class="edge">
<title>degree&#45;&gt;GOVT 2306</title>
<path fill="none" stroke="black" d="M1423.3,-1225.93C1413.8,-1201.91 1396.33,-1157.75 1384.46,-1127.75"/>
<polygon fill="black" stroke="black" points="1387.6,-1126.17 1380.67,-1118.16 1381.09,-1128.75 1387.6,-1126.17"/>
</g>
<!-- degree&#45;&gt;HIST 1301 -->
<g id="edge54" class="edge">
<title>degree&#45;&gt;HIST 1301</title>
<path fill="none" stroke="black" d="M1436.83,-1225.93C1446.34,-1201.91 1463.8,-1157.75 1475.67,-1127.75"/>
<polygon fill="black" stroke="black" points="1479.04,-1128.75 1479.46,-1118.16 1472.53,-1126.17 1479.04,-1128.75"/>
</g>
<!-- degree&#45;&gt;HIST 1302 -->
<g id="edge55" class="edge">
<title>degree&#45;&gt;HIST 1302</title>
<path fill="none" stroke="black" d="M1449.68,-1226.22C1479.16,-1200.94 1535.16,-1152.92 1570.17,-1122.91"/>
<polygon fill="black" stroke="black" points="1572.84,-1125.22 1578.16,-1116.06 1568.29,-1119.91 1572.84,-1125.22"/>
</g>
<!-- degree&#45;&gt;HIST 2322 -->
<g id="edge56" class="edge">
<title>degree&#45;&gt;HIST 2322</title>
<path fill="none" stroke="black" d="M1466.66,-1227.07C1525.79,-1201.26 1642.66,-1150.26 1711.6,-1120.18"/>
<polygon fill="black" stroke="black" points="1713.23,-1123.29 1721,-1116.08 1710.43,-1116.87 1713.23,-1123.29"/>
</g>
<!-- degree&#45;&gt;THEA 1310 -->
<g id="edge57" class="edge">
<title>degree&#45;&gt;THEA 1310</title>
<path fill="none" stroke="black" d="M1484.79,-1228.6C1568.58,-1206.27 1733.55,-1161.37 1872.07,-1118.04 1875.58,-1116.94 1879.2,-1115.78 1882.84,-1114.59"/>
<polygon fill="black" stroke="black" points="1884.08,-1117.86 1892.47,-1111.39 1881.88,-1111.22 1884.08,-1117.86"/>
</g>
<!-- degree&#45;&gt;GEOG 2303 -->
<g id="edge58" class="edge">
<title>degree&#45;&gt;GEOG 2303</title>
<path fill="none" stroke="black" d="M1492.52,-1229.57C1614.88,-1203.19 1886.29,-1144.66 2024.95,-1114.77"/>
<polygon fill="black" stroke="black" points="2026.07,-1118.1 2035.1,-1112.58 2024.59,-1111.26 2026.07,-1118.1"/>
</g>
<!-- degree&#45;&gt;MATH 1316 -->
<g id="edge59" class="edge">
<title>degree&#45;&gt;MATH 1316</title>
<path fill="none" stroke="black" d="M1505.97,-1231.64C1646.99,-1210.33 1958.93,-1162.57 2221.07,-1118.04 2230.04,-1116.52 2239.38,-1114.89 2248.71,-1113.24"/>
<polygon fill="black" stroke="black" points="2249.58,-1116.64 2258.81,-1111.44 2248.35,-1109.74 2249.58,-1116.64"/>
</g>
<!-- degree&#45;&gt;RHET 1301 -->
<g id="edge60" class="edge">
<title>degree&#45;&gt;RHET 1301</title>
<path fill="none" stroke="black" d="M1517.81,-1234.18C1694.91,-1215.88 2107.57,-1171.17 2452.07,-1118.04 2461.06,-1116.65 2470.43,-1115.09 2479.77,-1113.47"/>
<polygon fill="black" stroke="black" points="2480.63,-1116.87 2489.87,-1111.68 2479.41,-1109.98 2480.63,-1116.87"/>
</g>
</g>
</svg>
