<?xml version="1.0" encoding="UTF-8" standalone="no"?>
<!DOCTYPE svg PUBLIC "-//W3C//DTD SVG 1.1//EN"
 "http://www.w3.org/Graphics/SVG/1.1/DTD/svg11.dtd">
<!-- Generated by graphviz version 2.43.0 (0)
 -->
<!-- Title: graph_name Pages: 1 -->
<svg width="792pt" height="556pt"
 viewBox="0.00 0.00 792.00 555.69" xmlns="http://www.w3.org/2000/svg" xmlns:xlink="http://www.w3.org/1999/xlink">
<g id="graph0" class="graph" transform="scale(0.29 0.29) rotate(0) translate(4 1883.04)">
<title>graph_name</title>
<polygon fill="white" stroke="transparent" points="-4,4 -4,-1883.04 2685.5,-1883.04 2685.5,4 -4,4"/>
<text text-anchor="middle" x="1340.75" y="-1851.04" font-family="Times,serif" font-size="30.00">Degree Plan</text>
<!-- ECS 1100 -->
<g id="node1" class="node">
<title>ECS 1100</title>
<ellipse fill="lightgreen" stroke="black" cx="212.07" cy="-1599.41" rx="144.5" ry="22.76"/>
<text text-anchor="middle" x="212.07" y="-1603.21" font-family="Times,serif" font-size="14.00">ECS 1100 &#45; 2025 Fall</text>
<text text-anchor="middle" x="212.07" y="-1588.21" font-family="Times,serif" font-size="14.00">Intro to Engineering and CS</text>
</g>
<!-- CS 1200 -->
<g id="node2" class="node">
<title>CS 1200</title>
<ellipse fill="lightgreen" stroke="black" cx="459.07" cy="-1599.41" rx="101.65" ry="22.76"/>
<text text-anchor="middle" x="459.07" y="-1603.21" font-family="Times,serif" font-size="14.00">CS 1200 &#45; 2025 Fall</text>
<text text-anchor="middle" x="459.07" y="-1588.21" font-family="Times,serif" font-size="14.00">Intro to CS and SE</text>
</g>
<!-- MATH 2413 -->
<g id="node3" class="node">
<title>MATH 2413</title>
<ellipse fill="lightgreen" stroke="black" cx="676.07" cy="-1374.16" rx="114.6" ry="22.76"/>
<text text-anchor="middle" x="676.07" y="-1377.96" font-family="Times,serif" font-size="14.00">MATH 2413 &#45; Transfer</text>
<text text-anchor="middle" x="676.07" y="-1362.96" font-family="Times,serif" font-size="14.00">Differential Calculus</text>
</g>
<!-- MATH 2414 -->
<g id="node6" class="node">
<title>MATH 2414</title>
<ellipse fill="lightgreen" stroke="black" cx="602.07" cy="-1148.9" rx="118.59" ry="22.76"/>
<text text-anchor="middle" x="602.07" y="-1152.7" font-family="Times,serif" font-size="14.00">MATH 2414 &#45; 2025 Fall</text>
<text text-anchor="middle" x="602.07" y="-1137.7" font-family="Times,serif" font-size="14.00">Integral Calculus</text>
</g>
<!-- MATH 2413&#45;&gt;MATH 2414 -->
<g id="edge2" class="edge">
<title>MATH 2413&#45;&gt;MATH 2414</title>
<path fill="none" stroke="black" d="M668.84,-1351.34C655.68,-1311.66 627.8,-1227.53 612.56,-1181.55"/>
<polygon fill="black" stroke="black" points="615.79,-1180.19 609.33,-1171.8 609.15,-1182.4 615.79,-1180.19"/>
</g>
<!-- PHYS 2325 -->
<g id="node8" class="node">
<title>PHYS 2325</title>
<ellipse fill="yellow" stroke="black" cx="365.07" cy="-1148.9" rx="59.29" ry="22.76"/>
<text text-anchor="middle" x="365.07" y="-1152.7" font-family="Times,serif" font-size="14.00">PHYS 2325</text>
<text text-anchor="middle" x="365.07" y="-1137.7" font-family="Times,serif" font-size="14.00">Mechanics</text>
</g>
<!-- MATH 2413&#45;&gt;PHYS 2325 -->
<g id="edge4" class="edge">
<title>MATH 2413&#45;&gt;PHYS 2325</title>
<path fill="none" stroke="black" d="M646.81,-1352.15C589.47,-1311 462.54,-1219.88 400.54,-1175.37"/>
<polygon fill="black" stroke="black" points="402.4,-1172.39 392.24,-1169.41 398.32,-1178.08 402.4,-1172.39"/>
</g>
<!-- CS 2305 -->
<g id="node10" class="node">
<title>CS 2305</title>
<ellipse fill="yellow" stroke="black" cx="1166.07" cy="-1148.9" rx="196.65" ry="22.76"/>
<text text-anchor="middle" x="1166.07" y="-1152.7" font-family="Times,serif" font-size="14.00">CS 2305</text>
<text text-anchor="middle" x="1166.07" y="-1137.7" font-family="Times,serif" font-size="14.00">Discrete Mathematics for Computing I</text>
</g>
<!-- MATH 2413&#45;&gt;CS 2305 -->
<g id="edge6" class="edge">
<title>MATH 2413&#45;&gt;CS 2305</title>
<path fill="none" stroke="black" d="M719.98,-1353.15C809.41,-1312.4 1012.5,-1219.87 1110.76,-1175.1"/>
<polygon fill="black" stroke="black" points="1112.29,-1178.25 1119.94,-1170.92 1109.38,-1171.88 1112.29,-1178.25"/>
</g>
<!-- MATH 2418 -->
<g id="node16" class="node">
<title>MATH 2418</title>
<ellipse fill="yellow" stroke="black" cx="809.07" cy="-1148.9" rx="76.24" ry="22.76"/>
<text text-anchor="middle" x="809.07" y="-1152.7" font-family="Times,serif" font-size="14.00">MATH 2418</text>
<text text-anchor="middle" x="809.07" y="-1137.7" font-family="Times,serif" font-size="14.00">Linear Algebra</text>
</g>
<!-- MATH 2413&#45;&gt;MATH 2418 -->
<g id="edge14" class="edge">
<title>MATH 2413&#45;&gt;MATH 2418</title>
<path fill="none" stroke="black" d="M689.06,-1351.34C712.91,-1311.31 763.71,-1226.04 790.94,-1180.33"/>
<polygon fill="black" stroke="black" points="794.1,-1181.86 796.21,-1171.47 788.09,-1178.27 794.1,-1181.86"/>
</g>
<!-- MATH 2312 -->
<g id="node4" class="node">
<title>MATH 2312</title>
<ellipse fill="lightgreen" stroke="black" cx="676.07" cy="-1599.41" rx="114.6" ry="22.76"/>
<text text-anchor="middle" x="676.07" y="-1603.21" font-family="Times,serif" font-size="14.00">MATH 2312 &#45; Transfer</text>
<text text-anchor="middle" x="676.07" y="-1588.21" font-family="Times,serif" font-size="14.00">Precalculus</text>
</g>
<!-- MATH 2312&#45;&gt;MATH 2413 -->
<g id="edge1" class="edge">
<title>MATH 2312&#45;&gt;MATH 2413</title>
<path fill="none" stroke="black" d="M676.07,-1576.6C676.07,-1537 676.07,-1453.14 676.07,-1407.09"/>
<polygon fill="black" stroke="black" points="679.57,-1407.06 676.07,-1397.06 672.57,-1407.06 679.57,-1407.06"/>
</g>
<!-- CS 1436 -->
<g id="node5" class="node">
<title>CS 1436</title>
<ellipse fill="lightgreen" stroke="black" cx="938.07" cy="-1599.41" rx="146.24" ry="22.76"/>
<text text-anchor="middle" x="938.07" y="-1603.21" font-family="Times,serif" font-size="14.00">CS 1436 &#45; Transfer</text>
<text text-anchor="middle" x="938.07" y="-1588.21" font-family="Times,serif" font-size="14.00">Programming Fundamentals</text>
</g>
<!-- CS 1337 -->
<g id="node7" class="node">
<title>CS 1337</title>
<ellipse fill="lightgreen" stroke="black" cx="1540.07" cy="-1374.16" rx="101.23" ry="22.76"/>
<text text-anchor="middle" x="1540.07" y="-1377.96" font-family="Times,serif" font-size="14.00">CS 1337 &#45; Transfer</text>
<text text-anchor="middle" x="1540.07" y="-1362.96" font-family="Times,serif" font-size="14.00">Computer Science I</text>
</g>
<!-- CS 1436&#45;&gt;CS 1337 -->
<g id="edge3" class="edge">
<title>CS 1436&#45;&gt;CS 1337</title>
<path fill="none" stroke="black" d="M992.29,-1578.3C1104.73,-1536.6 1362.59,-1440.97 1479.94,-1397.46"/>
<polygon fill="black" stroke="black" points="1481.33,-1400.67 1489.49,-1393.91 1478.9,-1394.11 1481.33,-1400.67"/>
</g>
<!-- MATH 4332 -->
<g id="node13" class="node">
<title>MATH 4332</title>
<ellipse fill="yellow" stroke="black" cx="590.07" cy="-923.65" rx="72.25" ry="22.76"/>
<text text-anchor="middle" x="590.07" y="-927.45" font-family="Times,serif" font-size="14.00">MATH 4332</text>
<text text-anchor="middle" x="590.07" y="-912.45" font-family="Times,serif" font-size="14.00">Math Elective</text>
</g>
<!-- MATH 2414&#45;&gt;MATH 4332 -->
<g id="edge10" class="edge">
<title>MATH 2414&#45;&gt;MATH 4332</title>
<path fill="none" stroke="black" d="M600.89,-1126.09C598.77,-1086.49 594.26,-1002.63 591.78,-956.58"/>
<polygon fill="black" stroke="black" points="595.28,-956.35 591.24,-946.55 588.29,-956.72 595.28,-956.35"/>
</g>
<!-- PHYS 2326 -->
<g id="node14" class="node">
<title>PHYS 2326</title>
<ellipse fill="#b2dfee" stroke="black" cx="365.07" cy="-923.65" rx="152.06" ry="22.76"/>
<text text-anchor="middle" x="365.07" y="-927.45" font-family="Times,serif" font-size="14.00">PHYS 2326</text>
<text text-anchor="middle" x="365.07" y="-912.45" font-family="Times,serif" font-size="14.00">Electromagnetism and Waves</text>
</g>
<!-- MATH 2414&#45;&gt;PHYS 2326 -->
<g id="edge11" class="edge">
<title>MATH 2414&#45;&gt;PHYS 2326</title>
<path fill="none" stroke="black" d="M579.34,-1126.49C536.45,-1086.09 443.56,-998.59 395.4,-953.22"/>
<polygon fill="black" stroke="black" points="397.75,-950.63 388.07,-946.32 392.95,-955.72 397.75,-950.63"/>
</g>
<!-- SE 3341 -->
<g id="node18" class="node">
<title>SE 3341</title>
<ellipse fill="#b2dfee" stroke="black" cx="831.07" cy="-923.65" rx="168.08" ry="22.76"/>
<text text-anchor="middle" x="831.07" y="-927.45" font-family="Times,serif" font-size="14.00">SE 3341</text>
<text text-anchor="middle" x="831.07" y="-912.45" font-family="Times,serif" font-size="14.00">Probability &amp; Statistics in CS/SE</text>
</g>
<!-- MATH 2414&#45;&gt;SE 3341 -->
<g id="edge16" class="edge">
<title>MATH 2414&#45;&gt;SE 3341</title>
<path fill="none" stroke="black" d="M624.02,-1126.49C665.38,-1086.18 754.85,-998.95 801.47,-953.5"/>
<polygon fill="black" stroke="black" points="804.12,-955.8 808.84,-946.32 799.23,-950.79 804.12,-955.8"/>
</g>
<!-- CS 2337 -->
<g id="node11" class="node">
<title>CS 2337</title>
<ellipse fill="lightgreen" stroke="black" cx="1636.07" cy="-1148.9" rx="104.8" ry="22.76"/>
<text text-anchor="middle" x="1636.07" y="-1152.7" font-family="Times,serif" font-size="14.00">CS 2337 &#45; 2025 Fall</text>
<text text-anchor="middle" x="1636.07" y="-1137.7" font-family="Times,serif" font-size="14.00">Computer Science II</text>
</g>
<!-- CS 1337&#45;&gt;CS 2337 -->
<g id="edge7" class="edge">
<title>CS 1337&#45;&gt;CS 2337</title>
<path fill="none" stroke="black" d="M1549.45,-1351.34C1566.59,-1311.48 1603.02,-1226.75 1622.73,-1180.9"/>
<polygon fill="black" stroke="black" points="1626.05,-1182.04 1626.79,-1171.47 1619.62,-1179.28 1626.05,-1182.04"/>
</g>
<!-- SE 2340 -->
<g id="node12" class="node">
<title>SE 2340</title>
<ellipse fill="#b2dfee" stroke="red" stroke-width="7" cx="2163.07" cy="-923.65" rx="118.59" ry="22.76"/>
<text text-anchor="middle" x="2163.07" y="-927.45" font-family="Times,serif" font-size="14.00">SE 2340</text>
<text text-anchor="middle" x="2163.07" y="-912.45" font-family="Times,serif" font-size="14.00">Computer Architecture</text>
</g>
<!-- CS 1337&#45;&gt;SE 2340 -->
<g id="edge8" class="edge">
<title>CS 1337&#45;&gt;SE 2340</title>
<path fill="none" stroke="black" d="M1568.87,-1352.42C1670.32,-1279.38 2011.17,-1034 2125.4,-951.77"/>
<polygon fill="black" stroke="black" points="2127.78,-954.36 2133.85,-945.68 2123.69,-948.68 2127.78,-954.36"/>
</g>
<!-- PHYS 2125 -->
<g id="node9" class="node">
<title>PHYS 2125</title>
<ellipse fill="#b2dfee" stroke="black" cx="106.07" cy="-923.65" rx="106.13" ry="22.76"/>
<text text-anchor="middle" x="106.07" y="-927.45" font-family="Times,serif" font-size="14.00">PHYS 2125</text>
<text text-anchor="middle" x="106.07" y="-912.45" font-family="Times,serif" font-size="14.00">Physics Laboratory I</text>
</g>
<!-- PHYS 2325&#45;&gt;PHYS 2125 -->
<g id="edge5" class="edge">
<title>PHYS 2325&#45;&gt;PHYS 2125</title>
<path fill="none" stroke="black" d="M341.62,-1127.7C295.2,-1087.67 191.46,-998.26 138.51,-952.62"/>
<polygon fill="black" stroke="black" points="140.63,-949.82 130.78,-945.95 136.06,-955.13 140.63,-949.82"/>
</g>
<!-- PHYS 2325&#45;&gt;PHYS 2326 -->
<g id="edge12" class="edge">
<title>PHYS 2325&#45;&gt;PHYS 2326</title>
<path fill="none" stroke="black" d="M365.07,-1126.09C365.07,-1086.49 365.07,-1002.63 365.07,-956.58"/>
<polygon fill="black" stroke="black" points="368.57,-956.55 365.07,-946.55 361.57,-956.55 368.57,-956.55"/>
</g>
<!-- CS 2305&#45;&gt;SE 2340 -->
<g id="edge9" class="edge">
<title>CS 2305&#45;&gt;SE 2340</title>
<path fill="none" stroke="black" d="M1252.8,-1128.48C1442.35,-1086.04 1891.49,-985.46 2078.78,-943.52"/>
<polygon fill="black" stroke="black" points="2079.59,-946.93 2088.58,-941.33 2078.06,-940.1 2079.59,-946.93"/>
</g>
<!-- SE 3306 -->
<g id="node17" class="node">
<title>SE 3306</title>
<ellipse fill="#b2dfee" stroke="red" stroke-width="7" cx="1166.07" cy="-923.65" rx="163.18" ry="22.76"/>
<text text-anchor="middle" x="1166.07" y="-927.45" font-family="Times,serif" font-size="14.00">SE 3306</text>
<text text-anchor="middle" x="1166.07" y="-912.45" font-family="Times,serif" font-size="14.00">Mathematics Foundations of SE</text>
</g>
<!-- CS 2305&#45;&gt;SE 3306 -->
<g id="edge15" class="edge">
<title>CS 2305&#45;&gt;SE 3306</title>
<path fill="none" stroke="black" d="M1166.07,-1126.09C1166.07,-1086.49 1166.07,-1002.63 1166.07,-956.58"/>
<polygon fill="black" stroke="black" points="1169.57,-956.55 1166.07,-946.55 1162.57,-956.55 1169.57,-956.55"/>
</g>
<!-- CS 2305&#45;&gt;SE 3341 -->
<g id="edge17" class="edge">
<title>CS 2305&#45;&gt;SE 3341</title>
<path fill="none" stroke="black" d="M1133.94,-1126.49C1072.66,-1085.66 939.17,-996.69 871.76,-951.77"/>
<polygon fill="black" stroke="black" points="873.35,-948.62 863.09,-945.99 869.47,-954.45 873.35,-948.62"/>
</g>
<!-- SE 3345 -->
<g id="node19" class="node">
<title>SE 3345</title>
<ellipse fill="#b2dfee" stroke="red" stroke-width="7" cx="1574.07" cy="-923.65" rx="243.9" ry="22.76"/>
<text text-anchor="middle" x="1574.07" y="-927.45" font-family="Times,serif" font-size="14.00">SE 3345</text>
<text text-anchor="middle" x="1574.07" y="-912.45" font-family="Times,serif" font-size="14.00">Data Structures &amp; Intro to Algorithmic Analysis</text>
</g>
<!-- CS 2305&#45;&gt;SE 3345 -->
<g id="edge19" class="edge">
<title>CS 2305&#45;&gt;SE 3345</title>
<path fill="none" stroke="black" d="M1204.82,-1126.7C1279.71,-1085.72 1444.12,-995.75 1525.9,-951"/>
<polygon fill="black" stroke="black" points="1527.88,-953.91 1534.98,-946.04 1524.52,-947.77 1527.88,-953.91"/>
</g>
<!-- SE 3354 -->
<g id="node23" class="node">
<title>SE 3354</title>
<ellipse fill="#b2dfee" stroke="red" stroke-width="7" cx="1931.07" cy="-923.65" rx="112.36" ry="22.76"/>
<text text-anchor="middle" x="1931.07" y="-927.45" font-family="Times,serif" font-size="14.00">SE 3354</text>
<text text-anchor="middle" x="1931.07" y="-912.45" font-family="Times,serif" font-size="14.00">Software Engineering</text>
</g>
<!-- CS 2305&#45;&gt;SE 3354 -->
<g id="edge23" class="edge">
<title>CS 2305&#45;&gt;SE 3354</title>
<path fill="none" stroke="black" d="M1235.3,-1127.7C1380.02,-1085.46 1713.2,-988.23 1859.72,-945.47"/>
<polygon fill="black" stroke="black" points="1860.9,-948.77 1869.52,-942.61 1858.94,-942.05 1860.9,-948.77"/>
</g>
<!-- CS 4384 -->
<g id="node33" class="node">
<title>CS 4384</title>
<ellipse fill="#b2dfee" stroke="black" cx="1169.07" cy="-473.14" rx="110.12" ry="22.76"/>
<text text-anchor="middle" x="1169.07" y="-476.94" font-family="Times,serif" font-size="14.00">CS 4384</text>
<text text-anchor="middle" x="1169.07" y="-461.94" font-family="Times,serif" font-size="14.00">SE Technical Elective</text>
</g>
<!-- CS 2305&#45;&gt;CS 4384 -->
<g id="edge39" class="edge">
<title>CS 2305&#45;&gt;CS 4384</title>
<path fill="none" stroke="black" d="M1140.4,-1126.35C1102.41,-1092.58 1032.84,-1023.07 1006.07,-946.27 995.86,-917 992.67,-771.59 1028.07,-675.76 1053.49,-606.93 1108.28,-539.69 1141.58,-502.9"/>
<polygon fill="black" stroke="black" points="1144.17,-505.25 1148.34,-495.52 1139.01,-500.53 1144.17,-505.25"/>
</g>
<!-- CS 2337&#45;&gt;SE 3345 -->
<g id="edge20" class="edge">
<title>CS 2337&#45;&gt;SE 3345</title>
<path fill="none" stroke="black" d="M1630.01,-1126.09C1618.99,-1086.41 1595.63,-1002.28 1582.85,-956.29"/>
<polygon fill="black" stroke="black" points="1586.2,-955.25 1580.15,-946.55 1579.45,-957.12 1586.2,-955.25"/>
</g>
<!-- SE 3377 -->
<g id="node20" class="node">
<title>SE 3377</title>
<ellipse fill="yellow" stroke="black" cx="2482.07" cy="-923.65" rx="199.31" ry="22.76"/>
<text text-anchor="middle" x="2482.07" y="-927.45" font-family="Times,serif" font-size="14.00">SE 3377</text>
<text text-anchor="middle" x="2482.07" y="-912.45" font-family="Times,serif" font-size="14.00">C/C++ Programming in a UNIX Envirn</text>
</g>
<!-- CS 2337&#45;&gt;SE 3377 -->
<g id="edge21" class="edge">
<title>CS 2337&#45;&gt;SE 3377</title>
<path fill="none" stroke="black" d="M1700.35,-1130.94C1850.91,-1091.2 2226.49,-992.09 2396.3,-947.28"/>
<polygon fill="black" stroke="black" points="2397.42,-950.6 2406.2,-944.67 2395.63,-943.84 2397.42,-950.6"/>
</g>
<!-- CS 2337&#45;&gt;SE 3354 -->
<g id="edge24" class="edge">
<title>CS 2337&#45;&gt;SE 3354</title>
<path fill="none" stroke="black" d="M1663.82,-1126.9C1717.52,-1086.26 1835.58,-996.91 1895.17,-951.82"/>
<polygon fill="black" stroke="black" points="1897.31,-954.58 1903.17,-945.76 1893.09,-949 1897.31,-954.58"/>
</g>
<!-- SE 4348 -->
<g id="node24" class="node">
<title>SE 4348</title>
<ellipse fill="#b2dfee" stroke="red" stroke-width="7" cx="2153.07" cy="-698.39" rx="148.48" ry="22.76"/>
<text text-anchor="middle" x="2153.07" y="-702.19" font-family="Times,serif" font-size="14.00">SE 4348</text>
<text text-anchor="middle" x="2153.07" y="-687.19" font-family="Times,serif" font-size="14.00">Operating Systems Concepts</text>
</g>
<!-- SE 2340&#45;&gt;SE 4348 -->
<g id="edge26" class="edge">
<title>SE 2340&#45;&gt;SE 4348</title>
<path fill="none" stroke="black" d="M2162.09,-900.83C2160.32,-861.24 2156.56,-777.38 2154.5,-731.33"/>
<polygon fill="black" stroke="black" points="2157.99,-731.13 2154.05,-721.29 2151,-731.44 2157.99,-731.13"/>
</g>
<!-- PHYS 2126 -->
<g id="node15" class="node">
<title>PHYS 2126</title>
<ellipse fill="#b2dfee" stroke="black" cx="365.07" cy="-698.39" rx="109.7" ry="22.76"/>
<text text-anchor="middle" x="365.07" y="-702.19" font-family="Times,serif" font-size="14.00">PHYS 2126</text>
<text text-anchor="middle" x="365.07" y="-687.19" font-family="Times,serif" font-size="14.00">Physics Laboratory II</text>
</g>
<!-- PHYS 2326&#45;&gt;PHYS 2126 -->
<g id="edge13" class="edge">
<title>PHYS 2326&#45;&gt;PHYS 2126</title>
<path fill="none" stroke="black" d="M365.07,-900.83C365.07,-861.24 365.07,-777.38 365.07,-731.33"/>
<polygon fill="black" stroke="black" points="368.57,-731.29 365.07,-721.29 361.57,-731.29 368.57,-731.29"/>
</g>
<!-- MATH 2418&#45;&gt;SE 3341 -->
<g id="edge18" class="edge">
<title>MATH 2418&#45;&gt;SE 3341</title>
<path fill="none" stroke="black" d="M811.22,-1126.09C815.12,-1086.49 823.38,-1002.63 827.92,-956.58"/>
<polygon fill="black" stroke="black" points="831.41,-956.84 828.91,-946.55 824.44,-956.16 831.41,-956.84"/>
</g>
<!-- SE 4351 -->
<g id="node27" class="node">
<title>SE 4351</title>
<ellipse fill="#b2dfee" stroke="black" cx="1166.07" cy="-698.39" rx="137.77" ry="22.76"/>
<text text-anchor="middle" x="1166.07" y="-702.19" font-family="Times,serif" font-size="14.00">SE 4351</text>
<text text-anchor="middle" x="1166.07" y="-687.19" font-family="Times,serif" font-size="14.00">Requirements Engineering</text>
</g>
<!-- SE 3306&#45;&gt;SE 4351 -->
<g id="edge31" class="edge">
<title>SE 3306&#45;&gt;SE 4351</title>
<path fill="none" stroke="black" d="M1166.07,-900.83C1166.07,-861.24 1166.07,-777.38 1166.07,-731.33"/>
<polygon fill="black" stroke="black" points="1169.57,-731.29 1166.07,-721.29 1162.57,-731.29 1169.57,-731.29"/>
</g>
<!-- SE 4367 -->
<g id="node28" class="node">
<title>SE 4367</title>
<ellipse fill="#b2dfee" stroke="red" stroke-width="7" cx="1816.07" cy="-698.39" rx="169.91" ry="22.76"/>
<text text-anchor="middle" x="1816.07" y="-702.19" font-family="Times,serif" font-size="14.00">SE 4367</text>
<text text-anchor="middle" x="1816.07" y="-687.19" font-family="Times,serif" font-size="14.00">Software Testing, Verif, Valid, QA</text>
</g>
<!-- SE 3306&#45;&gt;SE 4367 -->
<g id="edge33" class="edge">
<title>SE 3306&#45;&gt;SE 4367</title>
<path fill="none" stroke="black" d="M1224.9,-902.44C1345.2,-861.12 1618.81,-767.14 1747.17,-723.06"/>
<polygon fill="black" stroke="black" points="1748.58,-726.27 1756.9,-719.71 1746.31,-719.65 1748.58,-726.27"/>
</g>
<!-- SE 3345&#45;&gt;SE 4348 -->
<g id="edge27" class="edge">
<title>SE 3345&#45;&gt;SE 4348</title>
<path fill="none" stroke="black" d="M1628.8,-901.54C1736.86,-859.88 1976.98,-767.29 2090.85,-723.38"/>
<polygon fill="black" stroke="black" points="2092.4,-726.53 2100.48,-719.67 2089.89,-720 2092.4,-726.53"/>
</g>
<!-- SE 3345&#45;&gt;SE 4351 -->
<g id="edge32" class="edge">
<title>SE 3345&#45;&gt;SE 4351</title>
<path fill="none" stroke="black" d="M1534.95,-901.24C1459.57,-859.99 1294.48,-769.66 1213.19,-725.18"/>
<polygon fill="black" stroke="black" points="1214.63,-721.98 1204.18,-720.25 1211.27,-728.12 1214.63,-721.98"/>
</g>
<!-- SE 3377&#45;&gt;SE 4348 -->
<g id="edge28" class="edge">
<title>SE 3377&#45;&gt;SE 4348</title>
<path fill="none" stroke="black" d="M2450.52,-901.24C2390.34,-860.4 2259.24,-771.44 2193.03,-726.51"/>
<polygon fill="black" stroke="black" points="2194.76,-723.45 2184.52,-720.73 2190.83,-729.25 2194.76,-723.45"/>
</g>
<!-- ECS 2390 -->
<g id="node21" class="node">
<title>ECS 2390</title>
<ellipse fill="yellow" stroke="black" cx="1851.07" cy="-1374.16" rx="208.69" ry="22.76"/>
<text text-anchor="middle" x="1851.07" y="-1377.96" font-family="Times,serif" font-size="14.00">ECS 2390</text>
<text text-anchor="middle" x="1851.07" y="-1362.96" font-family="Times,serif" font-size="14.00">Professional &amp; Technical Communication</text>
</g>
<!-- ECS 2390&#45;&gt;SE 3354 -->
<g id="edge25" class="edge">
<title>ECS 2390&#45;&gt;SE 3354</title>
<path fill="none" stroke="black" d="M1854.92,-1351.52C1867.91,-1278.71 1910.09,-1042.26 1925.42,-956.28"/>
<polygon fill="black" stroke="black" points="1928.89,-956.78 1927.2,-946.32 1922,-955.55 1928.89,-956.78"/>
</g>
<!-- SE 3162 -->
<g id="node25" class="node">
<title>SE 3162</title>
<ellipse fill="#b2dfee" stroke="black" cx="2160.07" cy="-1148.9" rx="186.85" ry="22.76"/>
<text text-anchor="middle" x="2160.07" y="-1152.7" font-family="Times,serif" font-size="14.00">SE 3162</text>
<text text-anchor="middle" x="2160.07" y="-1137.7" font-family="Times,serif" font-size="14.00">Professional Responsibility in CS/SE</text>
</g>
<!-- ECS 2390&#45;&gt;SE 3162 -->
<g id="edge29" class="edge">
<title>ECS 2390&#45;&gt;SE 3162</title>
<path fill="none" stroke="black" d="M1880.69,-1351.75C1936.96,-1311.1 2059.22,-1222.76 2121.67,-1177.64"/>
<polygon fill="black" stroke="black" points="2124.02,-1180.26 2130.07,-1171.57 2119.92,-1174.59 2124.02,-1180.26"/>
</g>
<!-- RHET 1302 -->
<g id="node22" class="node">
<title>RHET 1302</title>
<ellipse fill="lightgreen" stroke="black" cx="1198.07" cy="-1599.41" rx="112.36" ry="22.76"/>
<text text-anchor="middle" x="1198.07" y="-1603.21" font-family="Times,serif" font-size="14.00">RHET 1302 &#45; Transfer</text>
<text text-anchor="middle" x="1198.07" y="-1588.21" font-family="Times,serif" font-size="14.00">Core: 010</text>
</g>
<!-- RHET 1302&#45;&gt;ECS 2390 -->
<g id="edge22" class="edge">
<title>RHET 1302&#45;&gt;ECS 2390</title>
<path fill="none" stroke="black" d="M1253.18,-1579.57C1371.52,-1539.11 1649.78,-1443.97 1780.67,-1399.22"/>
<polygon fill="black" stroke="black" points="1781.89,-1402.51 1790.22,-1395.96 1779.62,-1395.88 1781.89,-1402.51"/>
</g>
<!-- SE 3354&#45;&gt;SE 4367 -->
<g id="edge34" class="edge">
<title>SE 3354&#45;&gt;SE 4367</title>
<path fill="none" stroke="black" d="M1919.83,-900.83C1899.3,-860.99 1855.69,-776.32 1832.07,-730.46"/>
<polygon fill="black" stroke="black" points="1835.04,-728.58 1827.35,-721.29 1828.82,-731.79 1835.04,-728.58"/>
</g>
<!-- CS 4397 -->
<g id="node32" class="node">
<title>CS 4397</title>
<ellipse fill="#b2dfee" stroke="black" cx="2153.07" cy="-473.14" rx="110.12" ry="22.76"/>
<text text-anchor="middle" x="2153.07" y="-476.94" font-family="Times,serif" font-size="14.00">CS 4397</text>
<text text-anchor="middle" x="2153.07" y="-461.94" font-family="Times,serif" font-size="14.00">SE Technical Elective</text>
</g>
<!-- SE 4348&#45;&gt;CS 4397 -->
<g id="edge38" class="edge">
<title>SE 4348&#45;&gt;CS 4397</title>
<path fill="none" stroke="black" d="M2153.07,-675.58C2153.07,-635.98 2153.07,-552.12 2153.07,-506.07"/>
<polygon fill="black" stroke="black" points="2156.57,-506.04 2153.07,-496.04 2149.57,-506.04 2156.57,-506.04"/>
</g>
<!-- FAST TRACK -->
<g id="node42" class="node">
<title>FAST TRACK</title>
<ellipse fill="#b2dfee" stroke="red" stroke-width="7" cx="1816.07" cy="-473.14" rx="206.45" ry="22.76"/>
<text text-anchor="middle" x="1816.07" y="-476.94" font-family="Times,serif" font-size="14.00">FAST TRACK</text>
<text text-anchor="middle" x="1816.07" y="-461.94" font-family="Times,serif" font-size="14.00">Fast Track Program Benchmark Courses</text>
</g>
<!-- SE 4348&#45;&gt;FAST TRACK -->
<g id="edge40" class="edge">
<title>SE 4348&#45;&gt;FAST TRACK</title>
<path fill="none" stroke="black" d="M2121.06,-676.19C2059.58,-635.46 1925.05,-546.34 1857.09,-501.32"/>
<polygon fill="black" stroke="black" points="1858.62,-498.13 1848.35,-495.53 1854.76,-503.97 1858.62,-498.13"/>
</g>
<!-- GOVT 2305 -->
<g id="node26" class="node">
<title>GOVT 2305</title>
<ellipse fill="lightgreen" stroke="black" cx="2177.07" cy="-1374.16" rx="116.85" ry="22.76"/>
<text text-anchor="middle" x="2177.07" y="-1377.96" font-family="Times,serif" font-size="14.00">GOVT 2305 &#45; 2025 Fall</text>
<text text-anchor="middle" x="2177.07" y="-1362.96" font-family="Times,serif" font-size="14.00">Core: 070</text>
</g>
<!-- GOVT 2305&#45;&gt;SE 3162 -->
<g id="edge30" class="edge">
<title>GOVT 2305&#45;&gt;SE 3162</title>
<path fill="none" stroke="black" d="M2175.41,-1351.34C2172.39,-1311.75 2166,-1227.89 2162.5,-1181.84"/>
<polygon fill="black" stroke="black" points="2165.98,-1181.51 2161.73,-1171.8 2159,-1182.04 2165.98,-1181.51"/>
</g>
<!-- SE 4485 -->
<g id="node29" class="node">
<title>SE 4485</title>
<ellipse fill="#b2dfee" stroke="black" cx="2060.07" cy="-22.63" rx="152.06" ry="22.76"/>
<text text-anchor="middle" x="2060.07" y="-26.43" font-family="Times,serif" font-size="14.00">SE 4485</text>
<text text-anchor="middle" x="2060.07" y="-11.43" font-family="Times,serif" font-size="14.00">Software Engineering Project</text>
</g>
<!-- SE 4351&#45;&gt;SE 4485 -->
<g id="edge35" class="edge">
<title>SE 4351&#45;&gt;SE 4485</title>
<path fill="none" stroke="black" d="M1145.18,-675.77C1078.21,-603.85 880,-369.08 999.07,-225.25 1112.21,-88.59 1637.93,-43.79 1904.37,-29.73"/>
<polygon fill="black" stroke="black" points="1904.72,-33.21 1914.52,-29.2 1904.35,-26.22 1904.72,-33.21"/>
</g>
<!-- SE 4367&#45;&gt;FAST TRACK -->
<g id="edge41" class="edge">
<title>SE 4367&#45;&gt;FAST TRACK</title>
<path fill="none" stroke="black" d="M1816.07,-675.58C1816.07,-635.98 1816.07,-552.12 1816.07,-506.07"/>
<polygon fill="black" stroke="black" points="1819.57,-506.04 1816.07,-496.04 1812.57,-506.04 1819.57,-506.04"/>
</g>
<!-- SE 6388 -->
<g id="node30" class="node">
<title>SE 6388</title>
<ellipse fill="#b2dfee" stroke="black" cx="2060.07" cy="-247.88" rx="156.04" ry="22.76"/>
<text text-anchor="middle" x="2060.07" y="-251.68" font-family="Times,serif" font-size="14.00">SE 6388</text>
<text text-anchor="middle" x="2060.07" y="-236.68" font-family="Times,serif" font-size="14.00">Software Project Management</text>
</g>
<!-- SE 6388&#45;&gt;SE 4485 -->
<g id="edge36" class="edge">
<title>SE 6388&#45;&gt;SE 4485</title>
<path fill="none" stroke="black" d="M2060.07,-225.07C2060.07,-185.47 2060.07,-101.61 2060.07,-55.56"/>
<polygon fill="black" stroke="black" points="2063.57,-55.53 2060.07,-45.53 2056.57,-55.53 2063.57,-55.53"/>
</g>
<!-- SE 6362 -->
<g id="node31" class="node">
<title>SE 6362</title>
<ellipse fill="#b2dfee" stroke="black" cx="2449.07" cy="-247.88" rx="231.86" ry="22.76"/>
<text text-anchor="middle" x="2449.07" y="-251.68" font-family="Times,serif" font-size="14.00">SE 6362</text>
<text text-anchor="middle" x="2449.07" y="-236.68" font-family="Times,serif" font-size="14.00">Architecture and Design *(Approval Needed)*</text>
</g>
<!-- SE 6362&#45;&gt;SE 4485 -->
<g id="edge37" class="edge">
<title>SE 6362&#45;&gt;SE 4485</title>
<path fill="none" stroke="black" d="M2411.77,-225.48C2340.13,-184.36 2183.54,-94.49 2105.77,-49.86"/>
<polygon fill="black" stroke="black" points="2107.1,-46.59 2096.68,-44.64 2103.61,-52.66 2107.1,-46.59"/>
</g>
<!-- CS 6371 -->
<g id="node45" class="node">
<title>CS 6371</title>
<ellipse fill="#b2dfee" stroke="black" cx="1232.07" cy="-247.88" rx="236.35" ry="22.76"/>
<text text-anchor="middle" x="1232.07" y="-251.68" font-family="Times,serif" font-size="14.00">CS 6371</text>
<text text-anchor="middle" x="1232.07" y="-236.68" font-family="Times,serif" font-size="14.00">Programming Languages *(Approval Needed)*</text>
</g>
<!-- CS 4384&#45;&gt;CS 6371 -->
<g id="edge45" class="edge">
<title>CS 4384&#45;&gt;CS 6371</title>
<path fill="none" stroke="black" d="M1175.22,-450.32C1186.42,-410.64 1210.16,-326.52 1223.14,-280.53"/>
<polygon fill="black" stroke="black" points="1226.54,-281.36 1225.89,-270.78 1219.8,-279.46 1226.54,-281.36"/>
</g>
<!-- GOVT 2306 -->
<g id="node34" class="node">
<title>GOVT 2306</title>
<ellipse fill="yellow" stroke="black" cx="1373.07" cy="-1599.41" rx="59.29" ry="22.76"/>
<text text-anchor="middle" x="1373.07" y="-1603.21" font-family="Times,serif" font-size="14.00">GOVT 2306</text>
<text text-anchor="middle" x="1373.07" y="-1588.21" font-family="Times,serif" font-size="14.00">Core: 070</text>
</g>
<!-- HIST 1301 -->
<g id="node35" class="node">
<title>HIST 1301</title>
<ellipse fill="yellow" stroke="black" cx="1489.07" cy="-1599.41" rx="55.72" ry="22.76"/>
<text text-anchor="middle" x="1489.07" y="-1603.21" font-family="Times,serif" font-size="14.00">HIST 1301</text>
<text text-anchor="middle" x="1489.07" y="-1588.21" font-family="Times,serif" font-size="14.00">Core: 060</text>
</g>
<!-- HIST 1302 -->
<g id="node36" class="node">
<title>HIST 1302</title>
<ellipse fill="yellow" stroke="black" cx="1602.07" cy="-1599.41" rx="55.72" ry="22.76"/>
<text text-anchor="middle" x="1602.07" y="-1603.21" font-family="Times,serif" font-size="14.00">HIST 1302</text>
<text text-anchor="middle" x="1602.07" y="-1588.21" font-family="Times,serif" font-size="14.00">Core: 060</text>
</g>
<!-- HIST 2322 -->
<g id="node37" class="node">
<title>HIST 2322</title>
<ellipse fill="lightgreen" stroke="black" cx="1767.07" cy="-1599.41" rx="108.38" ry="22.76"/>
<text text-anchor="middle" x="1767.07" y="-1603.21" font-family="Times,serif" font-size="14.00">HIST 2322 &#45; Transfer</text>
<text text-anchor="middle" x="1767.07" y="-1588.21" font-family="Times,serif" font-size="14.00">Core: 040</text>
</g>
<!-- THEA 1310 -->
<g id="node38" class="node">
<title>THEA 1310</title>
<ellipse fill="yellow" stroke="black" cx="1936.07" cy="-1599.41" rx="59.29" ry="22.76"/>
<text text-anchor="middle" x="1936.07" y="-1603.21" font-family="Times,serif" font-size="14.00">THEA 1310</text>
<text text-anchor="middle" x="1936.07" y="-1588.21" font-family="Times,serif" font-size="14.00">Core: 050</text>
</g>
<!-- GEOG 2303 -->
<g id="node39" class="node">
<title>GEOG 2303</title>
<ellipse fill="lightgreen" stroke="black" cx="2111.07" cy="-1599.41" rx="114.6" ry="22.76"/>
<text text-anchor="middle" x="2111.07" y="-1603.21" font-family="Times,serif" font-size="14.00">GEOG 2303 &#45; Transfer</text>
<text text-anchor="middle" x="2111.07" y="-1588.21" font-family="Times,serif" font-size="14.00">Core: 080</text>
</g>
<!-- MATH 1316 -->
<g id="node40" class="node">
<title>MATH 1316</title>
<ellipse fill="lightgreen" stroke="black" cx="2341.07" cy="-1599.41" rx="114.6" ry="22.76"/>
<text text-anchor="middle" x="2341.07" y="-1603.21" font-family="Times,serif" font-size="14.00">MATH 1316 &#45; Transfer</text>
<text text-anchor="middle" x="2341.07" y="-1588.21" font-family="Times,serif" font-size="14.00">Free Elective</text>
</g>
<!-- RHET 1301 -->
<g id="node41" class="node">
<title>RHET 1301</title>
<ellipse fill="lightgreen" stroke="black" cx="2569.07" cy="-1599.41" rx="112.36" ry="22.76"/>
<text text-anchor="middle" x="2569.07" y="-1603.21" font-family="Times,serif" font-size="14.00">RHET 1301 &#45; Transfer</text>
<text text-anchor="middle" x="2569.07" y="-1588.21" font-family="Times,serif" font-size="14.00">Free Elective</text>
</g>
<!-- FAST TRACK&#45;&gt;SE 6388 -->
<g id="edge47" class="edge">
<title>FAST TRACK&#45;&gt;SE 6388</title>
<path fill="none" stroke="black" d="M1839.91,-450.32C1884.3,-409.71 1979.59,-322.51 2028.97,-277.33"/>
<polygon fill="black" stroke="black" points="2031.47,-279.79 2036.49,-270.46 2026.75,-274.62 2031.47,-279.79"/>
</g>
<!-- FAST TRACK&#45;&gt;SE 6362 -->
<g id="edge44" class="edge">
<title>FAST TRACK&#45;&gt;SE 6362</title>
<path fill="none" stroke="black" d="M1874.77,-451.43C1992.01,-410.08 2254.64,-317.45 2379.96,-273.25"/>
<polygon fill="black" stroke="black" points="2381.21,-276.53 2389.47,-269.9 2378.88,-269.93 2381.21,-276.53"/>
</g>
<!-- SE 6329 -->
<g id="node43" class="node">
<title>SE 6329</title>
<ellipse fill="#b2dfee" stroke="black" cx="1590.07" cy="-247.88" rx="120.83" ry="22.76"/>
<text text-anchor="middle" x="1590.07" y="-251.68" font-family="Times,serif" font-size="14.00">SE 6329</text>
<text text-anchor="middle" x="1590.07" y="-236.68" font-family="Times,serif" font-size="14.00">Object Oriented Design</text>
</g>
<!-- FAST TRACK&#45;&gt;SE 6329 -->
<g id="edge42" class="edge">
<title>FAST TRACK&#45;&gt;SE 6329</title>
<path fill="none" stroke="black" d="M1793.98,-450.32C1752.95,-409.79 1664.97,-322.87 1619.15,-277.61"/>
<polygon fill="black" stroke="black" points="1621.48,-274.99 1611.9,-270.46 1616.56,-279.97 1621.48,-274.99"/>
</g>
<!-- CS 6360 -->
<g id="node44" class="node">
<title>CS 6360</title>
<ellipse fill="#b2dfee" stroke="black" cx="1807.07" cy="-247.88" rx="95.42" ry="22.76"/>
<text text-anchor="middle" x="1807.07" y="-251.68" font-family="Times,serif" font-size="14.00">CS 6360</text>
<text text-anchor="middle" x="1807.07" y="-236.68" font-family="Times,serif" font-size="14.00">Database Systems</text>
</g>
<!-- FAST TRACK&#45;&gt;CS 6360 -->
<g id="edge43" class="edge">
<title>FAST TRACK&#45;&gt;CS 6360</title>
<path fill="none" stroke="black" d="M1815.19,-450.32C1813.59,-410.73 1810.21,-326.87 1808.35,-280.82"/>
<polygon fill="black" stroke="black" points="1811.85,-280.63 1807.95,-270.78 1804.85,-280.92 1811.85,-280.63"/>
</g>
<!-- FAST TRACK&#45;&gt;CS 6371 -->
<g id="edge46" class="edge">
<title>FAST TRACK&#45;&gt;CS 6371</title>
<path fill="none" stroke="black" d="M1761.39,-451.23C1653.27,-409.9 1412.64,-317.91 1296.82,-273.63"/>
<polygon fill="black" stroke="black" points="1297.94,-270.32 1287.35,-270.02 1295.44,-276.86 1297.94,-270.32"/>
</g>
<!-- degree -->
<g id="node46" class="node">
<title>degree</title>
<ellipse fill="orangered" stroke="black" cx="1431.07" cy="-1820.04" rx="104.24" ry="18"/>
<text text-anchor="middle" x="1431.07" y="-1816.34" font-family="Times,serif" font-size="14.00">B.S. in Computer Science</text>
</g>
<!-- degree&#45;&gt;ECS 1100 -->
<g id="edge48" class="edge">
<title>degree&#45;&gt;ECS 1100</title>
<path fill="none" stroke="black" d="M1361.59,-1806.58C1156.94,-1769.87 555.61,-1662.03 314.15,-1618.72"/>
<polygon fill="black" stroke="black" points="314.43,-1615.21 303.97,-1616.89 313.19,-1622.1 314.43,-1615.21"/>
</g>
<!-- degree&#45;&gt;CS 1200 -->
<g id="edge49" class="edge">
<title>degree&#45;&gt;CS 1200</title>
<path fill="none" stroke="black" d="M1370.26,-1805.36C1201.53,-1767.41 727.47,-1660.78 538.38,-1618.25"/>
<polygon fill="black" stroke="black" points="539.04,-1614.81 528.51,-1616.03 537.5,-1621.64 539.04,-1614.81"/>
</g>
<!-- degree&#45;&gt;MATH 2312 -->
<g id="edge50" class="edge">
<title>degree&#45;&gt;MATH 2312</title>
<path fill="none" stroke="black" d="M1380.06,-1804.27C1248.94,-1766.3 899.82,-1665.21 748.12,-1621.28"/>
<polygon fill="black" stroke="black" points="749,-1617.89 738.42,-1618.47 747.05,-1624.61 749,-1617.89"/>
</g>
<!-- degree&#45;&gt;CS 1436 -->
<g id="edge51" class="edge">
<title>degree&#45;&gt;CS 1436</title>
<path fill="none" stroke="black" d="M1394.81,-1802.96C1309.53,-1765.14 1095.73,-1670.33 993.8,-1625.13"/>
<polygon fill="black" stroke="black" points="995.15,-1621.9 984.59,-1621.04 992.31,-1628.3 995.15,-1621.9"/>
</g>
<!-- degree&#45;&gt;RHET 1302 -->
<g id="edge52" class="edge">
<title>degree&#45;&gt;RHET 1302</title>
<path fill="none" stroke="black" d="M1413.17,-1802.25C1373.42,-1764.95 1277.4,-1674.85 1228.21,-1628.7"/>
<polygon fill="black" stroke="black" points="1230.42,-1625.97 1220.74,-1621.68 1225.63,-1631.08 1230.42,-1625.97"/>
</g>
<!-- degree&#45;&gt;GOVT 2305 -->
<g id="edge53" class="edge">
<title>degree&#45;&gt;GOVT 2305</title>
<path fill="none" stroke="black" d="M1418.41,-1802.09C1382.88,-1753.55 1286.75,-1615.03 1317.07,-1576.78 1341.36,-1546.14 1873.1,-1436.29 2088.07,-1392.93"/>
<polygon fill="black" stroke="black" points="2088.96,-1396.33 2098.07,-1390.92 2087.57,-1389.46 2088.96,-1396.33"/>
</g>
<!-- degree&#45;&gt;GOVT 2306 -->
<g id="edge54" class="edge">
<title>degree&#45;&gt;GOVT 2306</title>
<path fill="none" stroke="black" d="M1426.51,-1801.88C1416.81,-1765.29 1393.94,-1679.1 1381.5,-1632.19"/>
<polygon fill="black" stroke="black" points="1384.81,-1631.02 1378.86,-1622.26 1378.04,-1632.82 1384.81,-1631.02"/>
</g>
<!-- degree&#45;&gt;HIST 1301 -->
<g id="edge55" class="edge">
<title>degree&#45;&gt;HIST 1301</title>
<path fill="none" stroke="black" d="M1435.62,-1801.88C1445.35,-1765.2 1468.31,-1678.66 1480.73,-1631.83"/>
<polygon fill="black" stroke="black" points="1484.18,-1632.49 1483.36,-1621.92 1477.41,-1630.69 1484.18,-1632.49"/>
</g>
<!-- degree&#45;&gt;HIST 1302 -->
<g id="edge56" class="edge">
<title>degree&#45;&gt;HIST 1302</title>
<path fill="none" stroke="black" d="M1444.48,-1801.88C1473.69,-1764.55 1543.28,-1675.57 1579.42,-1629.37"/>
<polygon fill="black" stroke="black" points="1582.35,-1631.3 1585.76,-1621.26 1576.84,-1626.98 1582.35,-1631.3"/>
</g>
<!-- degree&#45;&gt;HIST 2322 -->
<g id="edge57" class="edge">
<title>degree&#45;&gt;HIST 2322</title>
<path fill="none" stroke="black" d="M1456.6,-1802.43C1514.61,-1764.68 1656.72,-1672.21 1726.74,-1626.65"/>
<polygon fill="black" stroke="black" points="1728.84,-1629.46 1735.31,-1621.07 1725.02,-1623.59 1728.84,-1629.46"/>
</g>
<!-- degree&#45;&gt;THEA 1310 -->
<g id="edge58" class="edge">
<title>degree&#45;&gt;THEA 1310</title>
<path fill="none" stroke="black" d="M1467.79,-1803.14C1557.72,-1764.21 1788.9,-1664.12 1888.85,-1620.85"/>
<polygon fill="black" stroke="black" points="1890.32,-1624.03 1898.11,-1616.84 1887.54,-1617.61 1890.32,-1624.03"/>
</g>
<!-- degree&#45;&gt;GEOG 2303 -->
<g id="edge59" class="edge">
<title>degree&#45;&gt;GEOG 2303</title>
<path fill="none" stroke="black" d="M1478.07,-1803.93C1596.24,-1765.93 1906.04,-1666.33 2043.59,-1622.1"/>
<polygon fill="black" stroke="black" points="2044.75,-1625.41 2053.2,-1619.02 2042.6,-1618.75 2044.75,-1625.41"/>
</g>
<!-- degree&#45;&gt;MATH 1316 -->
<g id="edge60" class="edge">
<title>degree&#45;&gt;MATH 1316</title>
<path fill="none" stroke="black" d="M1489.37,-1805.03C1646.74,-1767.22 2080.37,-1663.04 2260.74,-1619.71"/>
<polygon fill="black" stroke="black" points="2261.78,-1623.06 2270.69,-1617.32 2260.15,-1616.25 2261.78,-1623.06"/>
</g>
<!-- degree&#45;&gt;RHET 1301 -->
<g id="edge61" class="edge">
<title>degree&#45;&gt;RHET 1301</title>
<path fill="none" stroke="black" d="M1498,-1806.18C1692.85,-1768.75 2259.78,-1659.83 2480.07,-1617.51"/>
<polygon fill="black" stroke="black" points="2480.82,-1620.93 2489.98,-1615.61 2479.5,-1614.05 2480.82,-1620.93"/>
</g>
</g>
</svg>
